<?xml version="1.0" encoding="utf-8"?>
<!-- Generator: Adobe Illustrator 27.4.1, SVG Export Plug-In . SVG Version: 6.00 Build 0)  -->
<svg version="1.1" xmlns="http://www.w3.org/2000/svg" xmlns:xlink="http://www.w3.org/1999/xlink" x="0px" y="0px"
	 viewBox="0 0 1920 1080" style="enable-background:new 0 0 1920 1080;" xml:space="preserve">
<style type="text/css">
	.st0{display:none;}
	.st1{display:inline;opacity:0.8;}
	.st2{opacity:0.8;}
	.st3{clip-path:url(#SVGID_00000041999732904721329400000001184087398129079169_);}
	.st4{clip-path:url(#SVGID_00000138560023498535894860000016870612013727297969_);fill:#C19F77;}
	.st5{display:inline;}
	.st6{clip-path:url(#SVGID_00000141433465446294769840000000899582975667044514_);}
	.st7{clip-path:url(#SVGID_00000096753963370725196910000008554177801533620144_);}
	.st8{clip-path:url(#SVGID_00000180368009195724340910000003282088415261523328_);}
	.st9{clip-path:url(#SVGID_00000012449721565141403800000010377413315862011280_);fill:#9F806A;}
	.st10{clip-path:url(#SVGID_00000012449721565141403800000010377413315862011280_);fill:#997B67;}
	.st11{clip-path:url(#SVGID_00000012449721565141403800000010377413315862011280_);fill:#CDA982;}
	.st12{fill:#FFFFFF;}
	.st13{clip-path:url(#SVGID_00000155114800472646647800000003963373148462449581_);}
	.st14{clip-path:url(#SVGID_00000005958299708429270530000013948904611074936742_);}
	.st15{clip-path:url(#SVGID_00000087376162137579458640000005377889978288461220_);}
	.st16{clip-path:url(#SVGID_00000000215191811391810900000014714253519479341483_);}
	.st17{clip-path:url(#SVGID_00000178164344733326598470000001834436954680009878_);fill:#9F806A;}
	.st18{clip-path:url(#SVGID_00000178164344733326598470000001834436954680009878_);fill:#997B67;}
	.st19{clip-path:url(#SVGID_00000178164344733326598470000001834436954680009878_);fill:#CDA982;}
	.st20{clip-path:url(#SVGID_00000031192837436901025070000013204465177942615960_);}
	.st21{display:inline;opacity:0.7;}
	.st22{clip-path:url(#SVGID_00000049182803938632223720000000057465123730583710_);}
	.st23{clip-path:url(#SVGID_00000077286972142021819130000010824346581962237608_);}
	.st24{clip-path:url(#SVGID_00000039118472904056915680000010208445092054158248_);}
	.st25{clip-path:url(#SVGID_00000093889249429071700990000005548418968606234799_);}
	.st26{display:inline;opacity:0.91;}
	.st27{clip-path:url(#SVGID_00000026145593213008409120000009881249095389027728_);}
	.st28{clip-path:url(#SVGID_00000031905613708175415990000011453039107260091777_);}
	.st29{display:inline;opacity:0.9;}
	.st30{clip-path:url(#SVGID_00000103231546255443490380000013315335214622487195_);}
	.st31{display:inline;opacity:0.2;}
	.st32{clip-path:url(#SVGID_00000090995866328890708050000003211100014543699376_);}
	.st33{display:inline;opacity:0.3;}
	.st34{clip-path:url(#SVGID_00000144318244122381636210000014344995235970518457_);}
	.st35{clip-path:url(#SVGID_00000061434700892303286030000016392226521534022335_);}
	.st36{clip-path:url(#SVGID_00000031206355690581996020000001497171473093652878_);}
	.st37{opacity:0.7;}
	.st38{clip-path:url(#SVGID_00000116221538836553682460000004888826676743838389_);}
	.st39{clip-path:url(#SVGID_00000106834181365406871320000001118850756345710777_);}
	.st40{display:inline;fill:none;stroke:#251714;stroke-width:4;stroke-miterlimit:10;}
	.st41{fill:url(#SVGID_00000016050305983843820070000015011828240278114710_);}
</style>
<g id="Layer_1" class="st0">
	
		<image style="display:inline;overflow:visible;" width="2394" height="1616" xlink:href="../../../../[downloads]/0929 _ 松市互動介面設計更新/截圖 2023-09-29 下午6.46.16.png"  transform="matrix(2.8693 0 0 2.8693 -2098 -2928.5249)">
	</image>
</g>
<g id="Layer_3" class="st0">
	
		<image style="display:inline;overflow:visible;opacity:0.3;" width="16206" height="8675" xlink:href="FC4C8DD030625AF5.png"  transform="matrix(0.1245 0 0 0.1245 -1940.1609 0)">
	</image>
	<g class="st5">
		<defs>
			<rect id="SVGID_00000173129532069929402700000014824458532193791931_" x="-688.5" y="732.3" width="568.5" height="341.9"/>
		</defs>
		<clipPath id="SVGID_00000159440237359023331660000015269640867962778516_">
			<use xlink:href="#SVGID_00000173129532069929402700000014824458532193791931_"  style="overflow:visible;"/>
		</clipPath>
		<g style="clip-path:url(#SVGID_00000159440237359023331660000015269640867962778516_);">
			<g>
				<defs>
					<path id="SVGID_00000128450754674709135070000014671242779606039454_" d="M-143.2,1991.3c-174-68.8-348.1-140.4-522.1-213.2
						c0-308.5,0-617,0-925.4c174,26.8,348.1,52.4,522.1,75.1C-143.2,1282.3-143.2,1636.8-143.2,1991.3z"/>
				</defs>
				<clipPath id="SVGID_00000050627772922968149670000008320496242868159398_">
					<use xlink:href="#SVGID_00000128450754674709135070000014671242779606039454_"  style="overflow:visible;"/>
				</clipPath>
				<g style="clip-path:url(#SVGID_00000050627772922968149670000008320496242868159398_);">
					<defs>
						<path id="SVGID_00000132792473450279570190000012754969178360561543_" d="M-401.3,1992.9
							C-401.3,1992.9-401.3,1992.9-401.3,1992.9c-77.8-34.1-148.2-102.5-199.2-181.6c-51-79.4-82.5-169.5-82.5-255.7
							c0-166.4,0-332.8,0-499.3c0-86.2,31.5-158.2,82.5-208.8c51-50.2,121.4-78.9,199.2-70.2c0,0,0,0,0,0
							c77.8,8.7,148.2,54.8,199.2,126c51,70.8,82.5,166.9,82.5,267.3c0,193.4,0,386.7,0,580.1c0,100.4-31.5,180.2-82.5,224
							C-253.1,2018.9-323.5,2027.1-401.3,1992.9z"/>
					</defs>
					<clipPath id="SVGID_00000049933239247397206300000013448979499794717595_">
						<use xlink:href="#SVGID_00000132792473450279570190000012754969178360561543_"  style="overflow:visible;"/>
					</clipPath>
					<g style="clip-path:url(#SVGID_00000049933239247397206300000013448979499794717595_);">
						
							<image style="overflow:visible;" width="2101" height="1482" xlink:href="FC4C8DD030625AFB.png"  transform="matrix(2.687 0 0 2.2883 -3849.6914 31.1567)">
						</image>
					</g>
				</g>
			</g>
		</g>
	</g>
	<g class="st5">
		<defs>
			<rect id="SVGID_00000100360903621880620940000002162027978067537810_" x="-1937.6" y="851" width="325.5" height="223.3"/>
		</defs>
		<clipPath id="SVGID_00000022538202820264421100000016654243108349569958_">
			<use xlink:href="#SVGID_00000100360903621880620940000002162027978067537810_"  style="overflow:visible;"/>
		</clipPath>
		<g style="clip-path:url(#SVGID_00000022538202820264421100000016654243108349569958_);">
			<g>
				<defs>
					<path id="SVGID_00000140720796469188716240000014321639596555489432_" d="M-1705.7,2067c-233.8,58.7-467.6,120.5-701.3,183.7
						c0-404.7,0-809.5,0-1214.2c233.8-45.4,467.6-89.5,701.3-130.4C-1705.7,1293-1705.7,1680-1705.7,2067z"/>
				</defs>
				<clipPath id="SVGID_00000063625081075374905630000014819583266846946466_">
					<use xlink:href="#SVGID_00000140720796469188716240000014321639596555489432_"  style="overflow:visible;"/>
				</clipPath>
				<g style="clip-path:url(#SVGID_00000063625081075374905630000014819583266846946466_);">
					<defs>
						<path id="SVGID_00000053530837167011194310000008231168609137413567_" d="M-2052.4,2281.9
							C-2052.4,2281.9-2052.4,2281.9-2052.4,2281.9c-209,57.5-378.4-59.7-378.4-263.8c0-249.8,0-499.6,0-749.4
							c0-204,169.4-400.4,378.4-436.7c0,0,0,0,0,0c209-36.4,378.4,92.8,378.4,285.4c0,238,0,476,0,714
							C-1674,2024-1843.4,2224.4-2052.4,2281.9z"/>
					</defs>
					<clipPath id="SVGID_00000023963252516331276070000017531289310674870420_">
						<use xlink:href="#SVGID_00000053530837167011194310000008231168609137413567_"  style="overflow:visible;"/>
					</clipPath>
					<g style="clip-path:url(#SVGID_00000023963252516331276070000017531289310674870420_);">
						
							<image style="overflow:visible;" width="2101" height="1184" xlink:href="FC4C8DD030625AFD.png"  transform="matrix(3.6093 0 0 3.4501 -6684.3916 -106.1875)">
						</image>
					</g>
				</g>
			</g>
		</g>
	</g>
	<g class="st26">
		<g>
			<defs>
				<polygon id="SVGID_00000079478283085943915720000006247824500891923110_" points="-533.8,366.2 -705.9,354.5 -705.9,87.2 
					-533.8,60.5 				"/>
			</defs>
			<clipPath id="SVGID_00000180368040107540594100000010944184069278166952_">
				<use xlink:href="#SVGID_00000079478283085943915720000006247824500891923110_"  style="overflow:visible;"/>
			</clipPath>
			
				<g id="VQ0RB8_00000176753348681348527000000007500542856140946621_" style="clip-path:url(#SVGID_00000180368040107540594100000010944184069278166952_);">
				
					<image style="overflow:visible;" width="1456" height="816" id="VQ0RB8_00000028297105392702321790000012113020174099964072_" xlink:href="FC4C8DD030625AFF.jpg"  transform="matrix(0.7208 0 0 0.7208 -917.9919 -186.2736)">
				</image>
			</g>
		</g>
	</g>
	<g class="st29">
		<g>
			<defs>
				<polygon id="SVGID_00000165231596950489426950000005460568601396960434_" points="38.7,727.6 -214.6,688.9 -214.6,316.7 
					38.7,278 				"/>
			</defs>
			<clipPath id="SVGID_00000163791140591503632100000006098864365302867611_">
				<use xlink:href="#SVGID_00000165231596950489426950000005460568601396960434_"  style="overflow:visible;"/>
			</clipPath>
			
				<g id="erVoRY_00000031911112191471631860000007992476733577147575_" style="clip-path:url(#SVGID_00000163791140591503632100000006098864365302867611_);">
				
					<image style="overflow:visible;" width="563" height="715" id="erVoRY_00000183236289094172846740000006606119971626217863_" xlink:href="FC4C8DD030625AFD.jpg"  transform="matrix(0.6288 0 0 0.6288 -272.119 277.9925)">
				</image>
			</g>
			<g style="clip-path:url(#SVGID_00000163791140591503632100000006098864365302867611_);">
				
					<image style="overflow:visible;" width="888" height="1920" xlink:href="../../../../[downloads]/0929 _ 松市互動介面設計更新/Links/IMG_6945.JPG"  transform="matrix(0.2991 0 0 0.2691 -220.7114 267.3886)">
				</image>
			</g>
		</g>
	</g>
	<rect x="-1936.9" y="3.1" class="st40" width="2008.7" height="1070.8"/>
</g>
<g id="Layer_6">
</g>
<g id="Layer_4">
	<g>
		<path class="st12" d="M54.1,43.6h32.4v5.6H60.4v15.2h23.5V70H60.4v20.8h-6.3V43.6z"/>
		<path class="st12" d="M88.4,72.7V43.6h6.3v28.9c0,9,5.5,13.7,12.3,13.7c6.8,0,12.3-4.7,12.3-13.7V43.6h6.3v29.1
			c0,12.3-8.1,19.2-18.6,19.2S88.4,85.1,88.4,72.7z"/>
		<path class="st12" d="M143.8,49.1h-16.2v-5.5h38.7v5.5H150v41.8h-6.3V49.1z"/>
		<path class="st12" d="M168.2,72.7V43.6h6.3v28.9c0,9,5.5,13.7,12.3,13.7c6.8,0,12.3-4.7,12.3-13.7V43.6h6.3v29.1
			c0,12.3-8.1,19.2-18.6,19.2S168.2,85.1,168.2,72.7z"/>
		<path class="st12" d="M211.8,43.6h18.1c10.8,0,16.9,5.3,16.9,13c0,6.1-3.8,10.5-10.7,11.9v0.1c5.7,2.2,7.8,6.5,9.4,12.5l2.7,9.8
			h-6.5l-2.2-8.2c-2.4-9-4.9-11.3-13.1-11.3h-8.4v19.5h-6.3V43.6z M226.8,65.8c8.8,0,13.5-3,13.5-8.7c0-5-3.7-7.9-10.5-7.9h-11.8
			v16.6H226.8z"/>
		<path class="st12" d="M251.3,43.6h32.4v5.6h-26.1v15.2h23.5V70h-23.5v15.2h26.2v5.6h-32.5V43.6z"/>
		<path class="st12" d="M81.9,146.5v5.6H54.1v-47.2h6.3v41.6H81.9z"/>
		<path class="st12" d="M83.8,104.9h6.3v47.2h-6.3V104.9z"/>
		<path class="st12" d="M96.5,104.9h32.4v5.6h-26.1v15.2h23.5v5.6h-23.5v20.8h-6.3V104.9z"/>
		<path class="st12" d="M130.8,104.9h32.4v5.6h-26.1v15.2h23.5v5.6h-23.5v15.2h26.2v5.6h-32.5V104.9z"/>
	</g>
</g>
<g id="Layer_5">
</g>
<g id="Layer_2" class="st0">
</g>
</svg>
