<?xml version="1.0" encoding="utf-8"?>
<!-- Generator: Adobe Illustrator 27.4.1, SVG Export Plug-In . SVG Version: 6.00 Build 0)  -->
<svg version="1.1" xmlns="http://www.w3.org/2000/svg" xmlns:xlink="http://www.w3.org/1999/xlink" x="0px" y="0px"
	 viewBox="0 0 1920 1080" style="enable-background:new 0 0 1920 1080;" xml:space="preserve">
<style type="text/css">
	.st0{display:none;}
	.st1{display:inline;opacity:0.8;}
	.st2{opacity:0.8;}
	.st3{clip-path:url(#SVGID_00000019654173346785031790000009788276938449159331_);}
	.st4{clip-path:url(#SVGID_00000063621764952896594790000017649243057442733208_);fill:#C09E77;}
	.st5{display:inline;}
	.st6{clip-path:url(#SVGID_00000165229171634490272720000006032212047665841560_);}
	.st7{clip-path:url(#SVGID_00000124127058803627418400000017805528749571776180_);}
	.st8{clip-path:url(#SVGID_00000021119175889984530700000005411506997128137137_);}
	.st9{clip-path:url(#SVGID_00000168074848882411016360000018415589554494032061_);fill:#9E806A;}
	.st10{clip-path:url(#SVGID_00000168074848882411016360000018415589554494032061_);fill:#987B67;}
	.st11{clip-path:url(#SVGID_00000168074848882411016360000018415589554494032061_);fill:#CCA881;}
	.st12{fill:#FFFFFF;}
	.st13{clip-path:url(#SVGID_00000067953695434758238930000003342796668403618698_);}
	.st14{clip-path:url(#SVGID_00000083775715749692277350000016440584921373082528_);}
	.st15{clip-path:url(#SVGID_00000022557160936117724550000004092642278588789896_);}
	.st16{clip-path:url(#SVGID_00000117660406159410694210000018080973987980997550_);}
	.st17{clip-path:url(#SVGID_00000028324703304382997720000001007083570698926988_);fill:#9E806A;}
	.st18{clip-path:url(#SVGID_00000028324703304382997720000001007083570698926988_);fill:#987B67;}
	.st19{clip-path:url(#SVGID_00000028324703304382997720000001007083570698926988_);fill:#CCA881;}
	.st20{clip-path:url(#SVGID_00000013183288483488335390000012367960591581230253_);}
	.st21{display:inline;opacity:0.7;}
	.st22{clip-path:url(#SVGID_00000152959289786310045110000018102757580172754595_);}
	.st23{clip-path:url(#SVGID_00000127758847564589385360000009831300261126879905_);}
	.st24{clip-path:url(#SVGID_00000166674112137689507470000010341234514484308353_);}
	.st25{clip-path:url(#SVGID_00000000185321630763345950000000117461134431110568_);}
	.st26{display:inline;opacity:0.91;}
	.st27{clip-path:url(#SVGID_00000100358196928679449010000002488043659972555146_);}
	.st28{clip-path:url(#SVGID_00000155141047565681191430000000845824122668726705_);}
	.st29{display:inline;opacity:0.9;}
	.st30{clip-path:url(#SVGID_00000114060401779348780420000003358654621034941568_);}
	.st31{display:inline;opacity:0.2;}
	.st32{clip-path:url(#SVGID_00000148654761253631757810000015670604030881671819_);}
	.st33{display:inline;opacity:0.3;}
	.st34{clip-path:url(#SVGID_00000078765127480720855990000011395284922320980396_);}
	.st35{clip-path:url(#SVGID_00000021105868951580418110000003954960838637652640_);}
	.st36{clip-path:url(#SVGID_00000071527129428605190820000012483433085901012627_);}
	.st37{opacity:0.7;}
	.st38{clip-path:url(#SVGID_00000037694381500573362620000007167446838727403396_);}
	.st39{clip-path:url(#SVGID_00000032636560591955917090000010551958933765321903_);}
	.st40{display:inline;fill:none;stroke:#251714;stroke-width:4;stroke-miterlimit:10;}
	.st41{fill:url(#SVGID_00000173851985282439961190000001221962986176173446_);}
	.st42{fill:none;stroke:#251714;stroke-width:4;stroke-miterlimit:10;}
</style>
<g id="Layer_1" class="st0">
	
		<image style="display:inline;overflow:visible;" width="2394" height="1616" xlink:href="../../../../[downloads]/0929 _ 松市互動介面設計更新/截圖 2023-09-29 下午6.46.16.png"  transform="matrix(2.8693 0 0 2.8693 -4068 -3746)">
	</image>
</g>
<g id="Layer_3" class="st0">
</g>
<g id="Layer_6">
</g>
<g id="Layer_4">
</g>
<g id="Layer_5">
	<g>
		<path class="st12" d="M1573.5,43.6h20.2c9.4,0,16.3,5.3,16.3,14.3s-6.8,14-16.3,14h-13.9v18.9h-6.3V43.6z M1593,66.4
			c6.5,0,10.5-3.2,10.5-8.4s-4-8.7-10.5-8.7h-13.2v17.1H1593z"/>
		<path class="st12" d="M1612.7,43.6h18.1c10.8,0,16.9,5.3,16.9,13c0,6.1-3.8,10.5-10.7,11.9v0.1c5.7,2.2,7.8,6.5,9.4,12.5l2.7,9.8
			h-6.5l-2.2-8.2c-2.4-9-4.9-11.3-13.1-11.3h-8.4v19.5h-6.3V43.6z M1627.7,65.8c8.8,0,13.5-3,13.5-8.7c0-5-3.7-7.9-10.5-7.9h-11.8
			v16.6H1627.7z"/>
		<path class="st12" d="M1666.9,43.6h6.4l17.7,47.2h-6.6l-4.5-12.6h-19.8l-4.5,12.6h-6.6L1666.9,43.6z M1678,72.7l-3.2-9.2
			c-1.6-4.3-3-8.6-4.6-13h-0.1c-1.6,4.3-3,8.6-4.6,13l-3.2,9.2H1678z"/>
		<path class="st12" d="M1688.5,67.2c0-15,8.7-24.6,23.2-24.6c13.4,0,20.8,8.6,21.8,19.1h-6.5c-0.5-7.2-5.9-13.5-15.3-13.5
			c-10.3,0-16.7,7.2-16.7,19s7.3,19.1,16.7,19.1c9.2,0,14.5-6.9,15.3-12.6h6.5c-1.2,9.7-8.8,18.2-21.8,18.2
			C1697.8,91.9,1688.5,82.1,1688.5,67.2z"/>
		<path class="st12" d="M1747.9,49.1h-16.2v-5.5h38.7v5.5h-16.2v41.8h-6.3V49.1z"/>
		<path class="st12" d="M1772.3,43.6h6.3v47.2h-6.3V43.6z"/>
		<path class="st12" d="M1782.6,67.2c0-15,8.7-24.6,23.2-24.6c13.4,0,20.8,8.6,21.8,19.1h-6.5c-0.5-7.2-5.9-13.5-15.3-13.5
			c-10.3,0-16.7,7.2-16.7,19s7.3,19.1,16.7,19.1c9.2,0,14.5-6.9,15.3-12.6h6.5c-1.2,9.7-8.8,18.2-21.8,18.2
			C1792,91.9,1782.6,82.1,1782.6,67.2z"/>
		<path class="st12" d="M1831.5,43.6h32.4v5.6h-26.1v15.2h23.5V70h-23.5v15.2h26.2v5.6h-32.5V43.6z"/>
		<path class="st12" d="M1679,104.9h18.1c10.8,0,16.9,5.3,16.9,13c0,6.1-3.8,10.5-10.7,11.9v0.1c5.7,2.2,7.8,6.5,9.4,12.5l2.7,9.8
			h-6.5l-2.2-8.2c-2.4-9-4.9-11.3-13.1-11.3h-8.4v19.5h-6.3V104.9z M1694.1,127.1c8.8,0,13.5-3,13.5-8.7c0-5-3.7-7.9-10.5-7.9h-11.8
			v16.6H1694.1z"/>
		<path class="st12" d="M1715.5,128.5c0-15.8,10.7-24.6,23.1-24.6s23.1,8.8,23.1,24.6c0,15.8-10.7,24.6-23.1,24.6
			S1715.5,144.3,1715.5,128.5z M1738.6,147.6c9.1,0,16.5-6.3,16.5-19c0-12.7-7.4-19-16.5-19c-9.1,0-16.5,6.3-16.5,19
			C1722,141.2,1729.4,147.6,1738.6,147.6z"/>
		<path class="st12" d="M1763.2,128.5c0-15.8,10.7-24.6,23.1-24.6s23.1,8.8,23.1,24.6c0,15.8-10.7,24.6-23.1,24.6
			S1763.2,144.3,1763.2,128.5z M1786.3,147.6c9.1,0,16.5-6.3,16.5-19c0-12.7-7.4-19-16.5-19c-9.1,0-16.5,6.3-16.5,19
			C1769.8,141.2,1777.2,147.6,1786.3,147.6z"/>
		<path class="st12" d="M1813.5,104.9h9.2l14.1,40.3h0.1l14.1-40.3h9.2v47.2h-6.1v-30.1c0-2.7,0.1-5.4,0.1-8.1h-0.1l-13.6,38.2h-7.2
			l-13.6-38.2h-0.1c0,2.7,0.1,5.4,0.1,8.1v30.1h-6.1V104.9z"/>
	</g>
</g>
<g id="Layer_2" class="st0">
</g>
</svg>
