<?xml version="1.0" encoding="utf-8"?>
<!-- Generator: Adobe Illustrator 27.4.1, SVG Export Plug-In . SVG Version: 6.00 Build 0)  -->
<svg version="1.1" xmlns="http://www.w3.org/2000/svg" xmlns:xlink="http://www.w3.org/1999/xlink" x="0px" y="0px"
	 viewBox="0 0 1920 1080" style="enable-background:new 0 0 1920 1080;" xml:space="preserve">
<style type="text/css">
	.st0{display:none;}
	.st1{display:inline;opacity:0.8;}
	.st2{opacity:0.8;}
	.st3{clip-path:url(#SVGID_00000147929805810770556790000017398096398588406966_);}
	.st4{clip-path:url(#SVGID_00000135657995312693119340000010320298292366624408_);fill:#C19F77;}
	.st5{display:inline;}
	.st6{clip-path:url(#SVGID_00000168113131069144163750000011328564647056225974_);}
	.st7{clip-path:url(#SVGID_00000126286247911773802360000015872042348352609706_);}
	.st8{clip-path:url(#SVGID_00000127730836336544064500000006696208278757981838_);}
	.st9{clip-path:url(#SVGID_00000103963336317533654550000012833205251706447540_);fill:#9F806A;}
	.st10{clip-path:url(#SVGID_00000103963336317533654550000012833205251706447540_);fill:#997B67;}
	.st11{clip-path:url(#SVGID_00000103963336317533654550000012833205251706447540_);fill:#CDA982;}
	.st12{fill:#FFFFFF;}
	.st13{clip-path:url(#SVGID_00000132794541618206134700000005540228632850492585_);}
	.st14{clip-path:url(#SVGID_00000124848283321792723840000013501395587246948766_);}
	.st15{clip-path:url(#SVGID_00000125564923792634310840000012356316353097421726_);}
	.st16{clip-path:url(#SVGID_00000060027675656845152320000007487668744092837767_);}
	.st17{clip-path:url(#SVGID_00000180329593562764187960000009225888369815817655_);fill:#9F806A;}
	.st18{clip-path:url(#SVGID_00000180329593562764187960000009225888369815817655_);fill:#997B67;}
	.st19{clip-path:url(#SVGID_00000180329593562764187960000009225888369815817655_);fill:#CDA982;}
	.st20{clip-path:url(#SVGID_00000181044718438134920800000015477553185689063852_);}
	.st21{display:inline;opacity:0.7;}
	.st22{clip-path:url(#SVGID_00000047019932651445096410000016510035703556024217_);}
	.st23{clip-path:url(#SVGID_00000053509487724722277150000011666562902172472491_);}
	.st24{clip-path:url(#SVGID_00000039100557844285168710000018005686417700753807_);}
	.st25{clip-path:url(#SVGID_00000133501602569241620070000001044645365491343796_);}
	.st26{display:inline;opacity:0.91;}
	.st27{clip-path:url(#SVGID_00000075130274836539190570000017282939938510315199_);}
	.st28{clip-path:url(#SVGID_00000047751975637352452020000017380013324920743597_);}
	.st29{display:inline;opacity:0.9;}
	.st30{clip-path:url(#SVGID_00000056418887720605226450000016186397360577193863_);}
	.st31{display:inline;opacity:0.2;}
	.st32{clip-path:url(#SVGID_00000021808324040289688540000012230726904779588766_);}
	.st33{display:inline;opacity:0.3;}
	.st34{clip-path:url(#SVGID_00000097467574791351317580000001289899257904597666_);}
	.st35{clip-path:url(#SVGID_00000033349658818734173020000010092241925215211666_);}
	.st36{clip-path:url(#SVGID_00000093157836556414436940000000677601592624254088_);}
	.st37{opacity:0.7;}
	.st38{clip-path:url(#SVGID_00000078735204066862779660000016247679971533186494_);}
	.st39{clip-path:url(#SVGID_00000147221258098467766400000006359404724995479947_);}
	.st40{display:inline;fill:none;stroke:#251714;stroke-width:4;stroke-miterlimit:10;}
	.st41{fill:url(#SVGID_00000000211648595280421820000000162126856476097436_);}
</style>
<g id="Layer_1" class="st0">
	
		<image style="display:inline;overflow:visible;" width="2394" height="1616" xlink:href="../../../../[downloads]/0929 _ 松市互動介面設計更新/截圖 2023-09-29 下午6.46.16.png"  transform="matrix(2.8693 0 0 2.8693 -5978 -2928.5249)">
	</image>
</g>
<g id="Layer_3" class="st0">
</g>
<g id="Layer_6">
	<g>
		<path class="st12" d="M66.2,1050.1h-3v-11.1c-2.8,3.7-6.9,7.6-10.9,9.6l-1.6-2.7c3.7-1.6,8.3-5.8,10.9-9.4H51.3v-2.8h11.8v-4.8
			h-9.5v-2.8h9.5v-4.8h3v4.8H76v2.8h-9.8v4.8h12v2.8H67.7c2.7,3.6,7.2,7.8,11,9.4l-1.5,2.7c-4-2-8.1-6-10.9-9.7V1050.1z"/>
		<path class="st12" d="M99.4,1050.1h-3v-10.2c-2.8,3.5-6.8,7.1-10.8,9l-1.4-2.8c4.4-1.8,9.6-6.6,12.2-10.7v-7.5H85v-2.7h11.4v-4.1
			h3v4.1h11.8v2.7H99.4v7.3c0.3,0.5,0.6,1,0.9,1.4c2.1-1.8,3.4-5.1,4-8.2l2.8,0.5c-0.3,1.2-0.6,2.4-1.1,3.5c0.6,0.4,1.3,1,2,1.5
			l0.3,0.2c1.3,1,2.5,2.1,3.2,2.8l-2.1,2c-0.9-1-2.9-2.7-4.5-4.1c-0.7,1.2-1.6,2.4-2.4,3.2c-0.5-0.4-1.4-1-2.1-1.4
			c2.7,3.7,7.4,7.7,11.5,9.2l-1.5,2.9c-4.2-1.9-8.1-5.6-11-9.1V1050.1z M86.7,1039.8l-1.9-2.1c2.5-1.9,4.6-5.4,5.5-9.2l2.7,0.6
			c-0.3,1.2-0.7,2.4-1.1,3.5c1.2,1,2.6,2.3,3.3,3.1l-1.9,2c-0.5-0.7-1.6-1.7-2.5-2.7C89.7,1036.8,88.2,1038.5,86.7,1039.8z"/>
		<path class="st12" d="M144.4,1028.6h-27.3v-2.6h7.1c-0.5-1.1-1.7-2.7-2.6-3.7l2.7-0.9c1.1,1.2,2.5,3,3,4.1l-1.6,0.6h9.7l-1.1-0.5
			c0.9-1.2,2-3.1,2.7-4.4l3.1,1c-0.3,0.4-0.6,0.8-0.9,1.2l-0.2,0.3c-0.7,0.9-1.4,1.8-2,2.5h7.4V1028.6z M124.4,1050.1l-0.2-2.4
			c0.9,0.1,2.1,0.1,2.4,0.1c0.4,0,0.5-0.3,0.5-0.7v-9.4l-1,1.6c-0.8-0.7-2.8-1.8-4.2-2.4l1.4-1.6c1.4,0.5,3,1.5,3.9,2.2v-4h-5.3v8.1
			l1.2-1.4c1.5,0.6,3.2,1.7,4.1,2.6l-1.1,1.7c-0.9-0.8-2.6-1.9-4.1-2.6v8.1h-2.7v-19H130v16c0,1.3-0.3,2.2-1.2,2.5
			C127.9,1050.1,126.7,1050.1,124.4,1050.1z M135.6,1044.2h-2.7v-12.8h2.7V1044.2z M135.4,1050.1l-0.2-2.7c0.9,0,2.1,0.1,2.8,0.1
			h0.3c0.2,0,0.3,0,0.4,0c0.5,0,0.7-0.3,0.7-0.7v-16.2h2.8v16.2c0,1.5-0.3,2.4-1.4,2.9C139.8,1050.1,138,1050.2,135.4,1050.1z"/>
		<path class="st12" d="M151,1049.8c-0.4-0.6-1.6-1.6-2.2-1.9c1.9-3.7,2.2-9.6,2.3-13.4v-10.9l1.6,0.5c2.8-0.7,5.9-1.7,7.8-2.6
			l2.3,2.1c-2.5,1.1-5.9,2.1-9,2.7v2.3h8.7v10.1h-8.8C153.4,1042.2,152.6,1046.9,151,1049.8z M159.8,1036.2v-4.9h-6v3.6
			c0,0.2,0,0.3,0,0.5v0.3c0,0.2,0,0.4,0,0.6H159.8z M174.2,1050.1h-2.9v-15.8H167c-0.2,4.6-1.4,11.6-5.4,15.8
			c-0.4-0.6-1.4-1.7-2.1-2c4.1-4.3,4.7-11.2,4.7-15.7v-8.3l2.2,0.5c2.9-0.8,6.1-2,8-3l2.6,2.1c-2.7,1.3-6.6,2.5-9.9,3.3v4.6h10.3
			v2.7h-3.2V1050.1z"/>
	</g>
</g>
<g id="Layer_4">
	<g>
		<path class="st12" d="M203.7,1039.8l3.8-0.4c0,3,2.1,4.6,5,4.6c2.6,0,4.8-0.8,4.8-3.3c0-2.5-2.8-2.4-5.9-3
			c-3.8-0.8-7.1-2.2-7.1-6.2c0-4.4,4-6,7.8-6c4.4,0,7.9,1.7,8.3,6.6l-3.8,0.7c-0.1-2.9-1.8-4.3-4.6-4.3c-2.1,0-4,0.9-4,2.8
			c0,1.9,2.3,2.5,5.2,3c4.4,0.7,7.8,1.8,7.8,6.3c0,5-4.3,6.4-8.6,6.4C207.8,1047,203.7,1044.7,203.7,1039.8z"/>
		<path class="st12" d="M223.4,1046.6v-20.7h14.1v3.1h-10.4v5.7h9.3v3h-9.3v5.9h10.4v3.1H223.4z"/>
		<path class="st12" d="M254.3,1046.6l-1.9-5.4h-8.1l-1.9,5.4h-3.9l8-20.7h3.8l7.9,20.7H254.3z M245.4,1038.1h5.9l-1.7-5
			c-0.4-1.1-0.9-2.5-1.2-3.8h0c-0.4,1.5-0.7,2.5-1.2,3.8L245.4,1038.1z"/>
		<path class="st12" d="M276.3,1046.5L276.3,1046.5l-4,0.1c-0.7-1.1-0.8-2-0.8-4.7c0-2.5-1.2-3.4-4.1-3.4h-3.9v8.2h-3.7v-20.7h7.6
			c4.1,0,8.3,0.7,8.3,6.2c0,2.5-1.3,4.3-3.3,5.1c2,0.8,2.8,2.2,2.8,4.5C275.1,1043.9,275.3,1045.2,276.3,1046.5z M267.1,1035.5
			c2.5,0,4.9-0.3,4.9-3.3c0-3.2-2.4-3.3-4.8-3.3h-3.7v6.6H267.1z"/>
		<path class="st12" d="M277.5,1036.3c0-6.3,3.6-10.7,10.2-10.7c4.4,0,8.1,2.2,9.2,6.7l-3.8,0.7c-0.6-2.6-2.3-4.5-5.4-4.5
			c-2.1,0-3.8,0.6-4.8,2c-1,1.3-1.5,3.3-1.5,5.8c0,2.5,0.4,4.2,1.3,5.6c1,1.4,2.6,2.1,4.9,2.1c3,0,4.8-1.8,5.5-4.2l3.9,1
			c-1.6,4-4.9,6.1-9.4,6.1C281.2,1047,277.5,1043.2,277.5,1036.3z"/>
		<path class="st12" d="M299,1046.6v-20.7h3.7v8.7h9.1v-8.7h3.7v20.7h-3.7v-8.9h-9.1v8.9H299z"/>
		<path class="st12" d="M324.9,1046.6v-20.7H339v3.1h-10.4v5.7h9.3v3h-9.3v8.9H324.9z"/>
		<path class="st12" d="M339.7,1036.3c0-6.3,3.6-10.7,10.2-10.7c6.5,0,10.2,4.5,10.2,10.7c0,6.3-3.7,10.7-10.2,10.7
			C343.4,1047,339.7,1043.2,339.7,1036.3z M354.6,1041.9c1-1.4,1.5-3.3,1.5-5.7c0-2.4-0.5-4.4-1.5-5.7c-1-1.4-2.6-2.1-4.6-2.1
			c-2.2,0-3.9,0.8-4.8,2s-1.5,3.4-1.5,5.7c0,2.5,0.6,4.5,1.4,5.6c1.1,1.4,2.8,2.1,4.8,2.1C352,1044,353.6,1043.3,354.6,1041.9z"/>
		<path class="st12" d="M379,1046.5L379,1046.5l-4,0.1c-0.7-1.1-0.8-2-0.8-4.7c0-2.5-1.2-3.4-4.1-3.4h-3.9v8.2h-3.7v-20.7h7.6
			c4.1,0,8.3,0.7,8.3,6.2c0,2.5-1.3,4.3-3.3,5.1c2,0.8,2.8,2.2,2.8,4.5C377.8,1043.9,378,1045.2,379,1046.5z M369.8,1035.5
			c2.5,0,4.9-0.3,4.9-3.3c0-3.2-2.4-3.3-4.8-3.3h-3.7v6.6H369.8z"/>
		<path class="st12" d="M392.6,1046.6v-8.7l-7.3-12h4.2l2.9,5.1c0.3,0.6,1.3,2.5,2,3.9c0.8-1.4,1.5-2.8,2.1-3.9l2.9-5.1h4.2l-7.3,12
			v8.7H392.6z"/>
		<path class="st12" d="M402.7,1036.3c0-6.3,3.6-10.7,10.2-10.7c6.5,0,10.2,4.5,10.2,10.7c0,6.3-3.7,10.7-10.2,10.7
			C406.4,1047,402.7,1043.2,402.7,1036.3z M417.6,1041.9c1-1.4,1.5-3.3,1.5-5.7c0-2.4-0.5-4.4-1.5-5.7c-1-1.4-2.6-2.1-4.6-2.1
			c-2.2,0-3.9,0.8-4.8,2s-1.5,3.4-1.5,5.7c0,2.5,0.6,4.5,1.4,5.6c1.1,1.4,2.8,2.1,4.8,2.1C415,1044,416.6,1043.3,417.6,1041.9z"/>
		<path class="st12" d="M425.3,1039.8v-13.9h3.7v13.7c0,2.9,2.1,4.3,4.7,4.3c2.6,0,4.7-1.4,4.7-4.3v-13.7h3.7v13.9
			c0,4.7-2.9,7.2-8.4,7.2C428.2,1047,425.3,1044.5,425.3,1039.8z"/>
		<path class="st12" d="M462.1,1046.5L462.1,1046.5l-4,0.1c-0.7-1.1-0.8-2-0.8-4.7c0-2.5-1.2-3.4-4.1-3.4h-3.9v8.2h-3.7v-20.7h7.6
			c4.1,0,8.3,0.7,8.3,6.2c0,2.5-1.3,4.3-3.3,5.1c2,0.8,2.8,2.2,2.8,4.5C460.9,1043.9,461.1,1045.2,462.1,1046.5z M452.9,1035.5
			c2.5,0,4.9-0.3,4.9-3.3c0-3.2-2.4-3.3-4.8-3.3h-3.7v6.6H452.9z"/>
		<path class="st12" d="M470.4,1046.6v-20.7h14.1v3.1h-10.4v5.7h9.3v3h-9.3v8.9H470.4z"/>
		<path class="st12" d="M486.2,1039.8v-13.9h3.7v13.7c0,2.9,2.1,4.3,4.7,4.3c2.6,0,4.7-1.4,4.7-4.3v-13.7h3.7v13.9
			c0,4.7-2.9,7.2-8.4,7.2S486.2,1044.5,486.2,1039.8z"/>
		<path class="st12" d="M511.2,1046.6V1029h-6.7v-3.1h17.2v3.1h-6.7v17.6H511.2z"/>
		<path class="st12" d="M523.2,1039.8v-13.9h3.7v13.7c0,2.9,2.1,4.3,4.7,4.3c2.6,0,4.7-1.4,4.7-4.3v-13.7h3.7v13.9
			c0,4.7-2.9,7.2-8.4,7.2S523.2,1044.5,523.2,1039.8z"/>
		<path class="st12" d="M560,1046.5L560,1046.5l-4,0.1c-0.7-1.1-0.8-2-0.8-4.7c0-2.5-1.2-3.4-4.1-3.4h-3.9v8.2h-3.7v-20.7h7.6
			c4.1,0,8.3,0.7,8.3,6.2c0,2.5-1.3,4.3-3.3,5.1c2,0.8,2.8,2.2,2.8,4.5C558.8,1043.9,559,1045.2,560,1046.5z M550.8,1035.5
			c2.5,0,4.9-0.3,4.9-3.3c0-3.2-2.4-3.3-4.8-3.3h-3.7v6.6H550.8z"/>
		<path class="st12" d="M562.4,1046.6v-20.7h14.1v3.1h-10.4v5.7h9.3v3h-9.3v5.9h10.4v3.1H562.4z"/>
		<path class="st12" d="M585,1046.6v-20.7h3.7v17.6h10.4v3.1H585z"/>
		<path class="st12" d="M600.7,1046.6v-20.7h3.7v20.7H600.7z"/>
		<path class="st12" d="M607.9,1046.6v-20.7h14.1v3.1h-10.4v5.7h9.3v3h-9.3v8.9H607.9z"/>
		<path class="st12" d="M623.7,1046.6v-20.7h14.1v3.1h-10.4v5.7h9.3v3h-9.3v5.9h10.4v3.1H623.7z"/>
	</g>
</g>
<g id="Layer_5">
</g>
<g id="Layer_2" class="st0">
</g>
</svg>
