<?xml version="1.0" encoding="utf-8"?>
<!-- Generator: Adobe Illustrator 27.4.1, SVG Export Plug-In . SVG Version: 6.00 Build 0)  -->
<svg version="1.1" xmlns="http://www.w3.org/2000/svg" xmlns:xlink="http://www.w3.org/1999/xlink" x="0px" y="0px"
	 viewBox="0 0 1920 1080" style="enable-background:new 0 0 1920 1080;" xml:space="preserve">
<style type="text/css">
	.st0{display:none;}
	.st1{display:inline;opacity:0.8;}
	.st2{opacity:0.8;}
	.st3{clip-path:url(#SVGID_00000008837450047592336140000008608347253731269030_);}
	.st4{clip-path:url(#SVGID_00000167385224923993832800000004248500905268185257_);fill:#C09E77;}
	.st5{display:inline;}
	.st6{clip-path:url(#SVGID_00000055668253973405008360000006039187640256998806_);}
	.st7{clip-path:url(#SVGID_00000023269959184803761290000001078283185308383105_);}
	.st8{clip-path:url(#SVGID_00000079449538592602125000000008933510959438953381_);}
	.st9{clip-path:url(#SVGID_00000154392426255535977020000014406548761202940317_);fill:#9E806A;}
	.st10{clip-path:url(#SVGID_00000154392426255535977020000014406548761202940317_);fill:#987B67;}
	.st11{clip-path:url(#SVGID_00000154392426255535977020000014406548761202940317_);fill:#CCA881;}
	.st12{fill:#FFFFFF;}
	.st13{clip-path:url(#SVGID_00000152984064172561324990000002822286575958339979_);}
	.st14{clip-path:url(#SVGID_00000029754777089580490730000008775386781446872999_);}
	.st15{clip-path:url(#SVGID_00000059296855992751707470000017609719389618406532_);}
	.st16{clip-path:url(#SVGID_00000160894649932219197360000009265087098952782734_);}
	.st17{clip-path:url(#SVGID_00000105387167060489243220000015466702530795791280_);fill:#9E806A;}
	.st18{clip-path:url(#SVGID_00000105387167060489243220000015466702530795791280_);fill:#987B67;}
	.st19{clip-path:url(#SVGID_00000105387167060489243220000015466702530795791280_);fill:#CCA881;}
	.st20{clip-path:url(#SVGID_00000045603258852288218270000005210979814714010803_);}
	.st21{display:inline;opacity:0.7;}
	.st22{clip-path:url(#SVGID_00000111885268673893314960000005486597619510254759_);}
	.st23{clip-path:url(#SVGID_00000143587510932292690840000012219961724451817649_);}
	.st24{clip-path:url(#SVGID_00000087414288914832671960000001027440009893093567_);}
	.st25{clip-path:url(#SVGID_00000057846094556722396810000014069883888951080638_);}
	.st26{display:inline;opacity:0.91;}
	.st27{clip-path:url(#SVGID_00000107560517649242841780000013685534212841289859_);}
	.st28{clip-path:url(#SVGID_00000075120527007347110420000003163984643220519602_);}
	.st29{display:inline;opacity:0.9;}
	.st30{clip-path:url(#SVGID_00000108305129193392261690000006198534994487392437_);}
	.st31{display:inline;opacity:0.2;}
	.st32{clip-path:url(#SVGID_00000064355751997248810850000008849682991947210122_);}
	.st33{display:inline;opacity:0.3;}
	.st34{clip-path:url(#SVGID_00000161627661443433558780000004882744117166962333_);}
	.st35{clip-path:url(#SVGID_00000003790257947063662560000002097141092317762737_);}
	.st36{clip-path:url(#SVGID_00000013184779178362437960000017031080894429760703_);}
	.st37{opacity:0.7;}
	.st38{clip-path:url(#SVGID_00000053520712007618860200000016280511637931951238_);}
	.st39{clip-path:url(#SVGID_00000123434015782414933490000013056014984476263040_);}
	.st40{display:inline;fill:none;stroke:#251714;stroke-width:4;stroke-miterlimit:10;}
	.st41{fill:url(#SVGID_00000139295215224309254540000005364589441490874531_);}
	.st42{fill:none;stroke:#251714;stroke-width:4;stroke-miterlimit:10;}
</style>
<g id="Layer_1" class="st0">
</g>
<g id="Layer_3" class="st0">
	<g class="st5">
		<defs>
			<rect id="SVGID_00000092426232701412692250000012383463820636721820_" x="-688.5" y="-456.7" width="568.5" height="341.9"/>
		</defs>
		<clipPath id="SVGID_00000012474802011564054310000006272132414754597303_">
			<use xlink:href="#SVGID_00000092426232701412692250000012383463820636721820_"  style="overflow:visible;"/>
		</clipPath>
		<g style="clip-path:url(#SVGID_00000012474802011564054310000006272132414754597303_);">
			<g>
				<defs>
					<path id="SVGID_00000164472741384588569310000008188972556212691339_" d="M-143.2,802.3c-174-68.8-348.1-140.4-522.1-213.2
						c0-308.5,0-617,0-925.4c174,26.8,348.1,52.4,522.1,75.1C-143.2,93.3-143.2,447.8-143.2,802.3z"/>
				</defs>
				<clipPath id="SVGID_00000178164257479146344850000011960286890626880702_">
					<use xlink:href="#SVGID_00000164472741384588569310000008188972556212691339_"  style="overflow:visible;"/>
				</clipPath>
				<g style="clip-path:url(#SVGID_00000178164257479146344850000011960286890626880702_);">
					<defs>
						<path id="SVGID_00000101088931134275685400000016094848653888385944_" d="M-401.3,803.9C-401.3,803.9-401.3,803.9-401.3,803.9
							c-77.8-34.1-148.2-102.5-199.2-181.6c-51-79.4-82.5-169.5-82.5-255.7c0-166.4,0-332.8,0-499.3c0-86.2,31.5-158.2,82.5-208.8
							c51-50.2,121.4-78.9,199.2-70.2c0,0,0,0,0,0c77.8,8.7,148.2,54.8,199.2,126c51,70.8,82.5,166.9,82.5,267.3
							c0,193.4,0,386.7,0,580.1c0,100.4-31.5,180.2-82.5,224C-253.1,829.9-323.5,838.1-401.3,803.9z"/>
					</defs>
					<clipPath id="SVGID_00000059285935551725045600000004640763151920922278_">
						<use xlink:href="#SVGID_00000101088931134275685400000016094848653888385944_"  style="overflow:visible;"/>
					</clipPath>
					<g style="clip-path:url(#SVGID_00000059285935551725045600000004640763151920922278_);">
						
							<image style="overflow:visible;" width="2101" height="1482" xlink:href="FC65CEF65E8D57D3.png"  transform="matrix(2.687 0 0 2.2883 -3849.6914 -1157.8433)">
						</image>
					</g>
				</g>
			</g>
		</g>
	</g>
	<g class="st5">
		<defs>
			<rect id="SVGID_00000135689468678785821730000013031473815557071265_" x="-1937.6" y="-338" width="325.5" height="223.3"/>
		</defs>
		<clipPath id="SVGID_00000096761076879260447680000009124893500289548181_">
			<use xlink:href="#SVGID_00000135689468678785821730000013031473815557071265_"  style="overflow:visible;"/>
		</clipPath>
		<g style="clip-path:url(#SVGID_00000096761076879260447680000009124893500289548181_);">
			<g>
				<defs>
					<path id="SVGID_00000068663561095726613770000010269953337027342268_" d="M-1705.7,878c-233.8,58.7-467.6,120.5-701.3,183.7
						c0-404.7,0-809.5,0-1214.2c233.8-45.4,467.6-89.5,701.3-130.4C-1705.7,104-1705.7,491-1705.7,878z"/>
				</defs>
				<clipPath id="SVGID_00000103972777714643705930000008894658121701847975_">
					<use xlink:href="#SVGID_00000068663561095726613770000010269953337027342268_"  style="overflow:visible;"/>
				</clipPath>
				<g style="clip-path:url(#SVGID_00000103972777714643705930000008894658121701847975_);">
					<defs>
						<path id="SVGID_00000070832151424348776610000010827029225840748474_" d="M-2052.4,1092.9
							C-2052.4,1092.9-2052.4,1092.9-2052.4,1092.9c-209,57.5-378.4-59.7-378.4-263.8c0-249.8,0-499.6,0-749.4
							c0-204,169.4-400.4,378.4-436.7c0,0,0,0,0,0c209-36.4,378.4,92.8,378.4,285.4c0,238,0,476,0,714
							C-1674,835-1843.4,1035.4-2052.4,1092.9z"/>
					</defs>
					<clipPath id="SVGID_00000003065400619076623820000018023803769250915459_">
						<use xlink:href="#SVGID_00000070832151424348776610000010827029225840748474_"  style="overflow:visible;"/>
					</clipPath>
					<g style="clip-path:url(#SVGID_00000003065400619076623820000018023803769250915459_);">
						
							<image style="overflow:visible;" width="2101" height="1184" xlink:href="FC65CEF65E8D57D1.png"  transform="matrix(3.6093 0 0 3.4501 -6684.3916 -1295.1875)">
						</image>
					</g>
				</g>
			</g>
		</g>
	</g>
</g>
<g id="Layer_6">
</g>
<g id="Layer_4">
</g>
<g id="Layer_5">
	<g>
		<g>
			<path class="st12" d="M1855.6,1033.3c0,1.3,0,2.5,0,3.8c-10.7,0-21.3,0-32,0c0-1.3,0-2.5,0-3.8
				C1834.3,1033.3,1844.9,1033.3,1855.6,1033.3z"/>
			<path class="st12" d="M1846.1,1012.1c-1.8,0-3.4,0-5,0c2.5-2.4,4.9-4.8,7.3-7.2c2.1,2.2,4.4,4.7,6.7,7.1c-1.4,0-3,0-4.8,0
				c0,5.7,0,11.3,0,17c-1.5,0-2.8,0-4.3,0C1846.1,1023.4,1846.1,1017.8,1846.1,1012.1z"/>
			<path class="st12" d="M1829,1012.1c-1.9,0-3.5,0-5.1,0c2.4-2.5,4.8-4.9,7.2-7.2c2.3,2.3,4.6,4.7,7,7.2c-1.5,0-3.1,0-5,0
				c0,5.8,0,11.3,0,17c-1.4,0-2.7,0-4.1,0C1829,1023.5,1829,1017.9,1829,1012.1z"/>
		</g>
	</g>
</g>
<g id="Layer_2" class="st0">
</g>
</svg>
