<?xml version="1.0" encoding="utf-8"?>
<!-- Generator: Adobe Illustrator 27.4.1, SVG Export Plug-In . SVG Version: 6.00 Build 0)  -->
<svg version="1.1" id="Layer_1" xmlns="http://www.w3.org/2000/svg" xmlns:xlink="http://www.w3.org/1999/xlink" x="0px" y="0px"
	 viewBox="0 0 581.3 297.5" style="enable-background:new 0 0 581.3 297.5;" xml:space="preserve">
<style type="text/css">
	.st0{fill:none;stroke:#CBC8CD;stroke-width:3;stroke-miterlimit:10;}
	.st1{fill:#CACACA;}
</style>
<g>
	<path class="st0" d="M440,235.7H141.3c-14.5,0-26.2-11.8-26.2-26.2l0,0c0-14.5,11.8-26.2,26.2-26.2H440c14.5,0,26.2,11.8,26.2,26.2
		l0,0C466.3,224,454.5,235.7,440,235.7z"/>
	<g>
		<path class="st1" d="M242.8,196.7h4.1l9.6,25.4h-4.3l-2.3-6.4h-10.1l-2.3,6.4h-4.3L242.8,196.7z M248.7,212.2l-1.5-4.2
			c-0.9-2.5-1.7-4.9-2.4-7.1l0,0c-0.7,2.2-1.4,4.5-2.4,7.2l-1.4,4.1H248.7z"/>
		<path class="st1" d="M255.9,209.3c0-7.8,4.7-13.2,12.5-13.2c7.2,0,11.4,4.7,11.7,10.3h-4.2c-0.1-3.8-3-6.8-7.5-6.8
			c-5,0-8.1,3.9-8.1,9.7c0,6.2,3.5,9.8,8.2,9.8c4.6,0,7.2-3.4,7.7-6.4h-8.2v-3.4H278c1.3,0,2,0.7,2,1.9v10.6h-3.8l0.7-5h-0.1
			c-1.6,3.5-4.7,5.6-9,5.6C260.9,222.6,255.9,217.4,255.9,209.3z"/>
		<path class="st1" d="M283.7,196.7H294c5.8,0,9.1,2.8,9.1,6.9c0,3.3-2.1,5.7-5.8,6.4v0.1c3.1,1.1,4.2,3.5,5.1,6.7l1.4,5.2h-4.2
			l-1.1-4.4c-1.1-4.6-2.5-5.8-6.5-5.8h-4V222h-4.1L283.7,196.7L283.7,196.7z M292.3,208.5c4.3,0,6.6-1.5,6.6-4.3
			c0-2.5-1.8-3.9-5.2-3.9h-5.7v8.3H292.3L292.3,208.5z"/>
		<path class="st1" d="M306.1,196.7h17.7v3.4h-13.6v7.6h12.2v3.4h-12.2v7.7h13.6v3.4h-17.7V196.7L306.1,196.7z"/>
		<path class="st1" d="M326.2,196.7h17.7v3.4h-13.6v7.6h12.2v3.4h-12.2v7.7h13.6v3.4h-17.7V196.7L326.2,196.7z"/>
	</g>
</g>
</svg>
