<?xml version="1.0" encoding="utf-8"?>
<!-- Generator: Adobe Illustrator 27.4.1, SVG Export Plug-In . SVG Version: 6.00 Build 0)  -->
<svg version="1.1" id="Layer_1" xmlns="http://www.w3.org/2000/svg" xmlns:xlink="http://www.w3.org/1999/xlink" x="0px" y="0px"
	 viewBox="0 0 613.6 478" style="enable-background:new 0 0 613.6 478;" xml:space="preserve">
<style type="text/css">
	.st0{fill:#FFFFFF;}
</style>
<g>
	<g>
		<g>
			<path class="st0" d="M189.4,62.8V13.2h10.7v49.4c0,15.4,9.4,23.4,21.1,23.4s21.1-7.9,21.1-23.4V13.2H253v49.7
				c0,21.1-13.8,32.7-31.8,32.7S189.4,83.9,189.4,62.8z"/>
			<path class="st0" d="M263.7,13.2h34.4c16.1,0,27.8,9.1,27.8,24.4s-11.6,24-27.8,24h-23.7v32.3h-10.7V13.2z M296.9,52
				c11.1,0,17.9-5.4,17.9-14.4s-6.8-14.9-17.9-14.9h-22.5V52H296.9z"/>
			<path class="st0" d="M378,84.3v9.6h-47.6V13.2h10.7v71.1H378z"/>
			<path class="st0" d="M373.8,53.5c0-27,18.3-42.1,39.4-42.1c21.1,0,39.4,15.1,39.4,42.1c0,27-18.3,42.1-39.4,42.1
				C392.1,95.5,373.8,80.5,373.8,53.5z M413.2,86c15.6,0,28.2-10.8,28.2-32.5c0-21.7-12.7-32.5-28.2-32.5
				c-15.6,0-28.2,10.8-28.2,32.5C384.9,75.2,397.6,86,413.2,86z"/>
			<path class="st0" d="M478.2,13.2h10.9l30.3,80.6h-11.3l-7.6-21.5h-33.8l-7.6,21.5h-11.3L478.2,13.2z M497.1,62.8l-5.5-15.7
				c-2.7-7.4-5.2-14.7-7.8-22.1h-0.1c-2.6,7.4-5.2,14.7-7.8,22.1l-5.5,15.7H497.1z"/>
			<path class="st0" d="M522.6,13.2h29.7c22.6,0,39.4,14.5,39.4,40.3s-16.8,40.3-39.4,40.3h-29.7V13.2z M552.3,84.3
				c15.9,0,28.2-10.5,28.2-30.8c0-20.5-12.3-30.8-28.2-30.8h-19v61.5H552.3z"/>
		</g>
		<g>
			<path class="st0" d="M333.5,165.9l-27.8-48.6h12.1l21,39.1h0.2l21-39.1h12.1l-27.9,48.6v32h-10.7V165.9z"/>
			<path class="st0" d="M365.2,157.6c0-27,18.3-42.1,39.4-42.1s39.4,15.1,39.4,42.1c0,27-18.3,42.1-39.4,42.1
				S365.2,184.6,365.2,157.6z M404.6,190.1c15.6,0,28.2-10.8,28.2-32.5c0-21.7-12.7-32.5-28.2-32.5s-28.2,10.8-28.2,32.5
				C376.4,179.3,389,190.1,404.6,190.1z"/>
			<path class="st0" d="M450.3,166.9v-49.7H461v49.4c0,15.4,9.4,23.4,21.1,23.4c11.6,0,21.1-7.9,21.1-23.4v-49.4h10.7v49.7
				c0,21.1-13.8,32.7-31.8,32.7C464.1,199.7,450.3,188,450.3,166.9z"/>
			<path class="st0" d="M524.7,117.3h31c18.4,0,28.9,9,28.9,22.1c0,10.4-6.6,18-18.2,20.3v0.2c9.7,3.8,13.2,11.2,16,21.3l4.6,16.7
				h-11.1l-3.8-14.1c-4.1-15.4-8.4-19.2-22.4-19.2h-14.4v33.3h-10.7V117.3z M550.4,155.2c15,0,23-5.2,23-14.9
				c0-8.5-6.3-13.5-17.9-13.5h-20.2v28.3H550.4z"/>
		</g>
		<g>
			<g>
				<g>
					<path class="st0" d="M156.8,27.5c-1.3,0.2-2.5,0.6-3.6,1.3c-1.1,0.7-1.9,1.5-2.5,2.6c-0.6,1-0.9,2.2-0.9,3.3h-2.3
						c0-1.2,0.2-2.3,0.7-3.3c0.4-1,1.1-1.8,2.1-2.6c0.9-0.7,2.1-1.3,3.5-1.7l0.2,0.5l-16.4,0.1v-2.5l16.4,0.1l-0.2,0.5
						c-1.4-0.4-2.6-1-3.5-1.7c-0.9-0.7-1.6-1.6-2.1-2.6c-0.4-1-0.7-2.1-0.7-3.3h2.3c0,1.2,0.3,2.3,0.9,3.3c0.6,1,1.4,1.9,2.5,2.6
						c1.1,0.7,2.3,1.1,3.6,1.3V27.5z"/>
				</g>
				<g>
					<path class="st0" d="M135.3,37.4c-0.9-1-1.7-2-2.4-3.1c-0.7-1.1-1.1-2.3-1.5-3.6c-0.3-1.2-0.5-2.5-0.5-3.9
						c0-1.3,0.2-2.6,0.5-3.8c0.3-1.2,0.8-2.4,1.4-3.5c0.6-1.1,1.4-2.1,2.3-3.1c0,0,0.1-0.1,0.1-0.1c0,0,0.1-0.1,0.1-0.1h2.1
						c-0.1,0.1-0.2,0.2-0.3,0.4c-0.1,0.1-0.2,0.3-0.3,0.4c-0.8,0.9-1.4,1.9-2,3c-0.5,1-0.9,2.1-1.2,3.3c-0.3,1.1-0.4,2.3-0.4,3.6
						c0,1.4,0.2,2.7,0.5,4c0.3,1.3,0.8,2.4,1.4,3.5c0.6,1.1,1.4,2.1,2.3,3H135.3z"/>
				</g>
				<g>
					<path class="st0" d="M157.2,37.4c0.9-0.9,1.6-2,2.3-3c0.6-1.1,1.1-2.3,1.4-3.5c0.3-1.3,0.5-2.6,0.5-4c0-1.2-0.1-2.4-0.4-3.6
						c-0.3-1.1-0.7-2.2-1.2-3.3c-0.5-1-1.2-2-2-3c-0.1-0.1-0.2-0.3-0.3-0.4c-0.1-0.1-0.2-0.2-0.3-0.4h2.1c0,0,0.1,0.1,0.1,0.1
						c0,0,0.1,0.1,0.1,0.1c0.9,1,1.7,2,2.3,3.1c0.6,1.1,1.1,2.3,1.4,3.5c0.3,1.2,0.5,2.5,0.5,3.8c0,1.3-0.2,2.6-0.5,3.9
						c-0.3,1.2-0.8,2.4-1.5,3.6c-0.7,1.1-1.5,2.2-2.4,3.1H157.2z"/>
				</g>
			</g>
		</g>
	</g>
	<g>
		<g>
			<path class="st0" d="M31.1,283.4h55.4v9.6H41.9v25.9H82v9.6H41.9V364H31.1V283.4z"/>
			<path class="st0" d="M89.6,333v-49.7h10.7v49.4c0,15.4,9.4,23.4,21.1,23.4c11.6,0,21.1-7.9,21.1-23.4v-49.4h10.7V333
				c0,21.1-13.8,32.7-31.8,32.7C103.4,365.7,89.6,354.1,89.6,333z"/>
			<path class="st0" d="M184,292.7h-27.7v-9.3h66v9.3h-27.7V364H184V292.7z"/>
			<path class="st0" d="M225.5,333v-49.7h10.7v49.4c0,15.4,9.4,23.4,21.1,23.4c11.6,0,21.1-7.9,21.1-23.4v-49.4h10.7V333
				c0,21.1-13.8,32.7-31.8,32.7C239.3,365.7,225.5,354.1,225.5,333z"/>
			<path class="st0" d="M299.9,283.4h31c18.4,0,28.9,9,28.9,22.1c0,10.4-6.6,18-18.2,20.3v0.2c9.7,3.8,13.2,11.2,16,21.3l4.6,16.7
				h-11.1l-3.8-14.1c-4.1-15.4-8.4-19.2-22.4-19.2h-14.4V364h-10.7V283.4z M325.6,321.3c15,0,23-5.2,23-14.9
				c0-8.5-6.3-13.5-17.9-13.5h-20.2v28.3H325.6z"/>
			<path class="st0" d="M367.2,283.4h55.4v9.6H378v25.9h40.1v9.6H378v26h44.7v9.6h-55.5V283.4z"/>
			<path class="st0" d="M78.7,455.8v9.6H31.1v-80.6h10.7v71.1H78.7z"/>
			<path class="st0" d="M81.8,384.7h10.7v80.6H81.8V384.7z"/>
			<path class="st0" d="M103.2,384.7h55.4v9.6h-44.6v25.9h40.1v9.6h-40.1v35.6h-10.8V384.7z"/>
			<path class="st0" d="M161.7,384.7h55.4v9.6h-44.6v25.9h40.1v9.6h-40.1v26h44.7v9.6h-55.5V384.7z"/>
		</g>
		<g>
			<g>
				<path class="st0" d="M265.1,396.6c-1.3,0.2-2.5,0.6-3.6,1.3c-1.1,0.7-1.9,1.6-2.5,2.6c-0.6,1.1-0.9,2.2-0.9,3.3h-2.3
					c0-1.2,0.2-2.3,0.7-3.3c0.5-1,1.2-1.9,2.1-2.6c0.9-0.7,2.1-1.3,3.6-1.8l0.2,0.5l-16.6,0.1v-2.5l16.6,0.1l-0.2,0.5
					c-1.4-0.4-2.6-1-3.6-1.8c-0.9-0.7-1.6-1.6-2.1-2.6c-0.5-1-0.7-2.1-0.7-3.3h2.3c0,1.2,0.3,2.3,0.9,3.3c0.6,1.1,1.5,1.9,2.5,2.6
					c1.1,0.7,2.3,1.1,3.6,1.3V396.6z"/>
			</g>
			<g>
				<path class="st0" d="M243.4,406.6c-1-1-1.8-2-2.4-3.2c-0.7-1.1-1.2-2.3-1.5-3.6c-0.3-1.3-0.5-2.6-0.5-3.9c0-1.3,0.2-2.6,0.5-3.9
					c0.3-1.2,0.8-2.4,1.4-3.5c0.6-1.1,1.4-2.2,2.3-3.1c0,0,0.1-0.1,0.1-0.1c0,0,0.1-0.1,0.1-0.1h2.1c-0.1,0.1-0.2,0.2-0.3,0.4
					c-0.1,0.1-0.2,0.3-0.3,0.4c-0.8,0.9-1.5,1.9-2,3c-0.5,1.1-0.9,2.2-1.2,3.3c-0.3,1.2-0.4,2.4-0.4,3.6c0,1.4,0.2,2.8,0.5,4
					c0.3,1.3,0.8,2.4,1.5,3.5c0.6,1.1,1.4,2.1,2.3,3.1H243.4z"/>
			</g>
			<g>
				<path class="st0" d="M265.5,406.6c0.9-1,1.6-2,2.3-3.1c0.6-1.1,1.1-2.3,1.5-3.5c0.3-1.3,0.5-2.6,0.5-4c0-1.3-0.1-2.5-0.4-3.6
					c-0.3-1.2-0.7-2.3-1.2-3.3c-0.5-1.1-1.2-2.1-2-3c-0.1-0.1-0.2-0.3-0.3-0.4c-0.1-0.1-0.2-0.2-0.3-0.4h2.1c0,0,0.1,0.1,0.1,0.1
					c0,0,0.1,0.1,0.1,0.1c0.9,1,1.7,2,2.3,3.1c0.6,1.1,1.1,2.3,1.4,3.5c0.3,1.2,0.5,2.5,0.5,3.9c0,1.3-0.2,2.7-0.5,3.9
					c-0.3,1.3-0.8,2.4-1.5,3.6c-0.7,1.1-1.5,2.2-2.4,3.2H265.5z"/>
			</g>
		</g>
	</g>
</g>
</svg>
