<?xml version="1.0" encoding="utf-8"?>
<!-- Generator: Adobe Illustrator 27.4.1, SVG Export Plug-In . SVG Version: 6.00 Build 0)  -->
<svg version="1.1" xmlns="http://www.w3.org/2000/svg" xmlns:xlink="http://www.w3.org/1999/xlink" x="0px" y="0px"
	 viewBox="0 0 613.6 441" style="enable-background:new 0 0 613.6 441;" xml:space="preserve">
<style type="text/css">
	.st0{display:none;}
	.st1{display:inline;}
	.st2{fill:#CBC8CD;}
</style>
<g id="Layer_1">
	<g id="Layer_1_00000017495971602234569490000009283271657022685375_" class="st0">
		<g class="st1">
			<g>
				<path class="st2" d="M180.2,62.6V11.1h11.1v51.2c0,16,9.8,24.2,21.9,24.2c12.1,0,21.9-8.2,21.9-24.2V11.1h11.1v51.5
					c0,21.9-14.3,33.9-33,33.9S180.2,84.4,180.2,62.6z"/>
				<path class="st2" d="M257.3,11.1H293c16.7,0,28.8,9.4,28.8,25.3s-12,24.9-28.7,24.9h-24.6v33.4h-11.1L257.3,11.1L257.3,11.1z
					 M291.7,51.3c11.5,0,18.5-5.6,18.5-14.9s-7-15.4-18.5-15.4h-23.3v30.3C268.4,51.3,291.7,51.3,291.7,51.3z"/>
				<path class="st2" d="M375.8,84.8v9.9h-49.3V11.1h11.1v73.7C337.6,84.8,375.8,84.8,375.8,84.8z"/>
				<path class="st2" d="M371.4,52.9c0-28,19-43.6,40.9-43.6s40.9,15.6,40.9,43.6s-19,43.6-40.9,43.6S371.4,80.9,371.4,52.9z
					 M412.3,86.6c16.1,0,29.3-11.2,29.3-33.7s-13.2-33.7-29.3-33.7S383,30.4,383,52.9S396.2,86.6,412.3,86.6z"/>
				<path class="st2" d="M479.7,11.1H491l31.4,83.6h-11.7l-7.9-22.3h-35l-7.9,22.3h-11.7L479.7,11.1z M499.3,62.6l-5.7-16.3
					c-2.7-7.6-5.4-15.3-8.1-22.9h-0.1c-2.7,7.6-5.4,15.3-8.1,22.9l-5.7,16.2L499.3,62.6L499.3,62.6z"/>
				<path class="st2" d="M525.8,11.1h30.8c23.4,0,40.9,15.1,40.9,41.8S580,94.7,556.6,94.7h-30.8V11.1z M556.6,84.8
					c16.5,0,29.3-10.9,29.3-31.9c0-21.3-12.8-31.9-29.3-31.9h-19.7v63.8H556.6z"/>
			</g>
			<g>
				<path class="st2" d="M329.6,169.5l-28.8-50.4h12.5l21.7,40.5h0.2l21.7-40.5h12.5l-28.9,50.4v33.2h-10.9L329.6,169.5L329.6,169.5
					z"/>
				<path class="st2" d="M362.5,160.9c0-28,19-43.6,40.9-43.6s40.9,15.6,40.9,43.6s-19,43.6-40.9,43.6S362.5,188.8,362.5,160.9z
					 M403.4,194.5c16.1,0,29.3-11.2,29.3-33.7s-13.1-33.7-29.3-33.7s-29.3,11.2-29.3,33.7S387.3,194.5,403.4,194.5z"/>
				<path class="st2" d="M450.8,170.5V119h11.1v51.3c0,16,9.8,24.2,21.9,24.2s21.8-8.2,21.8-24.2v-51.2h11.1v51.5
					c0,21.9-14.3,33.9-33,33.9S450.8,192.4,450.8,170.5z"/>
				<path class="st2" d="M527.9,119H560c19.1,0,30,9.3,30,22.9c0,10.8-6.8,18.6-18.9,21v0.2c10,3.9,13.7,11.6,16.6,22.1l4.8,17.3
					H581l-3.9-14.6c-4.3-16-8.7-19.9-23.2-19.9H539v34.5h-11.1V119L527.9,119z M554.5,158.4c15.5,0,23.9-5.4,23.9-15.4
					c0-8.8-6.6-14-18.5-14H539v29.4H554.5z"/>
			</g>
			<g>
				<g>
					<g>
						<path class="st2" d="M146.4,26c-1.4,0.2-2.6,0.6-3.7,1.3c-1.1,0.7-2,1.6-2.6,2.7s-0.9,2.2-0.9,3.4h-2.4c0-1.2,0.2-2.4,0.7-3.4
							s1.2-1.9,2.2-2.7c1-0.8,2.2-1.4,3.7-1.8l0.2,0.5l-17,0.1v-2.6l17,0.1l-0.2,0.5c-1.5-0.4-2.7-1-3.7-1.8s-1.7-1.7-2.2-2.7
							s-0.7-2.2-0.7-3.4h2.4c0,1.2,0.3,2.3,0.9,3.4c0.6,1.1,1.5,2,2.6,2.7s2.3,1.1,3.7,1.3V26z"/>
					</g>
					<g>
						<path class="st2" d="M124.2,36.2c-1-1-1.8-2.1-2.5-3.2c-0.7-1.2-1.2-2.4-1.5-3.7c-0.3-1.3-0.5-2.6-0.5-4s0.2-2.7,0.5-4
							s0.8-2.5,1.5-3.6c0.6-1.1,1.4-2.2,2.4-3.2l0.1-0.1c0,0,0.1,0,0.1-0.1h2.2c-0.1,0.1-0.2,0.2-0.3,0.4s-0.2,0.3-0.3,0.4
							c-0.8,1-1.5,2-2,3.1c-0.5,1.1-0.9,2.2-1.2,3.4s-0.4,2.4-0.4,3.7c0,1.5,0.2,2.8,0.5,4.1s0.8,2.5,1.5,3.6
							c0.6,1.1,1.4,2.2,2.3,3.2L124.2,36.2L124.2,36.2z"/>
					</g>
					<g>
						<path class="st2" d="M146.9,36.2c0.9-1,1.7-2,2.3-3.2c0.6-1.1,1.1-2.3,1.5-3.6s0.5-2.7,0.5-4.1c0-1.3-0.1-2.5-0.4-3.7
							c-0.3-1.2-0.7-2.3-1.2-3.4s-1.2-2.1-2-3.1c-0.1-0.1-0.2-0.3-0.3-0.4s-0.2-0.2-0.3-0.4h2.2l0.1,0.1c0,0,0.1,0,0.1,0.1
							c0.9,1,1.7,2.1,2.4,3.2s1.1,2.3,1.5,3.6c0.3,1.3,0.5,2.6,0.5,4s-0.2,2.7-0.5,4s-0.9,2.5-1.5,3.7c-0.7,1.2-1.5,2.2-2.5,3.2
							H146.9L146.9,36.2z"/>
					</g>
				</g>
			</g>
			<g>
				<path class="st2" d="M16.1,233h57.5v9.9H27.4v26.9H69v9.9H27.4v36.9H16.1V233z"/>
				<path class="st2" d="M76.8,284.5V233h11.1v51.2c0,16,9.8,24.2,21.9,24.2s21.9-8.2,21.9-24.2V233h11.1v51.5
					c0,21.9-14.3,33.9-33,33.9S76.8,306.3,76.8,284.5z"/>
				<path class="st2" d="M174.7,242.7H146V233h68.4v9.7h-28.7v73.9h-11.1L174.7,242.7L174.7,242.7z"/>
				<path class="st2" d="M217.7,284.5V233h11.1v51.2c0,16,9.8,24.2,21.9,24.2s21.9-8.2,21.9-24.2V233h11.1v51.5
					c0,21.9-14.3,33.9-33,33.9C232.1,318.4,217.7,306.3,217.7,284.5z"/>
				<path class="st2" d="M294.8,233h32.1c19.1,0,30,9.3,30,22.9c0,10.8-6.8,18.6-18.9,21v0.2c10,3.9,13.7,11.6,16.6,22.1l4.8,17.3
					h-11.5l-3.9-14.6c-4.3-16-8.7-19.9-23.2-19.9h-14.9v34.5h-11.1V233z M321.5,272.3c15.5,0,23.9-5.4,23.9-15.4
					c0-8.8-6.6-14-18.5-14H306v29.4H321.5z"/>
				<path class="st2" d="M364.6,233h57.5v9.9h-46.2v26.9h41.6v9.9h-41.6v27h46.3v9.9h-57.6L364.6,233L364.6,233z"/>
				<path class="st2" d="M65.5,411.8v9.9H16.1v-83.6h11.1v73.7H65.5z"/>
				<path class="st2" d="M68.7,338.1h11.1v83.6H68.7V338.1z"/>
				<path class="st2" d="M90.9,338.1h57.5v9.9h-46.2v26.9h41.6v9.9h-41.6v36.9H91L90.9,338.1L90.9,338.1z"/>
				<path class="st2" d="M151.6,338.1h57.5v9.9h-46.2v26.9h41.6v9.9h-41.6v27h46.3v9.9h-57.6V338.1z"/>
			</g>
			<g>
				<g>
					<path class="st2" d="M258.8,350.4c-1.4,0.2-2.6,0.6-3.7,1.3c-1.1,0.7-2,1.6-2.6,2.7s-0.9,2.2-0.9,3.5h-2.4
						c0-1.3,0.2-2.4,0.7-3.4s1.2-1.9,2.2-2.7s2.2-1.4,3.7-1.8l0.2,0.5l-17.2,0.1V348l17.2,0.1l-0.2,0.5c-1.5-0.4-2.7-1.1-3.7-1.8
						c-1-0.8-1.7-1.7-2.2-2.7s-0.7-2.2-0.7-3.4h2.4c0,1.2,0.3,2.4,0.9,3.5s1.5,2,2.6,2.7c1.1,0.7,2.4,1.2,3.7,1.3V350.4z"/>
				</g>
				<g>
					<path class="st2" d="M236.3,360.7c-1-1-1.8-2.1-2.5-3.3c-0.7-1.2-1.2-2.4-1.6-3.7c-0.4-1.3-0.5-2.6-0.5-4.1
						c0-1.4,0.2-2.7,0.5-4s0.8-2.5,1.5-3.6c0.6-1.2,1.5-2.2,2.4-3.2l0.1-0.1c0,0,0.1,0,0.1-0.1h2.2c-0.1,0.1-0.2,0.2-0.3,0.4
						c-0.1,0.1-0.2,0.3-0.3,0.4c-0.8,1-1.5,2-2.1,3.1s-1,2.2-1.2,3.4c-0.3,1.2-0.4,2.4-0.4,3.7c0,1.5,0.2,2.9,0.5,4.2
						c0.4,1.3,0.9,2.5,1.5,3.7c0.6,1.1,1.4,2.2,2.4,3.2H236.3L236.3,360.7z"/>
				</g>
				<g>
					<path class="st2" d="M259.2,360.7c0.9-1,1.7-2.1,2.4-3.2c0.6-1.1,1.2-2.4,1.5-3.7c0.4-1.3,0.5-2.7,0.5-4.2
						c0-1.3-0.1-2.5-0.4-3.7s-0.7-2.3-1.2-3.4s-1.2-2.1-2.1-3.1c-0.1-0.1-0.2-0.3-0.3-0.4c-0.1-0.1-0.2-0.3-0.3-0.4h2.2l0.1,0.1
						c0,0,0.1,0,0.1,0.1c1,1,1.8,2.1,2.4,3.2c0.6,1.2,1.1,2.4,1.5,3.6c0.3,1.3,0.5,2.6,0.5,4s-0.2,2.7-0.5,4.1
						c-0.4,1.3-0.9,2.5-1.6,3.7s-1.5,2.3-2.5,3.3H259.2L259.2,360.7z"/>
				</g>
			</g>
		</g>
	</g>
	<g>
		<g>
			<path class="st2" d="M38.2,3.4h52.8v9.2H48.6v24.7h38.3v9.2H48.6v34H38.2V3.4z"/>
			<path class="st2" d="M89.9,41.9c0-25.7,17.5-40.1,37.6-40.1c20.2,0,37.6,14.4,37.6,40.1S147.5,82,127.5,82
				C107.3,82,89.9,67.7,89.9,41.9z M127.5,72.9c14.8,0,26.9-10.3,26.9-31c0-20.7-12.1-31-26.9-31s-26.9,10.3-26.9,31
				C100.5,62.6,112.6,72.9,127.5,72.9z"/>
			<path class="st2" d="M171.1,50.8V3.4h10.3v47.2c0,14.7,9,22.3,20.2,22.3s20.2-7.6,20.2-22.3V3.4h10.3v47.4
				c0,20.2-13.2,31.2-30.3,31.2S171.1,71,171.1,50.8z"/>
			<path class="st2" d="M252.4,17.2h-0.2l0.1,13.2v50H242V3.4h13.7l40.9,63.1h0.2l-0.1-13.2V3.4h10.1v76.9h-13.6L252.4,17.2z"/>
			<path class="st2" d="M317.3,3.4h28.4c21.5,0,37.6,13.8,37.6,38.5s-16,38.5-37.6,38.5h-28.4V3.4z M345.7,71.2
				c15.2,0,26.9-10,26.9-29.3c0-19.6-11.7-29.3-26.9-29.3h-18.1v58.7L345.7,71.2L345.7,71.2z"/>
		</g>
		<g>
			<path class="st2" d="M57.4,149.2l-26.6-46.4h11.5l20,37.3h0.2l20.2-37.3h11.5l-26.6,46.3v30.6H57.4V149.2z"/>
			<path class="st2" d="M87.6,141.2c0-25.7,17.5-40.1,37.6-40.1c20.2,0,37.6,14.4,37.6,40.1s-17.5,40.1-37.6,40.1
				S87.6,166.9,87.6,141.2z M125.2,172.3c14.8,0,26.9-10.3,26.9-31c0-20.7-12.1-31-26.9-31s-26.9,10.3-26.9,31
				C98.2,161.9,110.3,172.3,125.2,172.3z"/>
			<path class="st2" d="M168.9,150.2v-47.4h10.3v47.2c0,14.7,9,22.3,20.2,22.3c11.2,0,20.2-7.6,20.2-22.3v-47.2h10.1v47.4
				c0,20.2-13.2,31.2-30.3,31.2S168.9,170.2,168.9,150.2z"/>
			<path class="st2" d="M239.8,102.7h29.6c17.6,0,27.6,8.6,27.6,21.1c0,9.9-6.2,17.1-17.4,19.3v0.2c9.3,3.7,12.6,10.6,15.3,20.3
				l4.4,15.9h-10.5l-3.7-13.4c-3.9-14.7-8.1-18.3-21.3-18.3h-13.7v31.8h-10.3L239.8,102.7L239.8,102.7z M264.3,138.9
				c14.3,0,22-4.9,22-14.2c0-8.2-6-12.8-17-12.8H250v27H264.3z"/>
		</g>
		<g>
			<g>
				<g>
					<path class="st2" d="M434.8,17.1c-1.3,0.2-2.4,0.5-3.4,1.2c-1,0.6-1.8,1.5-2.4,2.5s-0.8,2-0.8,3.2H426c0-1.1,0.2-2.2,0.6-3.1
						c0.5-0.9,1.1-1.7,2-2.5c0.9-0.7,2-1.3,3.4-1.6l0.2,0.5l-15.7,0.1v-2.4l15.7,0.1l-0.2,0.5c-1.4-0.4-2.5-0.9-3.4-1.6
						s-1.6-1.6-2-2.5c-0.5-0.9-0.6-2-0.6-3.1h2.2c0,1.1,0.3,2.2,0.8,3.2s1.4,1.8,2.4,2.5c1,0.6,2.1,1.1,3.4,1.2V17.1z"/>
				</g>
				<g>
					<path class="st2" d="M414.3,26.5c-0.9-0.9-1.6-1.9-2.3-3c-0.6-1.1-1.1-2.2-1.4-3.4c-0.4-1.2-0.5-2.4-0.5-3.7
						c0-1.3,0.2-2.5,0.5-3.7c0.3-1.2,0.7-2.3,1.4-3.3c0.5-1,1.3-2,2.2-2.9l0.1-0.1l0.1-0.1h2c-0.1,0.1-0.2,0.2-0.3,0.4
						c-0.1,0.1-0.2,0.3-0.3,0.4c-0.7,0.9-1.4,1.8-1.8,2.8c-0.5,1-0.9,2-1.1,3.1c-0.3,1.1-0.4,2.2-0.4,3.4c0,1.4,0.2,2.7,0.5,3.8
						c0.4,1.2,0.8,2.3,1.4,3.3c0.5,1,1.3,2,2.1,2.9C416.5,26.5,414.3,26.5,414.3,26.5z"/>
				</g>
				<g>
					<path class="st2" d="M435.2,26.5c0.8-0.9,1.6-1.8,2.1-2.9c0.5-1,1-2.1,1.4-3.3c0.4-1.2,0.5-2.5,0.5-3.8c0-1.2-0.1-2.3-0.4-3.4
						c-0.3-1.1-0.6-2.1-1.1-3.1c-0.5-1-1.1-1.9-1.8-2.8c-0.1-0.1-0.2-0.3-0.3-0.4c-0.1-0.1-0.2-0.3-0.3-0.4h2l0.1,0.1l0.1,0.1
						c0.8,0.9,1.6,1.9,2.2,2.9c0.5,1,1,2.2,1.4,3.3c0.3,1.2,0.5,2.4,0.5,3.7c0,1.3-0.2,2.5-0.5,3.7c-0.4,1.2-0.8,2.3-1.4,3.4
						c-0.6,1.1-1.4,2.1-2.3,3H435.2z"/>
				</g>
			</g>
		</g>
	</g>
	<g>
		<path class="st2" d="M206.6,252.8h53.2v9.2h-42.8v24.9h38.6v9.2h-38.6v34.2h-10.4V252.8z"/>
		<path class="st2" d="M262.8,300.5v-47.7h10.3v47.5c0,14.9,9,22.5,20.3,22.5c11.3,0,20.3-7.7,20.3-22.5v-47.5h10.3v47.7
			c0,20.3-13.3,31.5-30.5,31.5C276.3,332,262.8,320.8,262.8,300.5z"/>
		<path class="st2" d="M353.6,261.7H327v-9h63.5v9h-26.6v68.6h-10.3V261.7L353.6,261.7z"/>
		<path class="st2" d="M393.5,300.5v-47.7h10.3v47.5c0,14.9,9,22.5,20.3,22.5c11.2,0,20.3-7.7,20.3-22.5v-47.5h10.3v47.7
			c0,20.3-13.3,31.5-30.5,31.5C406.8,332,393.5,320.8,393.5,300.5z"/>
		<path class="st2" d="M464.9,252.8h29.8c17.7,0,27.8,8.7,27.8,21.2c0,10-6.3,17.3-17.5,19.5v0.2c9.3,3.7,12.7,10.7,15.4,20.5
			l4.4,16.1h-10.6l-3.7-13.5c-4-14.9-8.1-18.5-21.5-18.5h-13.8v32h-10.3L464.9,252.8L464.9,252.8L464.9,252.8z M489.7,289.2
			c14.4,0,22.1-5,22.1-14.3c0-8.2-6.1-12.9-17.2-12.9h-19.4v27.2H489.7z"/>
		<path class="st2" d="M529.6,252.8h53.2v9.2h-42.8v24.9h38.6v9.2h-38.6v25h43v9.2h-53.3L529.6,252.8L529.6,252.8z"/>
		<path class="st2" d="M449.8,418.5v9.2H404v-77.5h10.3v68.3H449.8z"/>
		<path class="st2" d="M452.8,350.2h10.3v77.5h-10.3V350.2z"/>
		<path class="st2" d="M473.4,350.2h53.2v9.2h-42.8v24.9h38.6v9.2h-38.6v34.2h-10.4L473.4,350.2L473.4,350.2z"/>
		<path class="st2" d="M529.6,350.2h53.2v9.2h-42.8v24.9h38.6v9.2h-38.6v25h43v9.2h-53.3L529.6,350.2L529.6,350.2z"/>
	</g>
	<g>
		<g>
			<path class="st2" d="M173.3,263.7c-1.3,0.2-2.4,0.6-3.5,1.2c-1,0.6-1.8,1.5-2.4,2.5c-0.6,1-0.9,2.1-0.9,3.2h-2.2
				c0-1.2,0.2-2.2,0.6-3.1c0.5-0.9,1.1-1.8,2-2.5c0.9-0.7,2-1.3,3.4-1.7l0.2,0.5l-16,0.1v-2.4l16,0.1l-0.2,0.5
				c-1.4-0.4-2.5-1-3.4-1.7c-0.9-0.7-1.6-1.6-2-2.5c-0.5-0.9-0.6-2-0.6-3.1h2.2c0,1.1,0.3,2.2,0.9,3.2c0.6,1,1.4,1.8,2.4,2.5
				c1,0.6,2.2,1.1,3.5,1.2V263.7z"/>
		</g>
		<g>
			<path class="st2" d="M152.5,273.3c-0.9-0.9-1.7-1.9-2.3-3c-0.6-1.1-1.1-2.2-1.5-3.4c-0.4-1.2-0.5-2.5-0.5-3.8
				c0-1.3,0.2-2.5,0.5-3.7c0.3-1.2,0.7-2.3,1.4-3.4c0.6-1.1,1.4-2,2.2-3l0.1-0.1l0.1-0.1h2c-0.1,0.1-0.2,0.2-0.3,0.4
				c-0.1,0.1-0.2,0.3-0.3,0.4c-0.7,0.9-1.4,1.8-1.9,2.9c-0.5,1-0.9,2-1.1,3.1c-0.3,1.1-0.4,2.3-0.4,3.5c0,1.4,0.2,2.7,0.5,3.9
				c0.4,1.2,0.8,2.3,1.4,3.4c0.6,1,1.3,2,2.2,3L152.5,273.3L152.5,273.3z"/>
		</g>
		<g>
			<path class="st2" d="M173.7,273.3c0.8-0.9,1.6-1.9,2.2-3s1.1-2.2,1.4-3.4c0.4-1.2,0.5-2.5,0.5-3.9c0-1.2-0.1-2.4-0.4-3.5
				c-0.3-1.1-0.6-2.1-1.1-3.1c-0.5-1-1.1-1.9-1.9-2.9c-0.1-0.1-0.2-0.3-0.3-0.4c-0.1-0.1-0.2-0.3-0.3-0.4h2l0.1,0.1l0.1,0.1
				c0.9,0.9,1.7,1.9,2.2,3c0.6,1.1,1,2.2,1.4,3.4c0.3,1.2,0.5,2.4,0.5,3.7s-0.2,2.6-0.5,3.8c-0.4,1.2-0.8,2.4-1.5,3.4
				c-0.6,1.1-1.4,2.1-2.3,3L173.7,273.3L173.7,273.3z"/>
		</g>
	</g>
</g>
<g id="Layer_2" class="st0">
	<g class="st1">
		<path class="st2" d="M189.6,49.9V2.2h10.3v47.4c0,14.8,9.1,22.4,20.3,22.4s20.3-7.6,20.3-22.4V2.2h10.3v47.7
			c0,20.3-13.2,31.4-30.6,31.4S189.6,70.1,189.6,49.9z"/>
		<path class="st2" d="M261,2.2H294c15.5,0,26.7,8.7,26.7,23.4s-11.1,23.1-26.6,23.1h-22.8v30.9h-10.3L261,2.2L261,2.2z M292.8,39.5
			c10.6,0,17.1-5.2,17.1-13.8s-6.5-14.3-17.1-14.3h-21.6v28.1H292.8z"/>
		<path class="st2" d="M370.7,70.5v9.2H325V2.2h10.3v68.2H370.7z"/>
		<path class="st2" d="M366.6,40.9c0-25.9,17.6-40.4,37.9-40.4c20.3,0,37.9,14.4,37.9,40.4s-17.6,40.4-37.9,40.4
			C384.2,81.3,366.6,66.9,366.6,40.9z M404.5,72.1c14.9,0,27.1-10.4,27.1-31.2S419.4,9.7,404.5,9.7c-14.9,0-27.1,10.4-27.1,31.2
			S389.6,72.1,404.5,72.1z"/>
		<path class="st2" d="M466.9,2.2h10.5l29.1,77.4h-10.8L488.3,59h-32.4l-7.3,20.7h-10.8L466.9,2.2z M485.1,49.9l-5.3-15.1
			c-2.5-7-5-14.2-7.5-21.2h-0.1c-2.5,7-5,14.2-7.5,21.2l-5.3,15L485.1,49.9L485.1,49.9z"/>
		<path class="st2" d="M509.6,2.2h28.5c21.7,0,37.9,14,37.9,38.7s-16.2,38.7-37.9,38.7h-28.5V2.2z M538.1,70.5
			c15.3,0,27.1-10.1,27.1-29.5c0-19.7-11.9-29.5-27.1-29.5h-18.2v59.1H538.1z"/>
	</g>
	<g class="st1">
		<path class="st2" d="M327.9,148.9l-26.7-46.7h11.6l20.1,37.5h0.2l20.1-37.5h11.6L338,148.9v30.7h-10.1L327.9,148.9L327.9,148.9z"
			/>
		<path class="st2" d="M358.4,140.9c0-25.9,17.6-40.4,37.9-40.4c20.3,0,37.9,14.4,37.9,40.4s-17.6,40.4-37.9,40.4
			C376,181.3,358.4,166.8,358.4,140.9z M396.3,172.1c14.9,0,27.1-10.4,27.1-31.2s-12.1-31.2-27.1-31.2c-15,0-27.1,10.4-27.1,31.2
			S381.3,172.1,396.3,172.1z"/>
		<path class="st2" d="M440.1,149.8v-47.7h10.3v47.5c0,14.8,9.1,22.4,20.3,22.4c11.2,0,20.2-7.6,20.2-22.4v-47.4h10.3v47.7
			c0,20.3-13.2,31.4-30.6,31.4C453.3,181.3,440.1,170.1,440.1,149.8z"/>
		<path class="st2" d="M511.5,102.1h29.7c17.7,0,27.8,8.6,27.8,21.2c0,10-6.3,17.2-17.5,19.4v0.2c9.3,3.6,12.7,10.7,15.4,20.5
			l4.4,16h-10.6l-3.6-13.5c-4-14.8-8.1-18.4-21.5-18.4h-13.8v31.9h-10.3V102.1L511.5,102.1z M536.2,138.6c14.4,0,22.1-5,22.1-14.3
			c0-8.1-6.1-13-17.1-13h-19.4v27.2H536.2z"/>
	</g>
	<g class="st1">
		<g>
			<g>
				<path class="st2" d="M158.3,16c-1.3,0.2-2.4,0.6-3.4,1.2c-1,0.6-1.9,1.5-2.4,2.5c-0.6,1-0.8,2-0.8,3.1h-2.2
					c0-1.1,0.2-2.2,0.6-3.1c0.5-0.9,1.1-1.8,2-2.5c0.9-0.7,2-1.3,3.4-1.7l0.2,0.5l-15.7,0.1v-2.4l15.7,0.1l-0.2,0.5
					c-1.4-0.4-2.5-0.9-3.4-1.7c-0.9-0.7-1.6-1.6-2-2.5c-0.5-0.9-0.6-2-0.6-3.1h2.2c0,1.1,0.3,2.1,0.8,3.1s1.4,1.9,2.4,2.5
					c1,0.6,2.1,1,3.4,1.2V16z"/>
			</g>
			<g>
				<path class="st2" d="M137.7,25.5c-0.9-0.9-1.7-1.9-2.3-3c-0.6-1.1-1.1-2.2-1.4-3.4c-0.3-1.2-0.5-2.4-0.5-3.7s0.2-2.5,0.5-3.7
					s0.7-2.3,1.4-3.3c0.6-1,1.3-2,2.2-3l0.1-0.1c0,0,0.1,0,0.1-0.1h2c-0.1,0.1-0.2,0.2-0.3,0.4c-0.1,0.2-0.2,0.3-0.3,0.4
					c-0.7,0.9-1.4,1.9-1.9,2.9c-0.5,1-0.8,2-1.1,3.1s-0.4,2.2-0.4,3.4c0,1.4,0.2,2.6,0.5,3.8c0.3,1.2,0.7,2.3,1.4,3.3
					c0.6,1,1.3,2,2.1,3L137.7,25.5L137.7,25.5z"/>
			</g>
			<g>
				<path class="st2" d="M158.7,25.5c0.8-0.9,1.6-1.9,2.1-3c0.6-1,1-2.1,1.4-3.3c0.4-1.2,0.5-2.5,0.5-3.8c0-1.2-0.1-2.3-0.4-3.4
					s-0.6-2.1-1.1-3.1c-0.5-1-1.1-1.9-1.9-2.9c-0.1-0.1-0.2-0.3-0.3-0.4s-0.2-0.2-0.3-0.4h2l0.1,0.1c0,0,0.1,0,0.1,0.1
					c0.8,0.9,1.6,1.9,2.2,3c0.6,1,1,2.1,1.4,3.3c0.3,1.2,0.5,2.4,0.5,3.7s-0.2,2.5-0.5,3.7s-0.8,2.3-1.4,3.4c-0.6,1.1-1.4,2-2.3,3
					H158.7L158.7,25.5z"/>
			</g>
		</g>
	</g>
	<g class="st1">
		<path class="st2" d="M37.6,253.1h53.2v9.2H48.1v24.9h38.5v9.2H48.1v34.2H37.6V253.1z"/>
		<path class="st2" d="M93.8,300.8v-47.7h10.3v47.4c0,14.8,9.1,22.4,20.3,22.4s20.3-7.6,20.3-22.4v-47.4h10.3v47.7
			c0,20.3-13.2,31.4-30.6,31.4S93.8,321,93.8,300.8z"/>
		<path class="st2" d="M184.5,262.1h-26.6v-9h63.3v9h-26.6v68.4h-10.3L184.5,262.1L184.5,262.1z"/>
		<path class="st2" d="M224.3,300.8v-47.7h10.3v47.4c0,14.8,9.1,22.4,20.3,22.4s20.3-7.6,20.3-22.4v-47.4h10.3v47.7
			c0,20.3-13.2,31.4-30.6,31.4C237.6,332.2,224.3,321,224.3,300.8z"/>
		<path class="st2" d="M295.7,253.1h29.7c17.7,0,27.8,8.6,27.8,21.2c0,10-6.3,17.2-17.5,19.4v0.2c9.3,3.6,12.7,10.7,15.4,20.5
			l4.4,16h-10.6l-3.6-13.5c-4-14.8-8.1-18.4-21.5-18.4H306v31.9h-10.3V253.1z M320.4,289.5c14.4,0,22.1-5,22.1-14.3
			c0-8.1-6.1-13-17.1-13h-19.4v27.2H320.4z"/>
		<path class="st2" d="M360.3,253.1h53.2v9.2h-42.8v24.9h38.5v9.2h-38.5v25h42.9v9.2h-53.3L360.3,253.1L360.3,253.1z"/>
		<path class="st2" d="M83.3,418.7v9.2H37.6v-77.4h10.3v68.2H83.3z"/>
		<path class="st2" d="M86.3,350.4h10.3v77.4H86.3V350.4z"/>
		<path class="st2" d="M106.9,350.4h53.2v9.2h-42.8v24.9h38.5v9.2h-38.5v34.2H107L106.9,350.4L106.9,350.4z"/>
		<path class="st2" d="M163.1,350.4h53.2v9.2h-42.8v24.9h38.5v9.2h-38.5v25h42.9v9.2h-53.3V350.4z"/>
	</g>
	<g class="st1">
		<g>
			<path class="st2" d="M262.4,361.8c-1.3,0.2-2.4,0.6-3.4,1.2c-1,0.6-1.9,1.5-2.4,2.5s-0.8,2-0.8,3.2h-2.2c0-1.2,0.2-2.2,0.6-3.1
				c0.5-0.9,1.1-1.8,2-2.5c0.9-0.7,2-1.3,3.4-1.7l0.2,0.5l-15.9,0.1v-2.4l15.9,0.1l-0.2,0.5c-1.4-0.4-2.5-1-3.4-1.7
				c-0.9-0.7-1.6-1.6-2-2.5c-0.5-0.9-0.6-2-0.6-3.1h2.2c0,1.1,0.3,2.2,0.8,3.2c0.6,1,1.4,1.9,2.4,2.5c1,0.6,2.2,1.1,3.4,1.2V361.8z"
				/>
		</g>
		<g>
			<path class="st2" d="M241.5,371.4c-0.9-0.9-1.7-1.9-2.3-3.1c-0.6-1.1-1.1-2.2-1.5-3.4c-0.4-1.2-0.5-2.4-0.5-3.8
				c0-1.3,0.2-2.5,0.5-3.7c0.3-1.2,0.7-2.3,1.4-3.3c0.6-1.1,1.4-2,2.2-3l0.1-0.1c0,0,0.1,0,0.1-0.1h2c-0.1,0.1-0.2,0.2-0.3,0.4
				c-0.1,0.1-0.2,0.3-0.3,0.4c-0.7,0.9-1.4,1.9-1.9,2.9c-0.6,1-0.9,2-1.1,3.1c-0.3,1.1-0.4,2.2-0.4,3.4c0,1.4,0.2,2.7,0.5,3.9
				c0.4,1.2,0.8,2.3,1.4,3.4c0.6,1,1.3,2,2.2,3H241.5L241.5,371.4z"/>
		</g>
		<g>
			<path class="st2" d="M262.7,371.4c0.8-0.9,1.6-1.9,2.2-3c0.6-1,1.1-2.2,1.4-3.4c0.4-1.2,0.5-2.5,0.5-3.9c0-1.2-0.1-2.3-0.4-3.4
				c-0.3-1.1-0.6-2.1-1.1-3.1c-0.5-1-1.1-1.9-1.9-2.9c-0.1-0.1-0.2-0.3-0.3-0.4c-0.1-0.1-0.2-0.3-0.3-0.4h2l0.1,0.1
				c0,0,0.1,0,0.1,0.1c0.9,0.9,1.7,1.9,2.2,3c0.6,1.1,1,2.2,1.4,3.3c0.3,1.2,0.5,2.4,0.5,3.7c0,1.3-0.2,2.5-0.5,3.8
				c-0.4,1.2-0.8,2.3-1.5,3.4c-0.6,1.1-1.4,2.1-2.3,3.1H262.7L262.7,371.4z"/>
		</g>
	</g>
</g>
</svg>
