<?xml version="1.0" encoding="utf-8"?>
<!-- Generator: Adobe Illustrator 27.4.1, SVG Export Plug-In . SVG Version: 6.00 Build 0)  -->
<svg version="1.1" id="Layer_1" xmlns="http://www.w3.org/2000/svg" xmlns:xlink="http://www.w3.org/1999/xlink" x="0px" y="0px"
	 viewBox="0 0 581.3 220" style="enable-background:new 0 0 581.3 220;" xml:space="preserve">
<style type="text/css">
	.st0{fill:#FFFFFF;}
	.st1{fill:none;stroke:#FFFFFF;stroke-width:3;stroke-miterlimit:10;}
</style>
<g>
	<g>
		<path class="st0" d="M192.8,77.7V65.2h1.6v12.6H192.8z"/>
		<path class="st0" d="M200.7,71.5c0-3.8,2.1-6.5,6-6.5c2.6,0,4.7,1.3,5.4,3.9l-1.8,0.3c-0.4-1.5-1.6-2.9-3.6-2.9
			c-1.4,0-2.6,0.5-3.3,1.4c-0.6,0.9-0.9,2.1-0.9,3.7c0,1.6,0.3,2.8,0.9,3.7c0.6,0.9,1.8,1.4,3.2,1.4c2,0,3.2-1.2,3.7-2.7l1.8,0.5
			c-1,2.3-2.9,3.6-5.5,3.6C202.8,78,200.7,75.6,200.7,71.5z"/>
		<path class="st0" d="M213.3,73.2c0-2.7,1.7-4.7,4.5-4.7c2.7,0,4.5,2,4.5,4.7c0,2.8-1.8,4.7-4.5,4.7C215,78,213.3,76.2,213.3,73.2z
			 M219.8,75.9c0.5-0.6,0.7-1.5,0.7-2.7c0-1.2-0.2-2.1-0.8-2.7c-0.4-0.5-1.1-0.7-2-0.7c-0.9,0-1.5,0.2-2,0.7
			c-0.6,0.6-0.8,1.5-0.8,2.7c0,1.2,0.2,2.2,0.8,2.7c0.4,0.4,1.1,0.7,2,0.7C218.7,76.7,219.4,76.4,219.8,75.9z"/>
		<path class="st0" d="M231.7,72.4v5.3H230v-5.2c0-0.8,0-1.6-0.5-2.1c-0.5-0.5-1.1-0.5-1.6-0.5c-0.8,0-2.3,0.3-2.3,2.9v5H224v-9h1.6
			v1.4c0.4-1,1.3-1.6,2.8-1.6c1.2,0,2,0.3,2.7,1C231.7,70.3,231.7,71.5,231.7,72.4z"/>
		<path class="st0" d="M233.3,74.8l1.5-0.1c0,1.3,0.9,2,2.3,2c1.5,0,2.2-0.5,2.2-1.5c0-1-1.7-1.1-2.9-1.5c-1.5-0.4-2.9-0.8-2.9-2.6
			c0-1.9,1.7-2.6,3.3-2.6c1.9,0,3.6,0.8,3.8,2.9l-1.5,0.2c0-1.2-0.8-1.9-2.3-1.9c-0.9,0-1.8,0.4-1.8,1.2s1.1,1.1,2.2,1.3
			c1.8,0.4,3.6,0.7,3.6,2.8c0,2.2-1.9,2.8-3.7,2.8C235.1,78,233.3,77,233.3,74.8z"/>
		<path class="st0" d="M250.6,73.7h-6.8c0,2,0.9,2.9,2.6,2.9c1.5,0,2.4-0.6,2.6-2l1.6,0.1c-0.4,2.1-1.8,3.2-4.1,3.2
			c-1.4,0-2.5-0.4-3.2-1.3c-0.8-0.8-1.1-2-1.1-3.4c0-1.3,0.4-2.5,1.1-3.3c0.8-0.9,1.9-1.3,3.2-1.3c1.4,0,2.8,0.6,3.5,1.8
			C250.4,71.2,250.6,72.5,250.6,73.7z M244.2,70.8c-0.3,0.5-0.4,1.1-0.4,1.6h5.1c0-0.5-0.2-1.2-0.5-1.6c-0.5-0.7-1.1-1-2.1-1
			C245.3,69.9,244.6,70.2,244.2,70.8z"/>
		<path class="st0" d="M260,72.4v5.3h-1.7v-5.2c0-0.8,0-1.6-0.5-2.1c-0.5-0.5-1.1-0.5-1.6-0.5c-0.8,0-2.3,0.3-2.3,2.9v5h-1.6v-9h1.6
			v1.4c0.4-1,1.3-1.6,2.8-1.6c1.2,0,2,0.3,2.7,1C260,70.3,260,71.5,260,72.4z"/>
		<path class="st0" d="M262.5,75.7v-5.6h-1.3v-1.3h1.3v-2.5h1.6v2.5h1.8v1.3h-1.8v5.6c0,0.6,0.3,0.7,0.9,0.7c0.2,0,0.5,0,0.8-0.1
			l0,1.5c-0.3,0.1-0.7,0.1-1,0.1C263.3,77.8,262.5,77.2,262.5,75.7z"/>
		<path class="st0" d="M272.1,75.7v-5.6h-1.3v-1.3h1.3v-2.5h1.6v2.5h1.8v1.3h-1.8v5.6c0,0.6,0.3,0.7,0.9,0.7c0.2,0,0.5,0,0.8-0.1
			l0,1.5c-0.3,0.1-0.7,0.1-1,0.1C272.8,77.8,272.1,77.2,272.1,75.7z"/>
		<path class="st0" d="M276.2,73.2c0-2.7,1.7-4.7,4.5-4.7c2.7,0,4.5,2,4.5,4.7c0,2.8-1.8,4.7-4.5,4.7
			C277.9,78,276.2,76.2,276.2,73.2z M282.7,75.9c0.5-0.6,0.7-1.5,0.7-2.7c0-1.2-0.2-2.1-0.8-2.7c-0.4-0.5-1.1-0.7-2-0.7
			c-0.9,0-1.5,0.2-2,0.7c-0.6,0.6-0.8,1.5-0.8,2.7c0,1.2,0.2,2.2,0.8,2.7c0.4,0.4,1.1,0.7,2,0.7C281.6,76.7,282.3,76.4,282.7,75.9z"
			/>
		<path class="st0" d="M291.5,75.7v-5.6h-1.3v-1.3h1.3v-2.5h1.6v2.5h1.8v1.3h-1.8v5.6c0,0.6,0.3,0.7,0.9,0.7c0.2,0,0.5,0,0.8-0.1
			l0,1.5c-0.3,0.1-0.7,0.1-1,0.1C292.3,77.8,291.5,77.2,291.5,75.7z"/>
		<path class="st0" d="M304.1,72.4v5.4h-1.7v-5.3c0-0.8,0-1.5-0.5-2c-0.5-0.5-1.1-0.5-1.6-0.5c-0.8,0-2.3,0.2-2.3,2.8v5h-1.6V65.2
			h1.6v4.9c0.5-1.1,1.5-1.6,2.8-1.6c1.2,0,2,0.3,2.7,1C304.1,70.3,304.1,71.4,304.1,72.4z"/>
		<path class="st0" d="M314.3,73.7h-6.8c0,2,0.9,2.9,2.6,2.9c1.5,0,2.4-0.6,2.6-2l1.6,0.1c-0.4,2.1-1.8,3.2-4.1,3.2
			c-1.4,0-2.5-0.4-3.2-1.3c-0.8-0.8-1.1-2-1.1-3.4c0-1.3,0.4-2.5,1.1-3.3c0.8-0.9,1.9-1.3,3.2-1.3c1.4,0,2.8,0.6,3.5,1.8
			C314.1,71.2,314.4,72.5,314.3,73.7z M308,70.8c-0.3,0.5-0.4,1.1-0.4,1.6h5.1c0-0.5-0.2-1.2-0.5-1.6c-0.5-0.7-1.1-1-2.1-1
			C309.1,69.9,308.3,70.2,308,70.8z"/>
		<path class="st0" d="M320.4,73.6v-8.4h1.6v8.4c0,2,1.5,2.9,3.3,2.9c1.7,0,3.3-0.9,3.3-2.9v-8.4h1.6v8.4c0,2.8-1.7,4.4-4.9,4.4
			C322.1,78,320.4,76.4,320.4,73.6z"/>
		<path class="st0" d="M331.9,74.8l1.5-0.1c0,1.3,0.9,2,2.3,2c1.5,0,2.2-0.5,2.2-1.5c0-1-1.7-1.1-2.9-1.5c-1.5-0.4-2.9-0.8-2.9-2.6
			c0-1.9,1.7-2.6,3.3-2.6c1.9,0,3.6,0.8,3.8,2.9l-1.5,0.2c0-1.2-0.8-1.9-2.3-1.9c-0.9,0-1.8,0.4-1.8,1.2s1.1,1.1,2.2,1.3
			c1.8,0.4,3.6,0.7,3.6,2.8c0,2.2-1.9,2.8-3.7,2.8C333.7,78,331.9,77,331.9,74.8z"/>
		<path class="st0" d="M349.2,73.7h-6.8c0,2,0.9,2.9,2.5,2.9c1.5,0,2.4-0.6,2.6-2l1.6,0.1c-0.4,2.1-1.8,3.2-4.1,3.2
			c-1.4,0-2.5-0.4-3.2-1.3c-0.8-0.8-1.1-2-1.1-3.4c0-1.3,0.4-2.5,1.1-3.3c0.8-0.9,1.9-1.3,3.2-1.3c1.4,0,2.8,0.6,3.5,1.8
			C349,71.2,349.3,72.5,349.2,73.7z M342.8,70.8c-0.3,0.5-0.4,1.1-0.4,1.6h5.1c0-0.5-0.2-1.2-0.5-1.6c-0.5-0.7-1.1-1-2.1-1
			C343.9,69.9,343.2,70.2,342.8,70.8z"/>
		<path class="st0" d="M354.5,73.2c0-2.7,1.7-4.7,4.5-4.7c2.7,0,4.5,2,4.5,4.7c0,2.8-1.8,4.7-4.5,4.7
			C356.2,78,354.5,76.2,354.5,73.2z M361,75.9c0.5-0.6,0.7-1.5,0.7-2.7c0-1.2-0.2-2.1-0.8-2.7c-0.4-0.5-1.1-0.7-2-0.7
			c-0.9,0-1.5,0.2-2,0.7c-0.6,0.6-0.8,1.5-0.8,2.7c0,1.2,0.2,2.2,0.8,2.7c0.4,0.4,1.1,0.7,2,0.7C359.9,76.7,360.5,76.4,361,75.9z"/>
		<path class="st0" d="M365.5,77.7v-7.6h-1.3v-1.3h1.3v-1.6c0-1.5,0.7-2.1,2.4-2.1c0.4,0,0.8,0.1,1,0.1l0,1.4
			c-0.3-0.1-0.7-0.1-0.9-0.1c-0.6,0-0.9,0.1-0.9,0.7v1.5h1.8v1.3h-1.8v7.6H365.5z"/>
		<path class="st0" d="M387.6,71.9v5.8H386v-5.3c0-0.8,0-1.6-0.5-2.1c-0.5-0.5-1.2-0.5-1.5-0.5c-0.5,0-1,0.2-1.3,0.5
			c-0.4,0.4-0.8,1-0.8,2.4v5h-1.7v-5.3c0-0.8,0-1.6-0.5-2.1c-0.5-0.5-1.2-0.5-1.5-0.5c-0.6,0-1,0.2-1.3,0.5c-0.4,0.4-0.8,1-0.8,2.4
			v5h-1.6v-9h1.6v1.3c0.1-0.3,0.3-0.6,0.7-0.9c0.4-0.3,1.1-0.7,2.1-0.7c1.4,0,2.4,0.7,2.9,1.9c0.2-0.5,0.4-0.9,0.9-1.2
			c0.4-0.4,1-0.7,2.1-0.7C386.5,68.5,387.6,69.7,387.6,71.9z"/>
		<path class="st0" d="M395.2,68.8h1.7l-3.7,9.8c-0.7,2-1.4,2.9-2.6,2.9c-0.4,0-0.9-0.1-1.4-0.2l0-1.5c0.3,0.1,0.7,0.2,1.1,0.2
			c0.7,0,1-0.7,1.6-2.3l-3.5-8.9h1.7l1.7,4.8c0.2,0.6,0.5,1.5,0.8,2.4c0.4-1.1,0.6-1.7,0.8-2.4L395.2,68.8z"/>
		<path class="st0" d="M222.9,98.5V85.9h1.6V97h6.5v1.4H222.9z"/>
		<path class="st0" d="M232.3,87.8v-1.9h1.6v1.9H232.3z M232.3,98.5v-9h1.6v9H232.3z"/>
		<path class="st0" d="M242,98.5l-3-4.6l-1.3,1.2v3.4h-1.6V85.9h1.6v7.3l3.8-3.7h2.2l-3.6,3.3l3.7,5.7H242z"/>
		<path class="st0" d="M252.6,94.5h-6.8c0,2,0.9,2.9,2.6,2.9c1.5,0,2.4-0.6,2.6-2l1.6,0.1c-0.4,2.1-1.8,3.2-4.1,3.2
			c-1.4,0-2.5-0.4-3.2-1.3c-0.8-0.8-1.1-2-1.1-3.4c0-1.3,0.4-2.5,1.1-3.3c0.8-0.9,1.9-1.3,3.2-1.3c1.4,0,2.8,0.6,3.5,1.8
			C252.4,91.9,252.7,93.2,252.6,94.5z M246.2,91.5c-0.3,0.5-0.4,1.1-0.4,1.6h5.1c0-0.5-0.2-1.2-0.5-1.6c-0.5-0.7-1.1-1-2.1-1
			C247.3,90.6,246.6,91,246.2,91.5z"/>
		<path class="st0" d="M262,93.1v5.3h-1.7v-5.2c0-0.8,0-1.6-0.5-2.1c-0.5-0.5-1.1-0.5-1.6-0.5c-0.8,0-2.3,0.3-2.3,2.9v5h-1.6v-9h1.6
			v1.4c0.4-1,1.3-1.6,2.8-1.6c1.2,0,2,0.3,2.7,1C262,91,262,92.2,262,93.1z"/>
		<path class="st0" d="M272.3,94.5h-6.8c0,2,0.9,2.9,2.6,2.9c1.5,0,2.4-0.6,2.6-2l1.6,0.1c-0.4,2.1-1.8,3.2-4.1,3.2
			c-1.4,0-2.5-0.4-3.2-1.3c-0.8-0.8-1.1-2-1.1-3.4c0-1.3,0.4-2.5,1.1-3.3c0.8-0.9,1.9-1.3,3.2-1.3c1.4,0,2.8,0.6,3.5,1.8
			C272.1,91.9,272.3,93.2,272.3,94.5z M265.9,91.5c-0.3,0.5-0.4,1.1-0.4,1.6h5.1c0-0.5-0.2-1.2-0.5-1.6c-0.5-0.7-1.1-1-2.1-1
			C267,90.6,266.3,91,265.9,91.5z"/>
		<path class="st0" d="M273.4,95.5l1.5-0.1c0,1.3,0.9,2,2.3,2c1.5,0,2.2-0.5,2.2-1.5c0-1-1.7-1.1-2.9-1.5c-1.5-0.4-2.9-0.8-2.9-2.6
			c0-1.9,1.7-2.6,3.3-2.6c1.9,0,3.6,0.8,3.8,2.9l-1.5,0.2c0-1.2-0.8-1.9-2.3-1.9c-0.9,0-1.8,0.4-1.8,1.2c0,0.8,1.1,1.1,2.2,1.3
			c1.8,0.4,3.6,0.7,3.6,2.8c0,2.2-1.9,2.8-3.7,2.8C275.2,98.7,273.4,97.7,273.4,95.5z"/>
		<path class="st0" d="M282.1,95.5l1.5-0.1c0,1.3,0.9,2,2.3,2c1.5,0,2.2-0.5,2.2-1.5c0-1-1.7-1.1-2.9-1.5c-1.5-0.4-2.9-0.8-2.9-2.6
			c0-1.9,1.7-2.6,3.3-2.6c1.9,0,3.6,0.8,3.8,2.9l-1.5,0.2c0-1.2-0.8-1.9-2.3-1.9c-0.9,0-1.8,0.4-1.8,1.2c0,0.8,1.1,1.1,2.2,1.3
			c1.8,0.4,3.6,0.7,3.6,2.8c0,2.2-1.9,2.8-3.7,2.8C283.9,98.7,282.1,97.7,282.1,95.5z"/>
		<path class="st0" d="M295.7,94.3v-8.4h1.6v8.4c0,2,1.5,2.9,3.3,2.9s3.3-0.9,3.3-2.9v-8.4h1.6v8.4c0,2.8-1.7,4.4-4.9,4.4
			C297.4,98.7,295.7,97.1,295.7,94.3z"/>
		<path class="st0" d="M316.4,94c0,2.8-1.7,4.7-4.1,4.7c-1.3,0-2.2-0.4-2.9-1.4v4.8h-1.6V89.5h1.6v1.3c0.7-1,1.6-1.5,2.8-1.5
			C314.7,89.3,316.4,91,316.4,94z M314.6,94c0-2.1-0.5-3.4-2.6-3.4c-0.8,0-1.5,0.3-1.9,0.8c-0.4,0.6-0.7,1.4-0.7,2.6
			c0,1.7,0.4,3.4,2.6,3.4c0.8,0,1.4-0.2,1.8-0.6C314.4,96.2,314.6,95.2,314.6,94z"/>
		<path class="st0" d="M318.2,98.5V85.9h1.6v12.6H318.2z"/>
		<path class="st0" d="M321.5,94c0-2.7,1.7-4.7,4.5-4.7c2.7,0,4.5,2,4.5,4.7c0,2.8-1.8,4.7-4.5,4.7C323.2,98.7,321.5,96.9,321.5,94z
			 M328,96.6c0.5-0.6,0.7-1.5,0.7-2.7c0-1.2-0.2-2.1-0.8-2.7c-0.4-0.5-1.1-0.7-2-0.7c-0.9,0-1.5,0.2-2,0.7c-0.6,0.6-0.8,1.5-0.8,2.7
			c0,1.2,0.2,2.2,0.8,2.7c0.4,0.4,1.1,0.7,2,0.7C326.9,97.4,327.5,97.1,328,96.6z"/>
		<path class="st0" d="M340.3,98.5c-0.3,0.1-0.6,0.1-1,0.1c-1,0-1.5-0.5-1.6-1.4c-0.5,1-1.5,1.5-3,1.5c-1.5,0-3-0.8-3-2.6
			c0-1.9,1.6-2.5,3.1-2.7l3-0.6c0-0.8,0-1.3-0.3-1.6c-0.3-0.4-0.8-0.6-1.6-0.6c-1.6,0-2.2,0.6-2.2,1.9l-1.6-0.2
			c0-1.1,0.4-1.9,1.1-2.3c0.6-0.4,1.6-0.7,2.7-0.7c2.3,0,3.4,1,3.4,3v4.3c0,0.5,0,0.7,0.5,0.7c0.1,0,0.3,0,0.5-0.1L340.3,98.5z
			 M337.6,94l-2.7,0.6c-1,0.2-1.7,0.5-1.7,1.5c0,0.8,0.7,1.3,1.6,1.3c2,0,2.7-1,2.7-2.3V94z"/>
		<path class="st0" d="M348,85.9h1.6v12.6H348v-1.3c-0.7,1-1.6,1.5-2.8,1.5c-2.4,0-4.1-1.8-4.1-4.7c0-2.8,1.7-4.7,4.1-4.7
			c1.3,0,2.2,0.4,2.9,1.4V85.9z M348,94c0-1.7-0.4-3.4-2.6-3.4c-0.9,0-1.6,0.3-2,0.8c-0.5,0.6-0.7,1.5-0.7,2.7
			c0,2.1,0.5,3.4,2.6,3.4c0.8,0,1.3-0.2,1.8-0.6C347.8,96.2,348,95.3,348,94z"/>
		<path class="st0" d="M359.9,94.5h-6.8c0,2,0.9,2.9,2.6,2.9c1.5,0,2.4-0.6,2.6-2l1.6,0.1c-0.4,2.1-1.8,3.2-4.1,3.2
			c-1.4,0-2.5-0.4-3.2-1.3c-0.8-0.8-1.1-2-1.1-3.4c0-1.3,0.4-2.5,1.1-3.3c0.8-0.9,1.9-1.3,3.2-1.3c1.4,0,2.8,0.6,3.5,1.8
			C359.7,91.9,360,93.2,359.9,94.5z M353.5,91.5c-0.3,0.5-0.4,1.1-0.4,1.6h5.1c0-0.5-0.2-1.2-0.5-1.6c-0.5-0.7-1.1-1-2.1-1
			C354.7,90.6,353.9,91,353.5,91.5z"/>
		<path class="st0" d="M368.1,85.9h1.6v12.6h-1.6v-1.3c-0.7,1-1.6,1.5-2.8,1.5c-2.4,0-4.1-1.8-4.1-4.7c0-2.8,1.7-4.7,4.1-4.7
			c1.3,0,2.2,0.4,2.9,1.4V85.9z M368.2,94c0-1.7-0.4-3.4-2.6-3.4c-0.9,0-1.6,0.3-2,0.8c-0.5,0.6-0.7,1.5-0.7,2.7
			c0,2.1,0.5,3.4,2.6,3.4c0.8,0,1.3-0.2,1.8-0.6C367.9,96.2,368.2,95.3,368.2,94z"/>
	</g>
</g>
<g>
	<g>
		<path class="st0" d="M210.3,48.4H208v-3.2h-3v-1.9c-0.8,0.9-2,1.8-3,2.5l-1.3-2c2.3-1.2,4.8-4.2,6.2-6.9h-5.6v-2.2h6.8v-3.5h2.3
			v3.5h6.8v2.2h-5.6c1.4,2.6,3.9,5.5,6.3,6.7l-1.4,2.2c-1.1-0.7-2.3-1.6-3.2-2.6v2.1h-2.9V48.4z M208,43v-4.1
			c-0.8,1.4-1.7,3-2.7,4.1H208z M213.1,43c-1-1.1-2-2.7-2.7-4.2V43H213.1z"/>
		<path class="st0" d="M220.9,48.4l-1.4-2c6.7-3.7,6.7-12.6,6.8-14.9h2.5c0,0.3-0.1,0.7-0.1,1c0.1,2.4,1.3,10.8,7.6,13.7l-1.2,2.1
			c-4.2-2.1-6.3-6.3-7.3-9.5C226.9,42,224.8,46,220.9,48.4z"/>
		<path class="st0" d="M250.2,48.5l-0.1-2.2c0.6,0,1.7,0,2,0c0.3,0,0.5-0.2,0.5-0.5V34h-11v14.4h-2.1V31.9h15.3v13.9
			c0,1.1-0.3,1.8-1,2.2C253.1,48.4,252,48.5,250.2,48.5z M251.5,37.1h-8.8v-1.8h8.8V37.1z M250.7,45.1h-7.1v-6.5h7.1V45.1z
			 M248.8,43.3v-2.9h-3.4v2.9H248.8z"/>
		<path class="st0" d="M259.5,48l-1.7-1.2c0.9-0.9,1.8-2.1,2.5-3.1l1.8,0.7C261.4,45.6,260.4,47,259.5,48z M274.1,37.5h-15.7V36h3.9
			l0-0.1c-0.1-0.3-0.2-0.6-0.3-0.9l0.2,0h-2.8v-1.5h13.7V35h-2.5c-0.2,0.4-0.4,0.8-0.6,1.1h4.2V37.5z M267.3,48.2h-1.2
			c-3.1,0-3.6-0.6-3.6-2.2v-1.8h1.9c-0.1-0.1-0.3-0.1-0.4-0.1l0.7-0.7h-4.2v-5.1h11.5v5.1h-5.5c0.7,0.3,1.4,0.8,1.8,1.1l-1.3,1.3
			c-0.5-0.4-1.6-1.1-2.5-1.5V46c0,0.4,0.1,0.6,1.6,0.6h1c1.4,0,1.4-0.3,1.5-1.4l1.8,0.3C270.3,47.6,269.8,48.2,267.3,48.2z
			 M270.6,32.8h-8.7v-1.3h8.7V32.8z M269.8,40.2v-0.8h-7.1v0.8H269.8z M269.8,42.1v-0.8h-7.1v0.8H269.8z M268,36
			c0.2-0.3,0.4-0.7,0.5-1.1H264c0.2,0.3,0.3,0.8,0.4,1.1H268z M273,48c-0.5-0.9-2-2.4-3.1-3.3l1.7-1c1.1,0.8,2.6,2.3,3.2,3.2L273,48
			z"/>
		<path class="st0" d="M281.7,48.4h-2.2V36.6c-0.3,0.2-0.6,0.4-1.1,0.8l-1.3-1.7c1.3-0.8,3.2-2.6,3.9-3.9l2.2,0.8
			c-0.8,1.2-2,2.5-3.1,3.5h4.2v-5h2.2v5h4.5c-0.9-1-2.3-2.3-3.4-3.2l1.7-1.2c1.6,1.2,3.6,2.9,4.5,4.1l-1.9,1.4
			c-0.1-0.2-0.4-0.5-0.7-0.8v9.6c0,1.1-0.3,1.8-1,2.1s-2,0.4-3.7,0.4l-0.1-2.1c0.7,0.1,1.8,0.1,2.1,0.1s0.5-0.1,0.5-0.4v-1.5h-7.4
			V48.4z M289.1,39.3v-1.2h-7.4v1.2H289.1z M289.1,42.5v-1.3h-7.4v1.3H289.1z"/>
		<path class="st0" d="M299.9,48.4h-2.1V39c-0.4,0.5-0.8,1.1-1.2,1.5c-0.1-0.5-0.7-1.8-1-2.3c1.4-1.6,2.9-4.5,3.7-7.1l2,0.6
			c-0.3,0.8-0.6,1.6-0.9,2.4l-0.1,0.2c-0.1,0.3-0.3,0.7-0.4,1V48.4z M305.4,48.5c-0.4,0-0.8,0-1.3-0.1c0-0.5-0.2-1.3-0.5-1.8
			c0,0,0,0-0.1,0l-0.1,0.1c-0.7,0.4-1.3,0.8-2.1,1.1l-0.8-1.7c1.6-0.5,4-1.9,5.4-3.1c-0.1-0.2-0.2-0.4-0.4-0.7
			c-1.2,0.8-2.7,1.8-4,2.3c-0.2-0.4-0.7-1-1-1.4c1.3-0.5,3-1.3,4.2-2.1c-0.1-0.1-0.3-0.3-0.4-0.5l-0.1,0.1c0,0-0.1,0-0.1,0l-0.1,0.1
			c-0.1,0.1-0.3,0.1-0.4,0.2l-0.1,0.1c-0.6,0.3-1.3,0.6-2,0.9l-0.7-1.6c1-0.3,2.2-0.9,3.3-1.5h-2.8v-2.9c-0.4-0.4-0.8-0.8-1.2-1
			c1.6-1.2,2.9-2.9,3.5-4.2l2.1,0.4c-0.1,0.2-0.3,0.5-0.4,0.7h2.7l0.4-0.1l1.3,0.9c-0.3,0.5-0.8,1.2-1.2,1.8h3.8v4.4H309
			c0.2,0.7,0.4,1.5,0.6,2.1c0.6-0.5,1.4-1.2,1.8-1.7l1.5,1.3c-0.7,0.7-1.8,1.5-2.6,2c0.7,1.2,1.7,2.5,2.7,3.1l-1.2,1.8
			c-2.4-1.7-3.9-4.9-4.6-8.6h-0.4c-0.3,0.3-0.5,0.6-0.9,0.8c2.8,2.4,2.9,6.6,1.5,7.8C306.8,48.2,306.2,48.4,305.4,48.5z M305.7,37.6
			v-1.4h-2.4v1.4H305.7z M306.3,34.7c0.2-0.3,0.4-0.7,0.6-1h-2.6c-0.2,0.3-0.5,0.7-0.8,1H306.3z M305,46.6c0.4,0,0.6-0.1,0.8-0.4
			c0.2-0.2,0.6-0.8,0.6-1.4c-0.8,0.5-1.7,1.2-2.6,1.7C304.3,46.6,304.7,46.6,305,46.6z M310.1,37.6v-1.4h-2.6v1.4H310.1z"/>
		<path class="st0" d="M321.2,48.5l-0.7-2c1.1-0.2,2.1-0.8,2.9-1.4c-0.9-0.7-1.7-1.8-2.3-2.9l1.8-0.6c0.4,0.7,1,1.5,1.7,2
			c0.4-0.6,0.6-1.4,0.7-2.2h-4.1v-5.4h4.2v-1.3h-4.5v-1.7c-0.3,0.7-0.6,1.4-1,2.1v13.2h-2.1V38.4c-0.5,0.6-1,1.2-1.3,1.5l-1.5-1.9
			c1.9-1.8,3.7-4.5,4.7-7l2,0.7c-0.2,0.4-0.4,0.8-0.5,1.2h4.3v-1.7h2.1v1.7h4.9v2h-4.9v1.3h4.4v5.4h-4.5c-0.1,1.1-0.3,2.3-0.9,3.3
			c1.6,0.8,3.8,1.4,5.8,1.6l-0.5,2c-2.8-0.4-4.9-1.1-6.5-2C324.4,47.2,323,48,321.2,48.5z M325.4,39.8v-1.9h-2.2v1.9H325.4z
			 M329.8,39.8v-1.9h-2.3v1.9H329.8z"/>
		<path class="st0" d="M336.6,48.5c-0.3-0.4-1.3-1.2-1.7-1.4c1.9-2.1,2.2-5.7,2.2-8.1v-6.7h13.6v13.5c0,1.1-0.3,1.8-1,2.1
			c-0.7,0.3-2,0.4-3.8,0.4l-0.1-2.1c0.6,0,1.6,0,2.1,0h0.1c0.3,0,0.5-0.2,0.5-0.5v-2.9h-3.7v5.3h-2.2v-5.3H339
			C338.7,44.8,337.9,47.2,336.6,48.5z M342.6,40.9v-2.3h-3.3V39c0,0.3,0,0.7,0,1.1v0.2c0,0.2,0,0.4,0,0.6H342.6z M342.6,36.5v-2.1
			h-3.3v2.1H342.6z M348.5,36.5v-2.1h-3.7v2.1H348.5z M348.5,40.9v-2.3h-3.7v2.3H348.5z"/>
		<path class="st0" d="M370.5,47.5h-16.4v-2.2h6.5v-14h2.3v5.3h6.3v2.2h-6.3v6.5h7.6V47.5z"/>
		<path class="st0" d="M383.4,48.5l-0.1-1.8c0.6,0,1.4,0,1.7,0c0.3,0,0.4-0.1,0.4-0.3v-1.9h-3.9c0.7,0.6,1.4,1.5,1.8,2.1l-1.7,1.1
			c-0.4-0.7-1.4-1.8-2.1-2.6l0.9-0.6H378v-1.7h7.4v-0.9c0,0-0.1,0-0.1,0H385h-0.3c-0.2,0-0.4,0-0.6,0l-0.2,0c-2,0-3.9,0.1-5.4,0.1
			l-0.2-1.6h0.2c1.2,0,2.8,0,4.5,0v-0.8h-4v-5.1h4v-0.7h-4.6V33c-0.3,0.8-0.8,1.8-1.2,2.5v12.8H375v-9.6c-0.4,0.5-0.9,1.1-1.1,1.3
			l-1.6-1.8c1.8-1.8,3.5-4.6,4.4-7.1l2.1,0.7l-0.2,0.5h4.3v-1.1h2v1.1h4.8v1.6h-4.8v0.7h4.2v5.1h-0.8c0.7,0.6,1.4,1.4,1.8,1.9
			l-1.6,0.9c-0.1-0.2-0.3-0.4-0.4-0.7l-0.6,0v0.9h2.4v1.7h-2.4v2c0,0.9-0.2,1.5-0.9,1.8C385.9,48.5,384.9,48.5,383.4,48.5z
			 M383,36.5v-0.8h-2v0.8H383z M383,38.5v-0.8h-2v0.8H383z M387,36.5v-0.8h-2.1v0.8H387z M387,38.5v-0.8h-2.1v0.8H387z M384.9,40.4
			l1.8,0c-0.2-0.2-0.4-0.5-0.7-0.7l0.1-0.1h-1.3V40.4z"/>
	</g>
</g>
<path class="st1" d="M419.6,182.3H163.4c-12.4,0-22.5-10.1-22.5-22.5v0c0-12.4,10.1-22.5,22.5-22.5h256.3
	c12.4,0,22.5,10.1,22.5,22.5v0C442.1,172.2,432,182.3,419.6,182.3z"/>
<g>
	<g>
		<path class="st0" d="M272.9,166.4l-1.7-4.5h-6.4l-1.6,4.5h-2.1l5.9-15h2.1l5.8,15H272.9z M265.6,160.2h5.1l-1.7-4.5
			c-0.3-0.8-0.6-1.8-0.9-2.4h0c-0.3,0.8-0.5,1.5-0.8,2.4L265.6,160.2z"/>
		<path class="st0" d="M282.1,158.4h6.4v7.9h-1.6l-0.2-2.1c-1,1.5-2.7,2.3-4.8,2.3c-4.5,0-7.1-2.8-7.1-7.8c0-4.5,2.5-7.8,7.1-7.8
			c3.1,0,5.6,1.6,6.4,4.7l-2.1,0.4c-0.5-1.8-1.9-3.4-4.3-3.4c-1.7,0-3.1,0.6-3.9,1.7c-0.7,1-1.1,2.5-1.1,4.4c0,1.9,0.4,3.4,1.1,4.5
			c0.8,1.2,2.2,1.6,4.1,1.6c2.8,0,4.4-1.6,4.4-4.7h-4.5V158.4z"/>
		<path class="st0" d="M302.3,166.3L302.3,166.3l-2.1,0.1c-0.5-0.7-0.6-1.5-0.6-3.5c0-2-0.8-2.7-3.4-2.7h-3.3v6.2h-1.9v-15h5.1
			c2.7,0,5.9,0.3,5.9,4.4c0,1.8-1,3.2-2.3,3.7c1.4,0.5,1.9,1.6,1.9,3.2C301.5,164.4,301.6,165.4,302.3,166.3z M295.9,158.5
			c1.8,0,4-0.2,4-2.6c0-2.8-2.2-2.8-4-2.8h-3.1v5.5H295.9z"/>
		<path class="st0" d="M304.2,166.4v-15h9.7v1.7h-7.8v4.8h7v1.7h-7v5h7.8v1.7H304.2z"/>
		<path class="st0" d="M315.7,166.4v-15h9.7v1.7h-7.8v4.8h7v1.7h-7v5h7.8v1.7H315.7z"/>
	</g>
</g>
</svg>
