<?xml version="1.0" encoding="utf-8"?>
<!-- Generator: Adobe Illustrator 27.4.1, SVG Export Plug-In . SVG Version: 6.00 Build 0)  -->
<svg version="1.1" id="Layer_1" xmlns="http://www.w3.org/2000/svg" xmlns:xlink="http://www.w3.org/1999/xlink" x="0px" y="0px"
	 viewBox="0 0 581.3 220" style="enable-background:new 0 0 581.3 220;" xml:space="preserve">
<style type="text/css">
	.st0{fill:#CBC8CD;}
</style>
<g>
	<g>
		<path class="st0" d="M88.9,205.2v-14.5h3.9v14.4c0,3.1,2.2,4.5,4.9,4.5c2.7,0,5-1.4,5-4.5v-14.4h3.9v14.5c0,4.9-3.1,7.6-8.8,7.6
			C91.9,212.8,88.9,210.2,88.9,205.2z"/>
		<path class="st0" d="M110.1,212.4v-21.7h7.7c4,0,8.9,0.6,8.9,6.7c0,6-4.8,6.7-8.9,6.7H114v8.3L110.1,212.4L110.1,212.4z M114,201
			h3.8c2.5,0,5.1-0.2,5.1-3.6c0-3.5-2.5-3.6-5.1-3.6H114V201z"/>
		<path class="st0" d="M128.6,212.4v-21.7h3.8v18.4h10.9v3.3L128.6,212.4L128.6,212.4z"/>
		<path class="st0" d="M143.4,201.6c0-6.6,3.8-11.2,10.6-11.2c6.8,0,10.6,4.7,10.6,11.2c0,6.6-3.9,11.2-10.6,11.2
			C147.3,212.8,143.4,208.8,143.4,201.6z M159,207.5c1-1.4,1.5-3.5,1.5-5.9c0-2.5-0.6-4.6-1.5-5.9c-1-1.5-2.7-2.2-4.8-2.2
			c-2.3,0-4.1,0.8-5,2.1s-1.6,3.6-1.6,6c0,2.6,0.6,4.7,1.5,5.9c1.1,1.5,3,2.2,5,2.2C156.3,209.7,158,209,159,207.5z"/>
		<path class="st0" d="M180.7,212.4l-2-5.7h-8.5l-2,5.7h-4.1l8.3-21.7h4l8.3,21.7L180.7,212.4L180.7,212.4z M171.4,203.5h6.2
			l-1.8-5.2c-0.4-1.1-0.9-2.6-1.3-3.9h0c-0.4,1.5-0.8,2.6-1.2,3.9L171.4,203.5z"/>
		<path class="st0" d="M186.4,212.4v-21.7h7.7c6.8,0,10.7,4.3,10.7,10.9c0,6.8-4,10.9-10.7,10.9L186.4,212.4L186.4,212.4z
			 M190.3,209.3h3.5c2.5,0,4.4-0.7,5.4-2.1c1-1.4,1.4-3.2,1.4-5.6c0-2.4-0.3-4-1.4-5.6s-3-2.2-5.5-2.2h-3.5L190.3,209.3L190.3,209.3
			z"/>
		<path class="st0" d="M219.1,212.4v-9.1l-7.6-12.6h4.4l3,5.4c0.3,0.6,1.4,2.6,2.1,4.1c0.8-1.5,1.5-2.9,2.2-4.1l3-5.4h4.4l-7.7,12.6
			v9.1H219.1z"/>
		<path class="st0" d="M229.7,201.6c0-6.6,3.8-11.2,10.6-11.2c6.8,0,10.6,4.7,10.6,11.2c0,6.6-3.9,11.2-10.6,11.2
			C233.6,212.8,229.7,208.8,229.7,201.6z M245.3,207.5c1-1.4,1.5-3.5,1.5-5.9c0-2.5-0.6-4.6-1.5-5.9c-1-1.5-2.7-2.2-4.8-2.2
			c-2.3,0-4.1,0.8-5,2.1s-1.6,3.6-1.6,6c0,2.6,0.6,4.7,1.5,5.9c1.1,1.5,3,2.2,5,2.2C242.6,209.7,244.2,209,245.3,207.5z"/>
		<path class="st0" d="M253.3,205.2v-14.5h3.9v14.4c0,3.1,2.2,4.5,4.9,4.5c2.7,0,5-1.4,5-4.5v-14.4h3.9v14.5c0,4.9-3.1,7.6-8.8,7.6
			C256.3,212.8,253.3,210.2,253.3,205.2z"/>
		<path class="st0" d="M291.9,212.4L291.9,212.4l-4.2,0.1c-0.7-1.1-0.9-2.1-0.9-5c0-2.6-1.2-3.6-4.2-3.6h-4.1v8.6h-3.9v-21.7h8
			c4.3,0,8.6,0.8,8.6,6.5c0,2.7-1.4,4.5-3.4,5.3c2.1,0.8,2.9,2.4,2.9,4.7C290.6,209.6,290.8,211,291.9,212.4z M282.2,200.8
			c2.6,0,5.1-0.3,5.1-3.4c0-3.4-2.5-3.5-5-3.5h-3.9v6.9L282.2,200.8L282.2,200.8z"/>
		<path class="st0" d="M300.5,212.4v-21.7h14.7v3.2h-10.9v5.9h9.7v3.2h-9.7v9.4L300.5,212.4L300.5,212.4z"/>
		<path class="st0" d="M317,205.2v-14.5h3.9v14.4c0,3.1,2.2,4.5,4.9,4.5c2.7,0,5-1.4,5-4.5v-14.4h3.9v14.5c0,4.9-3.1,7.6-8.8,7.6
			C320.1,212.8,317,210.2,317,205.2z"/>
		<path class="st0" d="M343.2,212.4V194h-7v-3.3h18v3.3h-7.1v18.4H343.2z"/>
		<path class="st0" d="M355.7,205.2v-14.5h3.9v14.4c0,3.1,2.2,4.5,4.9,4.5c2.7,0,5-1.4,5-4.5v-14.4h3.9v14.5c0,4.9-3.1,7.6-8.8,7.6
			C358.8,212.8,355.7,210.2,355.7,205.2z"/>
		<path class="st0" d="M394.3,212.4L394.3,212.4l-4.2,0.1c-0.7-1.1-0.9-2.1-0.9-5c0-2.6-1.2-3.6-4.2-3.6h-4.1v8.6h-3.9v-21.7h8
			c4.3,0,8.6,0.8,8.6,6.5c0,2.7-1.4,4.5-3.4,5.3c2.1,0.8,2.9,2.4,2.9,4.7C393,209.6,393.3,211,394.3,212.4z M384.7,200.8
			c2.6,0,5.1-0.3,5.1-3.4c0-3.4-2.5-3.5-5-3.5h-3.9v6.9L384.7,200.8L384.7,200.8z"/>
		<path class="st0" d="M396.7,212.4v-21.7h14.7v3.2h-10.8v5.9h9.7v3.2h-9.7v6.1h10.8v3.2L396.7,212.4L396.7,212.4z"/>
		<path class="st0" d="M420.5,212.4v-21.7h3.8v18.4h10.9v3.3L420.5,212.4L420.5,212.4z"/>
		<path class="st0" d="M436.8,212.4v-21.7h3.9v21.7L436.8,212.4L436.8,212.4z"/>
		<path class="st0" d="M444.4,212.4v-21.7h14.7v3.2h-10.9v5.9h9.7v3.2h-9.7v9.4L444.4,212.4L444.4,212.4z"/>
		<path class="st0" d="M460.9,212.4v-21.7h14.7v3.2h-10.8v5.9h9.7v3.2h-9.7v6.1h10.8v3.2L460.9,212.4L460.9,212.4z"/>
	</g>
</g>
<g>
	<g>
		<path class="st0" d="M203.5,174.3h-20.8v-2.2h8.5v-18.2h2.3v7h8.3v2.1h-8.3v9.1h10V174.3z"/>
		<path class="st0" d="M220.7,175.5h-0.3l-0.1-1.9c1,0.1,2.1,0.1,2.5,0.1c0.3,0,0.4-0.2,0.4-0.5v-3h-5.9c1,0.8,2.1,2.2,2.7,3
			l-1.7,1.1c-0.5-0.8-1.9-2.4-2.9-3.3l1.2-0.8h-3.3v-1.7h9.9v-1.4h-0.1l-0.4,0c-3.3,0.1-6.4,0.2-8.7,0.2l-0.2-1.7h0.2
			c1.6,0,3.7,0,6-0.1v-1.3h-5.3V158h5.3v-1.1h-6v-1.4c-0.2,0.5-0.5,1.1-0.7,1.6l-0.1,0.2l-0.1,0.2c0,0,0,0.1,0,0.1l-0.1,0.2
			c-0.3,0.5-0.5,1-0.8,1.4v16.3h-2.1v-13c-0.6,0.8-1.4,1.8-1.9,2.3l-1.6-1.8c2.3-2.3,4.7-5.9,5.9-9.2l2,0.6c-0.1,0.3-0.3,0.6-0.4,1
			h6v-1.5h1.9v1.5h6.4v1.6h-6.4v1.1h5.6v6.3h-1.4c1,0.8,2.2,2,2.7,2.7l-1.6,1c-0.2-0.3-0.5-0.6-0.8-1l-1.1,0v1.5h3.2v1.7h-3.2v3.1
			c0,1-0.3,1.7-1.1,1.9C223.6,175.5,222.4,175.5,220.7,175.5z M220,160.5v-1.2h-3.3v1.2H220z M216.7,163l3.3,0v-1.3h-3.3V163
			L216.7,163z M225.4,160.5v-1.2h-3.5v1.2H225.4z M221.9,163l3.5,0v-1.3h-3.5V163L221.9,163z M221.9,165.6l3-0.1
			c-0.4-0.3-0.8-0.7-1.2-1l0.3-0.2h-2.1L221.9,165.6L221.9,165.6z"/>
		<path class="st0" d="M237.3,175.5h-2.1v-13.1c-0.6,0.9-1.4,1.8-1.9,2.3l-1.6-1.8c2.3-2.3,4.6-5.9,5.9-9.2l2,0.6
			c-0.6,1.6-1.5,3.3-2.4,4.9L237.3,175.5L237.3,175.5z M243.2,175.5l-0.2-2.2c0.7,0,1.8,0,2,0c0.3,0,0.3-0.1,0.3-0.5v-13h-3
			l-0.1,0.2c-0.6,1.4-1.2,2.7-1.9,3.6l-1.8-1.4c1.7-2,3-5.5,3.7-8.6l2.1,0.5c-0.3,1.2-0.7,2.6-1.2,3.7h8.8l0.4-0.1l1.5,0.3
			c-0.3,1.8-0.8,3.9-1.1,5.2l-1.8-0.4c0.1-0.6,0.3-1.5,0.4-2.4l0-0.3c0-0.1,0-0.3,0-0.4h-3.9v13c0,1.1-0.1,1.9-0.8,2.2
			C246.1,175.4,245,175.5,243.2,175.5z M240.5,172.2l-1.6-1.2c1.3-1.7,2.3-4.7,2.8-7.3l2.1,0.4C243.2,167,241.9,170.4,240.5,172.2z
			 M251.5,172.2c-0.3-2-1.5-5.7-2.7-8l2-0.6c1.2,2.3,2.5,5.9,2.8,7.9L251.5,172.2z"/>
		<path class="st0" d="M270.8,175.4l-0.1-2c1,0.1,2.4,0.1,2.9,0.1c0.5,0,0.8-0.1,1.1-0.5c0.7-0.8,1.2-5.1,1.6-13.6h-6.5
			c-0.7,1.4-1.7,2.9-2.5,3.9c-0.2-0.2-0.5-0.5-0.8-0.7v9.4h-7.9v-14.6h2.5c0.4-1.1,0.9-2.8,1-3.9l2.4,0.4c-0.4,1.1-1,2.5-1.4,3.5
			h3.4v3.2c1.4-1.9,2.5-4.6,3.2-7.2l2.1,0.5c-0.3,1.1-0.7,2.4-1.1,3.5h7.7c0,0,0,0.7,0,1c-0.4,10.1-0.9,14.6-1.8,15.8
			c-0.5,0.7-1.1,1-2,1.1C273.7,175.5,272.3,175.4,270.8,175.4z M264.5,163.3v-4h-3.9v4H264.5z M264.5,170.1v-4.8h-3.9v4.8H264.5z
			 M274.3,166.4h-6.5v-1.9h6.5V166.4z"/>
		<path class="st0" d="M294.1,175.5h-2.3V167c-2.2,2.8-5.2,5.7-8.3,7.3l-1.2-2c2.8-1.2,6.3-4.4,8.3-7.1h-7.8V163h9v-3.7h-7.2v-2.1
			h7.2v-3.6h2.3v3.6h7.4v2.1h-7.4v3.7h9.1v2.1h-8c2,2.7,5.5,5.9,8.3,7.1l-1.1,2.1c-3-1.5-6.1-4.6-8.3-7.4L294.1,175.5L294.1,175.5z"
			/>
		<path class="st0" d="M319.4,175.5h-2.3v-7.7c-2.2,2.6-5.2,5.4-8.2,6.8l-1.1-2.1c3.4-1.3,7.3-5,9.3-8.1v-5.7h-8.6v-2.1h8.6v-3.1
			h2.3v3.1h8.9v2.1h-8.9v5.5c0.2,0.4,0.4,0.7,0.6,1.1c1.6-1.3,2.5-3.8,3-6.2l2.1,0.4c-0.2,0.9-0.5,1.9-0.8,2.6
			c0.5,0.3,1,0.7,1.5,1.1l0.2,0.2c1,0.8,1.9,1.6,2.5,2.1l-1.6,1.5c-0.7-0.8-2.2-2.1-3.4-3.1c-0.5,0.9-1.2,1.8-1.9,2.4
			c-0.4-0.3-1.1-0.8-1.6-1.1c2.1,2.8,5.6,5.9,8.7,7l-1.2,2.2c-3.2-1.4-6.2-4.2-8.3-6.9V175.5z M309.7,167.7l-1.4-1.6
			c1.9-1.4,3.5-4.1,4.1-7l2.1,0.4c-0.2,0.9-0.5,1.9-0.9,2.7c0.9,0.8,1.9,1.8,2.5,2.4l-1.5,1.5c-0.4-0.5-1.2-1.3-1.9-2
			C312,165.4,310.9,166.7,309.7,167.7z"/>
		<path class="st0" d="M353.6,159.2h-20.7v-1.9h5.4c-0.4-0.8-1.3-2-2-2.8l2-0.7c0.9,0.9,1.9,2.3,2.3,3.1l-1.2,0.4h7.3l-0.8-0.4
			c0.7-0.9,1.5-2.4,2-3.4l2.4,0.7c-0.2,0.3-0.4,0.6-0.7,0.9l-0.1,0.2c-0.5,0.7-1.1,1.4-1.5,1.9h5.6L353.6,159.2L353.6,159.2z
			 M338.4,175.5l-0.1-1.9c0.7,0.1,1.6,0.1,1.9,0.1s0.4-0.2,0.4-0.5v-7.1l-0.8,1.2c-0.6-0.6-2.1-1.4-3.2-1.8l1-1.2
			c1.1,0.4,2.3,1.1,3,1.7v-3h-4v6.2l0.9-1.1c1.1,0.5,2.4,1.3,3.1,1.9l-0.9,1.3c-0.6-0.6-2-1.5-3.1-2v6.2h-2.1v-14.4h8.2v12.1
			c0,1-0.3,1.6-0.9,1.9C341,175.5,340.1,175.5,338.4,175.5z M346.9,171h-2v-9.7h2V171z M346.7,175.5l-0.1-2c0.7,0,1.6,0.1,2.1,0.1
			h0.2c0.1,0,0.2,0,0.3,0c0.4,0,0.5-0.2,0.5-0.6v-12.3h2.1V173c0,1.1-0.3,1.9-1.1,2.2C350.1,175.5,348.7,175.5,346.7,175.5z"/>
		<path class="st0" d="M358.6,175.3c-0.3-0.5-1.2-1.2-1.7-1.5c1.4-2.8,1.7-7.2,1.7-10.1v-8.2l1.2,0.4c2.1-0.5,4.5-1.3,5.9-1.9
			l1.8,1.6c-1.9,0.8-4.5,1.6-6.8,2v1.8h6.6v7.6h-6.7C360.5,169.5,359.9,173.1,358.6,175.3z M365.3,164.9v-3.7h-4.5v2.7
			c0,0.1,0,0.2,0,0.4v0.2c0,0.2,0,0.3,0,0.5L365.3,164.9L365.3,164.9z M376.3,175.5h-2.2v-12h-3.3c-0.1,3.5-1.1,8.8-4.1,12
			c-0.3-0.5-1.1-1.3-1.6-1.5c3.1-3.3,3.6-8.5,3.6-11.9v-6.3l1.7,0.4c2.2-0.6,4.7-1.5,6-2.3l1.9,1.6c-2,1-5,1.9-7.5,2.5v3.5h7.9v2.1
			h-2.4L376.3,175.5L376.3,175.5z"/>
	</g>
</g>
<g>
	<path class="st0" d="M273.9,111.1l0.7-84.9l-3.5-0.7c-2,4.6-4.3,8.6-7,12c-4.1,5.2-9,9.1-14.4,11.6c-5,2.3-10.6,3.5-16.6,3.7v-9.9
		c6.5-0.3,12.7-2.1,18.5-5.5c6.3-3.7,11.6-8.8,15.8-15.2c3.9-6,6.4-12.7,7.5-20.1h9c1.1,7.4,3.6,14.1,7.4,20.1
		c4.1,6.4,9.5,11.5,15.8,15.2c5.8,3.4,12,5.2,18.5,5.5v9.9c-6-0.2-11.6-1.5-16.6-3.7c-5.5-2.5-10.3-6.4-14.4-11.6
		c-2.7-3.4-5-7.4-7-12l-3.5,0.7l0.7,84.9L273.9,111.1L273.9,111.1z"/>
</g>
</svg>
