<?xml version="1.0" encoding="utf-8"?>
<!-- Generator: Adobe Illustrator 27.4.1, SVG Export Plug-In . SVG Version: 6.00 Build 0)  -->
<svg version="1.1" id="Layer_1" xmlns="http://www.w3.org/2000/svg" xmlns:xlink="http://www.w3.org/1999/xlink" x="0px" y="0px"
	 viewBox="0 0 581.3 297.5" style="enable-background:new 0 0 581.3 297.5;" xml:space="preserve">
<style type="text/css">
	.st0{fill:#CBC8CD;}
</style>
<g>
	<g>
		<g>
			<path class="st0" d="M80.4,72.1V50.4h3.9v21.7H80.4z"/>
			<path class="st0" d="M93.1,61.2c0-6.6,3.8-11.2,10.6-11.2c4.6,0,8.5,2.3,9.7,7.1l-4,0.8c-0.6-2.7-2.4-4.7-5.6-4.7
				c-2.2,0-4,0.6-5,2s-1.5,3.4-1.5,6s0.4,4.4,1.3,5.9c1.1,1.5,2.8,2.2,5.2,2.2c3.2,0,5-1.9,5.7-4.4l4.1,1.1
				c-1.7,4.2-5.1,6.4-9.8,6.4C97,72.4,93.1,68.4,93.1,61.2z"/>
			<path class="st0" d="M114.5,61.2c0-6.6,3.8-11.2,10.6-11.2s10.6,4.7,10.6,11.2c0,6.6-3.9,11.2-10.6,11.2
				C118.4,72.4,114.5,68.4,114.5,61.2z M130.1,67.1c1.1-1.4,1.6-3.5,1.6-5.9c0-2.5-0.6-4.6-1.6-5.9c-1.1-1.5-2.7-2.2-4.8-2.2
				c-2.3,0-4.1,0.8-5.1,2.1s-1.6,3.6-1.6,6c0,2.6,0.6,4.7,1.5,5.9c1.1,1.5,2.9,2.2,5.1,2.2C127.4,69.2,129.1,68.6,130.1,67.1z"/>
			<path class="st0" d="M138.4,72.1V50.4h4.4l6.5,11.3c0.9,1.6,2,3.8,2.9,5.6l0,0c-0.1-1.9-0.2-4.8-0.2-5.9v-11h3.7v21.7h-4.4
				l-6.7-11.6c-0.6-1.1-2-3.5-2.7-5.3l0,0c0.1,2.2,0.1,5.2,0.1,5.8v11.1L138.4,72.1L138.4,72.1z"/>
			<path class="st0" d="M158.1,64.9l4-0.4c0,3.2,2.2,4.8,5.2,4.8c2.8,0,5-0.9,5-3.4c0-2.6-2.9-2.5-6.2-3.2c-3.9-0.9-7.4-2.3-7.4-6.4
				c0-4.6,4.2-6.3,8.1-6.3c4.6,0,8.2,1.8,8.7,6.9l-3.9,0.7c-0.1-3-1.9-4.5-4.8-4.5c-2.2,0-4.1,0.9-4.1,3c0,2,2.4,2.6,5.4,3.1
				c4.6,0.7,8.2,1.9,8.2,6.6c0,5.2-4.5,6.7-9,6.7C162.4,72.4,158.1,70.1,158.1,64.9z"/>
			<path class="st0" d="M178.7,72.1V50.4h14.7v3.2h-10.9v5.9h9.7v3.2h-9.7v6.1h10.9V72L178.7,72.1L178.7,72.1z"/>
			<path class="st0" d="M196.1,72.1V50.4h4.4l6.5,11.3c0.9,1.6,2,3.8,2.9,5.6l0,0c-0.1-1.9-0.1-4.8-0.1-5.9v-11h3.7v21.7h-4.4
				l-6.7-11.6c-0.6-1.1-2-3.5-2.7-5.3l0,0c0.1,2.2,0.2,5.2,0.2,5.8v11.1L196.1,72.1L196.1,72.1z"/>
			<path class="st0" d="M222,72.1V53.7h-7v-3.3h18v3.3h-7.1v18.4H222z"/>
			<path class="st0" d="M245.8,72.1V53.7h-7v-3.3h18v3.3h-7.1v18.4H245.8z"/>
			<path class="st0" d="M256.8,61.2c0-6.6,3.8-11.2,10.6-11.2c6.8,0,10.6,4.7,10.6,11.2c0,6.6-3.9,11.2-10.6,11.2
				C260.8,72.4,256.8,68.4,256.8,61.2z M272.4,67.1c1-1.4,1.5-3.5,1.5-5.9c0-2.5-0.6-4.6-1.5-5.9c-1-1.5-2.7-2.2-4.8-2.2
				c-2.3,0-4.1,0.8-5,2.1c-1,1.3-1.6,3.6-1.6,6c0,2.6,0.6,4.7,1.5,5.9c1.1,1.5,3,2.2,5,2.2C269.7,69.2,271.4,68.6,272.4,67.1z"/>
			<path class="st0" d="M291.8,72.1V53.7h-7v-3.3h18v3.3h-7.1v18.4H291.8z"/>
			<path class="st0" d="M304.4,72.1V50.4h3.9v9.1h9.5v-9.1h3.9v21.7h-3.9v-9.3h-9.5v9.3H304.4z"/>
			<path class="st0" d="M325.4,72.1V50.4h14.7v3.2h-10.9v5.9h9.7v3.2h-9.7v6.1h10.9V72L325.4,72.1L325.4,72.1z"/>
			<path class="st0" d="M348.9,64.9V50.4h3.9v14.4c0,3.1,2.2,4.5,4.9,4.5c2.7,0,5-1.4,5-4.5V50.4h3.9v14.5c0,4.9-3.1,7.6-8.8,7.6
				S348.9,69.8,348.9,64.9z"/>
			<path class="st0" d="M368.8,64.9l4-0.4c0,3.2,2.2,4.8,5.2,4.8c2.8,0,5-0.9,5-3.4c0-2.6-2.9-2.5-6.2-3.2c-3.9-0.9-7.4-2.3-7.4-6.4
				c0-4.6,4.2-6.3,8.1-6.3c4.6,0,8.2,1.8,8.7,6.9l-3.9,0.7c-0.1-3-1.9-4.5-4.8-4.5c-2.2,0-4.1,0.9-4.1,3c0,2,2.4,2.6,5.4,3.1
				c4.6,0.7,8.2,1.9,8.2,6.6c0,5.2-4.5,6.7-9,6.7C373.1,72.4,368.9,70.1,368.8,64.9z"/>
			<path class="st0" d="M389.5,72.1V50.4h14.7v3.2h-10.8v5.9h9.7v3.2h-9.7v6.1h10.8V72L389.5,72.1L389.5,72.1z"/>
			<path class="st0" d="M412,61.2c0-6.6,3.8-11.2,10.6-11.2c6.8,0,10.6,4.7,10.6,11.2c0,6.6-3.9,11.2-10.6,11.2S412,68.4,412,61.2z
				 M427.6,67.1c1-1.4,1.5-3.5,1.5-5.9c0-2.5-0.6-4.6-1.5-5.9c-1-1.5-2.7-2.2-4.8-2.2c-2.3,0-4.1,0.8-5,2.1c-1,1.3-1.6,3.6-1.6,6
				c0,2.6,0.6,4.7,1.5,5.9c1.1,1.5,3,2.2,5,2.2C424.9,69.2,426.6,68.6,427.6,67.1z"/>
			<path class="st0" d="M435.9,72.1V50.4h14.7v3.2h-10.9v5.9h9.7v3.2h-9.7v9.4L435.9,72.1L435.9,72.1z"/>
			<path class="st0" d="M459,72.1V50.4h6l3.5,11.2c0.8,2.7,1.5,5,1.9,6.6l0,0c0.4-1.6,1.2-4.4,1.9-6.6l3.5-11.2h6v21.7h-3.7V59.4
				c0-0.8,0.1-3.6,0.1-5.5h-0.1c-0.7,2.5-1.4,4.8-1.7,5.9l-4,12.4h-4.2l-4-12.5c-0.3-1.1-1.1-3.7-1.7-5.8h-0.1
				c0,1.9,0.1,4.8,0.1,5.6v12.7L459,72.1L459,72.1z"/>
			<path class="st0" d="M491.1,72.1V63l-7.6-12.6h4.4l3,5.4c0.3,0.6,1.4,2.6,2.1,4.1c0.8-1.5,1.5-2.9,2.2-4.1l3-5.4h4.4L494.9,63
				v9.1H491.1z"/>
			<path class="st0" d="M142.2,102.1V80.4h3.8v18.4h10.9v3.3H142.2L142.2,102.1z"/>
			<path class="st0" d="M158.6,102.1V80.4h3.9v21.7H158.6z"/>
			<path class="st0" d="M179.2,102.1l-6.8-9.9l-2.4,2.4v7.5h-3.9V80.4h3.9v9.3l8.9-9.3h5l-8.8,9l8.9,12.7H179.2z"/>
			<path class="st0" d="M185.3,102.1V80.4H200v3.2h-10.9v5.9h9.7v3.2h-9.7v6.1H200v3.2L185.3,102.1L185.3,102.1z"/>
			<path class="st0" d="M202.7,102.1V80.4h4.4l6.5,11.3c0.9,1.6,2,3.8,2.9,5.6l0,0c-0.1-1.9-0.1-4.8-0.1-5.9v-11h3.7v21.7h-4.4
				L209,90.5c-0.6-1.1-2-3.5-2.7-5.3l0,0c0.1,2.2,0.2,5.2,0.2,5.8v11.1C206.4,102.1,202.7,102.1,202.7,102.1z"/>
			<path class="st0" d="M223.7,102.1V80.4h14.7v3.2h-10.9v5.9h9.7v3.2h-9.7v6.1h10.9v3.2L223.7,102.1L223.7,102.1z"/>
			<path class="st0" d="M239.5,94.9l4-0.4c0,3.2,2.2,4.8,5.2,4.8c2.8,0,5-0.9,5-3.4c0-2.6-2.9-2.5-6.2-3.2c-3.9-0.9-7.4-2.3-7.4-6.4
				c0-4.6,4.2-6.3,8.1-6.3c4.6,0,8.2,1.8,8.7,6.9l-3.9,0.7c-0.1-3-1.9-4.5-4.8-4.5c-2.2,0-4.1,0.9-4.1,3c0,2,2.4,2.6,5.4,3.1
				c4.6,0.7,8.2,1.9,8.2,6.6c0,5.2-4.5,6.7-9,6.7C243.8,102.4,239.5,100.1,239.5,94.9z"/>
			<path class="st0" d="M259,94.9l4-0.4c0,3.2,2.2,4.8,5.2,4.8c2.8,0,5-0.9,5-3.4c0-2.6-2.9-2.5-6.2-3.2c-3.9-0.9-7.4-2.3-7.4-6.4
				c0-4.6,4.2-6.3,8.1-6.3c4.6,0,8.2,1.8,8.7,6.9l-3.9,0.7c-0.1-3-1.9-4.5-4.8-4.5c-2.2,0-4.1,0.9-4.1,3c0,2,2.4,2.6,5.4,3.1
				c4.6,0.7,8.2,1.9,8.2,6.6c0,5.2-4.5,6.7-9,6.7C263.3,102.4,259,100.1,259,94.9z"/>
			<path class="st0" d="M285.6,94.9V80.4h3.9v14.4c0,3.1,2.2,4.5,4.9,4.5c2.7,0,5-1.4,5-4.5V80.4h3.9v14.5c0,4.9-3.1,7.6-8.8,7.6
				S285.6,99.8,285.6,94.9z"/>
			<path class="st0" d="M306.8,102.1V80.4h7.7c4,0,8.9,0.7,8.9,6.7s-4.8,6.7-8.9,6.7h-3.8v8.3H306.8L306.8,102.1z M310.7,90.6h3.8
				c2.5,0,5.1-0.2,5.1-3.6c0-3.5-2.5-3.6-5-3.6h-3.8v7.2L310.7,90.6L310.7,90.6z"/>
			<path class="st0" d="M325.3,102.1V80.4h3.8v18.4H340v3.3H325.3L325.3,102.1z"/>
			<path class="st0" d="M340.1,91.2c0-6.6,3.8-11.2,10.6-11.2c6.8,0,10.6,4.7,10.6,11.2c0,6.6-3.9,11.2-10.6,11.2
				S340.1,98.4,340.1,91.2z M355.7,97.1c1-1.4,1.5-3.5,1.5-5.9c0-2.5-0.6-4.6-1.5-5.9c-1-1.5-2.7-2.2-4.8-2.2c-2.3,0-4.1,0.8-5,2.1
				s-1.6,3.6-1.6,6c0,2.6,0.6,4.7,1.5,5.9c1.1,1.5,3,2.2,5,2.2C353,99.2,354.7,98.6,355.7,97.1z"/>
			<path class="st0" d="M377.4,102.1l-2-5.7h-8.5l-2,5.7h-4.1l8.3-21.7h4l8.3,21.7C381.5,102.1,377.4,102.1,377.4,102.1z
				 M368.1,93.1h6.2l-1.8-5.2c-0.4-1.2-0.9-2.6-1.3-3.9l0,0c-0.4,1.5-0.8,2.6-1.2,3.9L368.1,93.1z"/>
			<path class="st0" d="M383.1,102.1V80.4h7.7c6.8,0,10.7,4.3,10.7,10.8c0,6.8-4,10.8-10.7,10.8L383.1,102.1L383.1,102.1z M387,98.9
				h3.5c2.5,0,4.4-0.7,5.4-2.1c1-1.4,1.4-3.2,1.4-5.6c0-2.4-0.3-4-1.4-5.6s-3-2.2-5.5-2.2H387V98.9L387,98.9z"/>
			<path class="st0" d="M404,102.1V80.4h14.7v3.2h-10.8v5.9h9.7v3.2h-9.7v6.1h10.8v3.2L404,102.1L404,102.1z"/>
			<path class="st0" d="M421.4,102.1V80.4h7.7c6.8,0,10.7,4.3,10.7,10.8c0,6.8-4,10.8-10.7,10.8L421.4,102.1L421.4,102.1z
				 M425.3,98.9h3.5c2.5,0,4.4-0.7,5.4-2.1c1-1.4,1.4-3.2,1.4-5.6c0-2.4-0.3-4-1.4-5.6s-3-2.2-5.5-2.2h-3.5L425.3,98.9L425.3,98.9z"
				/>
		</g>
	</g>
	<g>
		<g>
			<path class="st0" d="M177.1,29.1h-2.3v-4.4h-4.1v-2.2h4.1v-6.4c-2,3.6-5,7.4-8.3,9.4l-1.2-2c3.1-1.7,6.4-5.7,8.2-9.4H166v-2.2
				h8.9V7.2h2.3v4.7h9v2.2h-7.6c1.8,3.6,5.1,7.6,8.3,9.2l-1.3,2.1c-3.4-1.9-6.4-5.7-8.4-9.3v6.4h4v2.2h-4L177.1,29.1L177.1,29.1z"/>
			<path class="st0" d="M209.8,29c-5.7-2.7-8.5-8.9-9.6-13.2c-1.1,4.3-3.7,10.1-9.2,13.2l-1.3-2c8.8-4.7,8.9-16.2,9.1-19.2h2.4
				c0,0.3,0,0.7-0.1,1.1c0.2,3,1.7,14.2,9.9,18L209.8,29z"/>
			<path class="st0" d="M217.7,29.2h-2.1V8.3h19.1v18.2c0,1.2-0.3,2-1.1,2.3c-0.7,0.3-2.1,0.4-4.3,0.4l-0.1-2.1c1,0,2.4,0.1,2.8,0.1
				c0.4,0,0.6-0.3,0.6-0.7V10.4h-14.9V29.2L217.7,29.2z M230.8,14.2h-11.3v-1.8h11.3V14.2z M229.6,24.7h-9v-8.1h9V24.7z M227.8,22.9
				v-4.5h-5.4v4.5H227.8z"/>
			<path class="st0" d="M241,28.6l-1.7-1.2c1.1-1.2,2.5-2.9,3.3-4.1l1.9,0.7C243.6,25.5,242.3,27.2,241,28.6z M260,14.9h-19.9v-1.5
				h5.3c-0.2-0.5-0.5-1.1-0.7-1.6l0.4-0.1h-3.9v-1.5h17.6v1.5h-3.4c-0.3,0.6-0.6,1.2-0.9,1.7h5.5L260,14.9L260,14.9z M251.2,25.7
				c-0.8-0.7-2.7-1.7-4-2.2l0.8-1h-5.2v-6.4h14.4v6.4h-7.7c1.1,0.5,2.4,1.2,3,1.8L251.2,25.7z M255.5,9.1h-11.1V7.8h11.1V9.1z
				 M255,18.7v-1.3h-10v1.3H255z M255,21.2V20h-10v1.3h10V21.2z M251.5,28.9h-1.9c-3.6,0-4.2-0.7-4.2-2.4v-2.6h2.1v2.6
				c0,0.5,0.1,0.7,2.2,0.7h1.7c1.9,0,1.9-0.5,2-2.1l1.8,0.3C255,28.1,254.5,28.9,251.5,28.9z M252.5,13.4c0.2-0.4,0.4-1.1,0.6-1.7
				h-6.2c0.3,0.5,0.4,1.2,0.5,1.7H252.5z M258.9,28.6c-0.7-1.2-2.6-3.2-4.1-4.3l1.6-1c1.5,1.1,3.4,3,4.2,4.2L258.9,28.6z"/>
			<path class="st0" d="M265.7,14.9l-1.3-1.7c1.8-1.1,4.2-3.3,5.3-5.1l2.2,0.7C270.5,11,268,13.4,265.7,14.9z M269.8,29.1h-2.2V13.6
				h6.2V7.2h2.2v6.4h6.2v12.9c0,1.2-0.3,1.9-1.1,2.3c-0.8,0.3-2.1,0.3-4.3,0.3l-0.1-2.1c1,0,2.4,0,2.8,0s0.5-0.2,0.5-0.6v-2.6h-10.2
				V29.1L269.8,29.1z M280.1,17.8v-2.2h-10.2v2.2H280.1z M280.1,22v-2.3h-10.2V22H280.1z M283.7,14.6c-1.1-1.5-3.6-3.8-5.6-5.4
				l1.7-1.2c2.1,1.4,4.6,3.6,5.7,5.1L283.7,14.6z"/>
			<path class="st0" d="M293.4,29.1h-2.1V16.3c-0.6,0.9-1.3,1.9-1.9,2.6c-0.2-0.5-0.7-1.8-1.1-2.3c1.9-2.2,3.9-5.9,4.9-9.3l2,0.5
				c-0.3,0.9-0.6,1.8-1.1,2.7l-0.1,0.2c-0.2,0.5-0.5,1.1-0.7,1.6L293.4,29.1L293.4,29.1z M300.8,29.2c-0.5,0-1.1,0-2-0.1v-1.8
				c0.4,0,1.1,0.1,1.6,0.1s1-0.1,1.3-0.5c0.5-0.4,0.8-1.6,0.6-2.7c-1.9,1.5-4.6,3.4-7,4.3l-0.8-1.8c2.3-0.7,5.4-2.8,7.2-4.5
				c-0.1-0.5-0.2-0.8-0.4-1.1c-1.6,1.1-3.8,2.5-5.7,3.2l-0.6-1.5c1.6-0.5,4.1-1.8,5.6-2.9c-0.3-0.3-0.6-0.6-0.8-0.9
				c-1.3,0.8-2.6,1.4-4.1,2l-0.7-1.6c1.5-0.5,3.4-1.4,5-2.3h-4.1v-3.3l-0.2,0.2c-0.4-0.4-0.9-1-1.4-1.3c2.2-1.5,3.8-3.8,4.7-5.5
				l2.1,0.4c-0.2,0.3-0.4,0.7-0.6,1h3.9l0.4-0.1l1.3,0.9c-0.4,0.7-1,1.6-1.6,2.4h5.1v5.3H305c0.3,1,0.6,2.2,1,3.1
				c0.3-0.3,0.7-0.5,1-0.8l0.2-0.2c0.6-0.5,1.2-1,1.6-1.4l1.5,1.2c-1,0.9-2.6,2.1-3.6,2.7c0.9,1.9,2.4,3.7,3.9,4.5l-1.2,1.8
				c-3.1-2-5.2-6.4-6.2-11.1h-0.5c-0.4,0.3-0.8,0.8-1.2,1.1c3.7,3.1,3.7,8.6,2,10.1C302.4,28.9,301.7,29.1,300.8,29.2z M301.4,15.6
				v-2.4h-3.7v2.4H301.4z M302.1,11.8c0.4-0.4,0.6-1,0.9-1.6h-3.9c-0.1,0.2-0.3,0.4-0.5,0.6l-0.1,0.2c-0.2,0.2-0.4,0.5-0.6,0.7
				L302.1,11.8L302.1,11.8z M307.2,15.6v-2.4h-4v2.4H307.2z"/>
			<path class="st0" d="M319.3,29.2h-2V15.6c-0.7,1-1.6,2-2.2,2.5l-1.5-1.9c2.4-2.2,4.9-5.9,6.1-9.2l2,0.7c-0.6,1.5-1.5,3.2-2.4,4.7
				V29.2L319.3,29.2z M321.1,29.2l-0.7-2c1.7-0.4,3.1-1.3,4.1-2.2c-1.2-1-2.4-2.5-3.1-3.8l1.8-0.5c0.6,1,1.6,2.1,2.6,2.9
				c0.6-0.9,0.9-2.3,1.1-3.4h-5.4v-6.6h5.5v-2.1h-6v-2h5.9V7.2h2v2.3h6.6v2H329v2.1h5.9v6.6h-6c-0.2,1.5-0.4,3.2-1.2,4.5
				c2.2,1.1,5.1,2.1,7.9,2.4l-0.5,2.1c-3.5-0.5-6.4-1.5-8.6-2.9C325.2,27.4,323.6,28.6,321.1,29.2z M326.9,18.5v-3.1h-3.5v3.1H326.9
				z M332.7,18.5v-3.1h-3.8v3.1H332.7z"/>
			<path class="st0" d="M341.1,29.2c-0.3-0.4-1.2-1.2-1.7-1.5c2.4-2.7,2.9-7.4,2.9-10.6V8.6h17v17.6c0,1.2-0.3,2-1.1,2.3
				c-0.8,0.3-2.3,0.4-4.7,0.4l-0.1-2.1c1,0,2.4,0,3,0h0.2c0.4,0,0.6-0.3,0.6-0.7v-4.4h-5.5v7h-2.2v-7h-5.2
				C343.8,24.2,342.8,27.5,341.1,29.2z M349.4,19.8v-3.6h-4.9v1c0,0.8,0,1.8-0.1,2.6H349.4z M349.4,14.2v-3.3h-4.9v3.3H349.4z
				 M357.1,14.2v-3.3h-5.5v3.3H357.1z M357.1,19.8v-3.6h-5.5v3.6H357.1z"/>
			<path class="st0" d="M385.2,28h-20.8v-2.2h8.5V7.5h2.3v7h8.3v2.1h-8.3v9.1h10V28z"/>
			<path class="st0" d="M402.4,29.2h-0.3l-0.1-1.9c1,0.1,2.1,0.1,2.5,0.1c0.3,0,0.4-0.2,0.4-0.5v-3H399c1,0.8,2.1,2.2,2.7,3
				l-1.7,1.2c-0.5-0.8-1.8-2.4-2.9-3.3l1.2-0.8H395v-1.7h9.9v-1.4h-0.1h-0.4c-3.3,0.1-6.4,0.2-8.7,0.2l-0.2-1.7h0.2
				c1.6,0,3.7,0,6-0.1V18h-5.3v-6.3h5.3v-1.2h-6V9.1c-0.2,0.5-0.5,1.1-0.7,1.6l-0.1,0.2l-0.1,0.2c0,0,0,0,0,0.1l-0.1,0.2
				c-0.3,0.5-0.5,1-0.8,1.4v16.3h-2.1v-13c-0.7,0.8-1.4,1.8-1.9,2.3l-1.6-1.8c2.3-2.3,4.7-5.9,5.9-9.2l2,0.6c-0.1,0.3-0.3,0.6-0.4,1
				h6V7.5h1.9V9h6.4v1.5h-6.4v1.1h5.6v6.3h-1.4c1,0.8,2.2,2,2.7,2.7l-1.6,1c-0.2-0.3-0.5-0.6-0.8-1h-1.1v1.5h3.2v1.7h-3.2v3.1
				c0,1-0.3,1.7-1.1,1.9C405.3,29.2,404.1,29.2,402.4,29.2z M401.7,14.1v-1.2h-3.3v1.2H401.7z M398.3,16.7h3.3v-1.3h-3.3V16.7
				L398.3,16.7z M407.1,14.1v-1.2h-3.5v1.2H407.1z M403.6,16.7h3.5v-1.3h-3.5V16.7L403.6,16.7z M403.6,19.2l3-0.1
				c-0.4-0.3-0.8-0.7-1.2-1l0.3-0.2h-2.1L403.6,19.2L403.6,19.2z"/>
		</g>
	</g>
</g>
</svg>
