<?xml version="1.0" encoding="utf-8"?>
<!-- Generator: Adobe Illustrator 27.4.1, SVG Export Plug-In . SVG Version: 6.00 Build 0)  -->
<svg version="1.1" id="Layer_1" xmlns="http://www.w3.org/2000/svg" xmlns:xlink="http://www.w3.org/1999/xlink" x="0px" y="0px"
	 viewBox="0 0 581.3 115.3" style="enable-background:new 0 0 581.3 115.3;" xml:space="preserve">
<style type="text/css">
	.st0{fill:#CACACA;}
</style>
<g>
	<g>
		<path class="st0" d="M185.8,20.1h-16.1v-1.7h6.6v-14h1.8v5.4h6.4v1.6h-6.4v7h7.7V20.1z"/>
		<path class="st0" d="M199.2,21.1H199l-0.1-1.5c0.8,0.1,1.6,0.1,1.9,0.1c0.2,0,0.3-0.2,0.3-0.4V17h-4.6c0.8,0.6,1.6,1.7,2.1,2.3
			l-1.3,0.8c-0.4-0.6-1.5-1.9-2.2-2.5L196,17h-2.5v-1.3h7.6v-1.1H201h-0.3c-2.5,0.1-4.9,0.2-6.7,0.2l-0.2-1.3h0.2
			c1.2,0,2.9,0,4.6-0.1v-1h-4.1V7.5h4.1V6.7H194V5.5c-0.2,0.4-0.4,0.8-0.5,1.2l-0.1,0.2l-0.1,0.2v0.1l-0.1,0.2
			c-0.2,0.4-0.4,0.8-0.6,1.1V21H191V11c-0.5,0.6-1.1,1.4-1.5,1.8l-1.2-1.4c1.8-1.8,3.6-4.6,4.6-7.1l1.5,0.5
			c-0.1,0.2-0.2,0.5-0.3,0.8h4.6V4.3h1.5v1.2h4.9v1.2h-4.9v0.8h4.3v4.9h-1.1c0.8,0.6,1.7,1.5,2.1,2.1l-1.2,0.8
			c-0.2-0.2-0.4-0.5-0.6-0.8h-0.8v1.2h2.5V17h-2.5v2.5c0,0.8-0.2,1.3-0.8,1.5C201.4,21,200.5,21.1,199.2,21.1z M198.5,9.5v-1H196
			v0.9C196,9.5,198.5,9.5,198.5,9.5z M196,11.4h2.5v-1H196V11.4L196,11.4z M202.7,9.5v-1H200v0.9C200,9.5,202.7,9.5,202.7,9.5z
			 M200.1,11.4h2.7v-1h-2.7V11.4L200.1,11.4z M200.1,13.4l2.3-0.1c-0.3-0.2-0.6-0.5-0.9-0.8l0.2-0.2h-1.6V13.4L200.1,13.4z"/>
		<path class="st0" d="M208.9,21.2l-0.5-1.6c3.5-0.8,4.5-3,4.8-5.4h-4.6v-1.6h15.8v1.6h-5.1v4.3c0,0.5,0.1,0.7,1.3,0.7h1
			c1.2,0,1.5-0.5,1.5-2.2l1.5,0.2c-0.2,2.6-0.8,3.5-3,3.5h-1.2c-2.5,0-2.9-0.6-2.9-2.2v-4.3h-2.8C214.4,17.2,213.3,20,208.9,21.2z
			 M210.7,9.9H209V6h6.6V4.1h1.8v1.8h6.6v3.9h-1.8V7.5h-11.5L210.7,9.9L210.7,9.9z M221.1,10.8h-9.3V9.2h9.3V10.8z"/>
		<path class="st0" d="M229,21.2l-1.5-1.2c1.5-2,1.7-5.6,1.7-7.9V7h7.3c0-0.4,0-0.8-0.1-1.3V5.5c0-0.1,0-0.1,0-0.1V5.3
			c0-0.4,0-0.8,0-1.1h1.7c0,0.5,0,0.8,0,1.3v0.2c0,0.5,0,0.9,0,1.4h3.6c-0.7-0.6-1.9-1.4-2.9-1.9l1-1c1,0.5,2.5,1.4,3.2,2l-0.8,0.9
			h1.9v1.5h-5.7c0,0.5,0.1,0.8,0.1,1.2V10v0.1v0.2c0.2,1.5,0.4,3,0.7,4.2c0.8-1.3,1.6-3,2.1-4.6l1.7,0.4c-0.8,2.2-1.9,4.6-3.2,6.3
			c0.5,1.5,1.3,2.6,2.2,2.6c0.5,0,0.7-1.2,0.8-3.1l1.5,0.3c-0.3,3.5-1,4.5-2.4,4.5c-1.3,0-2.5-1.2-3.2-2.9c-1,1-2.1,2.2-3.4,3
			l-1-1.5c1.3-0.7,2.6-2,3.7-3.2c-0.4-1.3-0.7-3.1-0.9-4.9v-0.2c0-0.2-0.1-0.5-0.1-0.8v-0.2V9.8c0-0.2,0-0.3,0-0.5V9.2
			c0-0.2,0-0.2,0-0.4V8.6h-5.6v2.2h4.4v0.6c-0.1,3.8-0.2,5.6-0.5,6.1c-0.3,0.4-0.5,0.5-1,0.6s-1.3,0.1-2.3,0v-1.5
			c0.5,0.1,1.2,0.1,1.5,0.1c0.2,0,0.3-0.1,0.5-0.2c0.2-0.2,0.3-1.5,0.3-4.2h-2.8C231,14.9,230.5,19,229,21.2z"/>
		<path class="st0" d="M250.2,15.2c1.5-0.5,2.2-1.4,2.3-2.5c-0.1,0-0.2,0-0.2,0c-0.8,0-1.5-0.5-1.5-1.5c0-0.9,0.7-1.5,1.5-1.5
			c1.2,0,1.8,0.9,1.8,2.3c0,2.1-1.3,3.6-3.4,4.3L250.2,15.2z"/>
		<path class="st0" d="M269,21h-0.3l-0.2-1.3c0.5,0,1.1,0,1.5,0h0.2c0.2,0,0.3,0,0.4,0c0.3,0,0.4-0.2,0.4-0.4v-2h-6.1
			c0.8,0.5,1.6,1.4,2.1,1.9l-1.1,1c-0.5-0.6-1.7-1.6-2.6-2.2l0.8-0.7h-3.9v-1.4H271v-1.1h-2.4V11h6.8v3.8h-2.7v1.1h3.7v1.4h-3.7v2.1
			c0,0.8-0.2,1.2-0.8,1.5C271.3,21,270.5,21,269,21z M274,10.2h-11.3V9.1h9.6v-1h-11.9v-1h11.9v-1h-9.6V5H274v1.9h2.4v1.3H274V10.2z
			 M267.6,14.8h-0.2c-0.3,0-0.6,0.1-1,0.1l-0.5,0.1c-0.4,0-0.7,0.1-1.1,0.1h-0.2c-1.5,0.1-2.9,0.2-4,0.2l-0.1-1.2
			c0.8,0,1.9-0.1,2.9-0.2v-1.5H261v-1.2h6.6v1.2h-2.4v1.5l2.8-0.2v1.2C267.8,14.8,267.7,14.8,267.6,14.8z M273.7,13.8v-1.6h-3.6v1.6
			C270.2,13.8,273.7,13.8,273.7,13.8z"/>
		<path class="st0" d="M280.3,20.9l-0.1-1.5c0.5,0,1.2,0,1.5,0h0.1c0.2,0,0.4-0.2,0.4-0.4v-4.5l-2.2,0.6l-0.5-1.6
			c0.7-0.2,1.8-0.5,2.7-0.7V9.2h-2.5V7.7h2.5V4.1h1.6v3.5h2.1v1.5h-2.1v3.2c0.2-0.1,0.5-0.2,0.8-0.2l0.2-0.1
			c0.4-0.1,0.8-0.2,1.2-0.3l0.2,1.5c-0.4,0.1-0.8,0.2-1.2,0.4l-0.2,0.1c-0.3,0.1-0.6,0.2-0.9,0.3v5c0,0.8-0.2,1.4-0.7,1.6
			C282.5,20.9,281.7,20.9,280.3,20.9z M294,21c-1.5-0.2-2.9-1.4-3.7-3.1c-1.1,0.9-2.3,2-3.9,2.7l-0.8-1.5c1.3-0.5,2.8-1.7,4.1-2.9
			c-0.3-1-0.5-2.4-0.8-3.9V12c0-0.1,0-0.1,0-0.1v-0.3c0-0.1,0-0.2,0-0.2v-0.2c0-0.2,0-0.3-0.1-0.4v-0.2v-0.2c0-0.1,0-0.1,0-0.1
			l-2.5,0.2L286.1,9l2.5-0.2c-0.1-0.6-0.1-1.3-0.2-2.1V6.6c0-0.1,0-0.2,0-0.3V6.1c0-0.1,0-0.2,0-0.2V5.7c0-0.5-0.1-0.9-0.1-1.3V4.3
			h1.7c0,0.1,0,0.2,0,0.2v0.2c0,0.1,0,0.2,0,0.2V5c0,0.1,0,0.2,0,0.3v0.2c0,0.2,0,0.3,0,0.5v0.2c0,0.8,0,1.7,0.1,2.4l5.6-0.5
			l0.2,1.5l-5.4,0.5c0,0.2,0.1,0.4,0.1,0.5v0.3c0,0.2,0.1,0.5,0.1,0.7v0.2c0.1,1,0.2,1.9,0.5,2.7c0.9-1.2,1.9-2.6,2.5-3.9l1.4,0.8
			c-0.7,1.7-1.9,3.5-3.2,4.9c0.5,1.3,1.4,2.4,2.3,2.5c0.5,0,0.8-1.2,0.8-2.7l1.5,0.4C295.8,19.9,294.9,21,294,21z M293.2,7.9
			c-0.3-0.4-0.8-0.9-1.3-1.5l-0.2-0.2c-0.4-0.4-0.7-0.8-1-1.1l1.2-0.8c0.8,0.8,1.9,1.9,2.5,2.5L293.2,7.9z"/>
		<path class="st0" d="M302.6,21H301V11c-0.5,0.7-1.1,1.4-1.5,1.8l-1.2-1.4c1.8-1.8,3.6-4.6,4.6-7.1l1.5,0.5
			c-0.5,1.2-1.2,2.5-1.9,3.8L302.6,21L302.6,21z M307.1,21.1l-0.1-1.7c0.5,0,1.4,0,1.5,0c0.2,0,0.2-0.1,0.2-0.4V9h-2.3l-0.1,0.2
			c-0.5,1.1-0.9,2.1-1.5,2.9l-1.4-1.1c1.3-1.5,2.3-4.2,2.9-6.6l1.6,0.4c-0.2,0.9-0.5,2-0.9,2.9h6.8l0.3-0.1l1.2,0.2
			c-0.2,1.4-0.6,3-0.8,4l-1.4-0.3c0.1-0.5,0.2-1.2,0.3-1.9V9.3c0-0.1,0-0.2,0-0.3h-3v10c0,0.8-0.1,1.5-0.6,1.7
			C309.4,21,308.5,21.1,307.1,21.1z M305.1,18.6l-1.2-0.9c1-1.3,1.8-3.6,2.2-5.6l1.6,0.3C307.1,14.5,306.1,17.1,305.1,18.6z
			 M313.6,18.5c-0.2-1.5-1.2-4.4-2.1-6.2l1.5-0.5c0.9,1.8,1.9,4.6,2.2,6.1L313.6,18.5z"/>
		<path class="st0" d="M328.5,21l-0.1-1.5c0.8,0.1,1.9,0.1,2.2,0.1s0.6-0.1,0.8-0.4c0.5-0.6,0.9-3.9,1.2-10.5h-5
			c-0.5,1.1-1.3,2.2-1.9,3c-0.2-0.2-0.4-0.4-0.6-0.5v7.3H319V7.1h1.9c0.3-0.8,0.7-2.2,0.8-3l1.9,0.3c-0.3,0.8-0.8,1.9-1.1,2.7h2.6
			v2.5c1.1-1.5,1.9-3.6,2.5-5.6l1.6,0.4c-0.2,0.9-0.5,1.9-0.8,2.7h5.9c0,0,0,0.5,0,0.8c-0.3,7.8-0.7,11.3-1.4,12.2
			c-0.4,0.5-0.8,0.8-1.5,0.8S329.6,21,328.5,21z M323.6,11.7V8.6h-3v3.1C320.6,11.7,323.6,11.7,323.6,11.7z M323.6,16.9v-3.7h-3v3.7
			H323.6z M331.2,14h-5v-1.5h5V14z"/>
		<path class="st0" d="M346.4,21h-1.8v-6.6c-1.7,2.2-4,4.4-6.4,5.6l-0.9-1.5c2.2-0.9,4.9-3.4,6.4-5.5h-6v-1.6h6.9V8.6H339V6.9h5.6
			V4.1h1.8V7h5.7v1.6h-5.7v2.9h7v1.6h-6.2c1.5,2.1,4.2,4.6,6.4,5.5l-0.8,1.6c-2.3-1.2-4.7-3.6-6.4-5.7V21L346.4,21z"/>
		<path class="st0" d="M366,21h-1.8v-5.9c-1.7,2-4,4.2-6.3,5.2l-0.8-1.6c2.6-1,5.6-3.9,7.2-6.3V8.1h-6.6V6.5h6.6V4.1h1.8v2.4h6.9
			v1.6h-7v4.2c0.2,0.3,0.3,0.5,0.5,0.8c1.2-1,1.9-2.9,2.3-4.8l1.6,0.3c-0.2,0.7-0.4,1.5-0.6,2c0.4,0.2,0.8,0.5,1.2,0.8l0.2,0.2
			c0.8,0.6,1.5,1.2,1.9,1.6l-1.2,1.2c-0.5-0.6-1.7-1.6-2.6-2.4c-0.4,0.7-0.9,1.4-1.4,1.9c-0.3-0.2-0.8-0.6-1.2-0.8
			c1.6,2.2,4.3,4.6,6.7,5.4l-0.8,1.7c-2.5-1.1-4.8-3.2-6.4-5.3L366,21L366,21z M358.5,15l-1.1-1.2c1.5-1.1,2.7-3.2,3.2-5.4l1.6,0.3
			c-0.2,0.7-0.4,1.5-0.7,2.1c0.7,0.6,1.5,1.4,1.9,1.9l-1.2,1.2c-0.3-0.4-0.9-1-1.5-1.5C360.3,13.2,359.4,14.3,358.5,15z"/>
		<path class="st0" d="M392.4,8.4h-16V7h4.2c-0.3-0.6-1-1.5-1.5-2.2l1.5-0.5c0.7,0.7,1.5,1.8,1.8,2.4l-1,0.3h5.6l-0.6-0.3
			C387,6,387.6,4.9,388,4l1.8,0.5c-0.2,0.2-0.3,0.5-0.5,0.7v0.2c-0.4,0.5-0.8,1.1-1.2,1.5h4.3L392.4,8.4L392.4,8.4z M380.6,21.1
			l-0.1-1.5c0.5,0,1.2,0,1.4,0c0.2,0,0.3-0.2,0.3-0.4v-5.5l-0.6,0.9c-0.5-0.4-1.6-1.1-2.5-1.4l0.8-0.9c0.8,0.3,1.8,0.8,2.3,1.3v-2.3
			h-3.1v4.8l0.7-0.8c0.9,0.4,1.9,1,2.4,1.5l-0.7,1c-0.5-0.5-1.5-1.2-2.4-1.5V21h-1.6V10h6.3v9.3c0,0.8-0.2,1.2-0.7,1.5
			C382.6,21,381.9,21.1,380.6,21.1z M387.2,17.6h-1.5v-7.5h1.5V17.6z M387,21.1l-0.1-1.5c0.5,0,1.2,0,1.6,0h0.2c0.1,0,0.2,0,0.2,0
			c0.3,0,0.4-0.2,0.4-0.4V9.6h1.6v9.5c0,0.8-0.2,1.5-0.8,1.7C389.7,21,388.6,21.1,387,21.1z"/>
		<path class="st0" d="M396.2,20.9c-0.2-0.4-0.9-0.9-1.3-1.2c1.1-2.2,1.3-5.6,1.3-7.8V5.6l0.9,0.3c1.6-0.4,3.5-1,4.6-1.5l1.4,1.2
			c-1.5,0.6-3.5,1.2-5.2,1.5v1.4h5.1v5.9h-5.2C397.7,16.4,397.2,19.2,396.2,20.9z M401.4,12.9V10h-3.5v2.1c0,0.1,0,0.2,0,0.3v0.2
			c0,0.2,0,0.2,0,0.4L401.4,12.9L401.4,12.9z M409.9,21h-1.7v-9.3h-2.5c-0.1,2.7-0.8,6.8-3.2,9.3c-0.2-0.4-0.8-1-1.2-1.2
			c2.4-2.5,2.8-6.6,2.8-9.2V5.7l1.3,0.3c1.7-0.5,3.6-1.2,4.6-1.8l1.5,1.2c-1.5,0.8-3.9,1.5-5.8,1.9V10h6v1.6h-1.9L409.9,21L409.9,21
			z"/>
	</g>
</g>
<g>
	<g>
		<path class="st0" d="M174.6,49.1V37.9h3V49c0,2.4,1.7,3.5,3.8,3.5s3.9-1.1,3.9-3.5V37.9h3v11.2c0,3.8-2.4,5.9-6.8,5.9
			C177,54.8,174.6,52.8,174.6,49.1z"/>
		<path class="st0" d="M191,54.6V37.9h5.9c3.1,0,6.9,0.5,6.9,5.2s-3.7,5.2-6.9,5.2H194v6.4L191,54.6L191,54.6z M194,45.8h2.9
			c1.9,0,3.9-0.2,3.9-2.8c0-2.7-1.9-2.8-3.9-2.8H194V45.8L194,45.8z"/>
		<path class="st0" d="M205.3,54.6V37.9h2.9v14.2h8.4v2.5L205.3,54.6L205.3,54.6z"/>
		<path class="st0" d="M216.8,46.2c0-5.1,2.9-8.6,8.2-8.6s8.2,3.6,8.2,8.6c0,5.1-3,8.6-8.2,8.6S216.8,51.8,216.8,46.2z M228.8,50.7
			c0.8-1.1,1.2-2.7,1.2-4.6c0-1.9-0.5-3.6-1.2-4.6c-0.8-1.2-2.1-1.7-3.7-1.7c-1.8,0-3.2,0.6-3.9,1.6S220,44.2,220,46
			c0,2,0.5,3.6,1.2,4.6c0.8,1.2,2.3,1.7,3.9,1.7C226.7,52.4,228,51.9,228.8,50.7z"/>
		<path class="st0" d="M245.6,54.6l-1.5-4.4h-6.6l-1.5,4.4h-3.2l6.4-16.7h3.1l6.4,16.7H245.6z M238.3,47.7h4.8l-1.4-4
			c-0.3-0.9-0.7-2-1-3l0,0c-0.3,1.2-0.6,2-0.9,3L238.3,47.7z"/>
		<path class="st0" d="M249.9,54.6V37.9h5.9c5.2,0,8.3,3.3,8.3,8.4c0,5.2-3.1,8.3-8.3,8.3C255.8,54.6,249.9,54.6,249.9,54.6z
			 M252.9,52.1h2.7c1.9,0,3.4-0.5,4.2-1.6s1.1-2.5,1.1-4.3c0-1.9-0.2-3.1-1.1-4.2s-2.3-1.7-4.2-1.7h-2.7V52.1L252.9,52.1z"/>
		<path class="st0" d="M269.9,46.2c0-5.1,2.9-8.6,8.2-8.6c3.6,0,6.6,1.8,7.5,5.5l-3.1,0.6c-0.5-2.1-1.9-3.6-4.3-3.6
			c-1.7,0-3.1,0.5-3.9,1.5c-0.8,1.1-1.2,2.6-1.2,4.6s0.3,3.4,1,4.6c0.8,1.2,2.2,1.7,4,1.7c2.5,0,3.9-1.5,4.4-3.4l3.2,0.8
			c-1.3,3.2-3.9,4.9-7.6,4.9C273,54.8,269.9,51.8,269.9,46.2z"/>
		<path class="st0" d="M286.5,46.2c0-5.1,2.9-8.6,8.2-8.6s8.2,3.6,8.2,8.6c0,5.1-3,8.6-8.2,8.6C289.5,54.8,286.5,51.8,286.5,46.2z
			 M298.5,50.7c0.8-1.1,1.2-2.7,1.2-4.6c0-1.9-0.5-3.6-1.2-4.6c-0.8-1.2-2.1-1.7-3.7-1.7c-1.8,0-3.2,0.6-3.9,1.6
			c-0.7,1-1.2,2.8-1.2,4.6c0,2,0.5,3.6,1.2,4.6c0.8,1.2,2.3,1.7,3.9,1.7C296.4,52.4,297.7,51.9,298.5,50.7z"/>
		<path class="st0" d="M304.9,54.6V37.9h4.6l2.7,8.6c0.6,2.1,1.2,3.9,1.5,5.1l0,0c0.3-1.2,0.9-3.4,1.5-5.1l2.7-8.6h4.6v16.7h-2.9
			v-9.9c0-0.6,0.1-2.8,0.1-4.2h-0.1c-0.5,1.9-1.1,3.7-1.3,4.6l-3.1,9.6H312l-3.1-9.6c-0.2-0.8-0.8-2.9-1.3-4.5h-0.1
			c0,1.5,0.1,3.7,0.1,4.3v9.8h-2.7V54.6z"/>
		<path class="st0" d="M325.4,54.6V37.9h5.9c3.1,0,6.9,0.5,6.9,5.2s-3.7,5.2-6.9,5.2h-2.9v6.4L325.4,54.6L325.4,54.6z M328.5,45.8
			h2.9c1.9,0,3.9-0.2,3.9-2.8c0-2.7-1.9-2.8-3.9-2.8h-2.9V45.8L328.5,45.8z"/>
		<path class="st0" d="M339.6,54.6V37.9h2.9v14.2h8.4v2.5L339.6,54.6L339.6,54.6z"/>
		<path class="st0" d="M352.3,54.6V37.9h11.3v2.5h-8.4V45h7.5v2.5h-7.5v4.7h8.4v2.5L352.3,54.6L352.3,54.6z"/>
		<path class="st0" d="M370,54.6V40.4h-5.4v-2.5h13.9v2.5H373v14.2C373,54.6,370,54.6,370,54.6z"/>
		<path class="st0" d="M379.7,54.6V37.9H391v2.5h-8.3V45h7.5v2.5h-7.5v4.7h8.3v2.5L379.7,54.6L379.7,54.6z"/>
		<path class="st0" d="M393.1,54.6V37.9h5.9c5.2,0,8.3,3.3,8.3,8.4c0,5.2-3.1,8.3-8.3,8.3C399.1,54.6,393.1,54.6,393.1,54.6z
			 M396.1,52.1h2.7c1.9,0,3.4-0.5,4.2-1.6c0.8-1.1,1.1-2.5,1.1-4.3c0-1.9-0.2-3.1-1.1-4.2s-2.3-1.7-4.2-1.7H396L396.1,52.1
			L396.1,52.1z"/>
		<path class="st0" d="M115.1,72.2l3.1-0.3c0,2.5,1.7,3.7,4,3.7c2.2,0,3.9-0.7,3.9-2.6c0-2-2.2-1.9-4.8-2.5c-3-0.7-5.7-1.8-5.7-4.9
			c0-3.6,3.2-4.9,6.3-4.9c3.6,0,6.3,1.4,6.7,5.3l-3,0.5c-0.1-2.3-1.5-3.5-3.7-3.5c-1.7,0-3.2,0.7-3.2,2.3c0,1.5,1.9,2,4.2,2.4
			c3.6,0.5,6.3,1.5,6.3,5.1c0,4-3.5,5.2-6.9,5.2C118.4,78,115.2,76.2,115.1,72.2z"/>
		<path class="st0" d="M131.1,77.8V61h11.3v2.5h-8.3V68h7.5v2.5h-7.5v4.7h8.4v2.5L131.1,77.8L131.1,77.8z"/>
		<path class="st0" d="M156,77.8l-1.5-4.4h-6.6l-1.5,4.4h-3.2l6.4-16.7h3.1l6.4,16.7C159.2,77.8,156,77.8,156,77.8z M148.8,70.8h4.8
			l-1.4-4c-0.3-0.9-0.7-2-1-3l0,0c-0.3,1.2-0.6,2-0.9,3L148.8,70.8z"/>
		<path class="st0" d="M173.8,77.7L173.8,77.7l-3.2,0.1c-0.5-0.8-0.7-1.6-0.7-3.9c0-2-0.9-2.8-3.2-2.8h-3.2v6.6h-3V61h6.2
			c3.3,0,6.6,0.6,6.6,5c0,2.1-1.1,3.5-2.6,4.1c1.6,0.6,2.2,1.9,2.2,3.6S173,76.6,173.8,77.7z M166.4,68.7c2,0,3.9-0.2,3.9-2.6
			c0-2.5-1.9-2.7-3.9-2.7h-3v5.3H166.4z"/>
		<path class="st0" d="M174.7,69.4c0-5.1,2.9-8.6,8.2-8.6c3.6,0,6.6,1.8,7.5,5.5l-3.1,0.6c-0.5-2.1-1.9-3.6-4.3-3.6
			c-1.7,0-3.1,0.5-3.9,1.6c-0.8,1.1-1.2,2.6-1.2,4.7c0,2,0.3,3.4,1,4.6c0.8,1.2,2.2,1.7,4,1.7c2.5,0,3.9-1.5,4.4-3.4l3.2,0.8
			c-1.3,3.2-3.9,4.9-7.6,4.9C177.7,78,174.7,74.9,174.7,69.4z"/>
		<path class="st0" d="M192.1,77.8V61h3v7h7.3v-7h3v16.7h-3v-7.2h-7.3v7.2C195.1,77.8,192.1,77.8,192.1,77.8z"/>
		<path class="st0" d="M213.1,77.8V61h11.3v2.5H216V68h7.5v2.5H216v7.3H213.1L213.1,77.8z"/>
		<path class="st0" d="M224.9,69.4c0-5.1,2.9-8.6,8.2-8.6c5.2,0,8.2,3.6,8.2,8.6c0,5.1-3,8.6-8.2,8.6C228,78,224.9,74.9,224.9,69.4z
			 M237,73.9c0.8-1.1,1.2-2.7,1.2-4.6s-0.5-3.6-1.2-4.6c-0.8-1.2-2.1-1.7-3.7-1.7c-1.8,0-3.2,0.6-3.9,1.6c-0.7,1-1.2,2.8-1.2,4.6
			c0,2,0.5,3.6,1.2,4.6c0.8,1.2,2.3,1.7,3.9,1.7C234.9,75.6,236.2,75.1,237,73.9z"/>
		<path class="st0" d="M256.7,77.7L256.7,77.7l-3.2,0.1c-0.5-0.8-0.7-1.6-0.7-3.9c0-2-0.9-2.8-3.2-2.8h-3.2v6.6h-3V61h6.2
			c3.3,0,6.6,0.6,6.6,5c0,2.1-1.1,3.5-2.6,4.1c1.6,0.6,2.2,1.9,2.2,3.6S256,76.6,256.7,77.7z M249.3,68.7c2,0,3.9-0.2,3.9-2.6
			c0-2.5-1.9-2.7-3.9-2.7h-3v5.3H249.3z"/>
		<path class="st0" d="M267.7,77.8v-7l-5.9-9.7h3.4l2.3,4.2c0.2,0.5,1.1,2,1.6,3.2c0.6-1.2,1.2-2.2,1.7-3.2l2.3-4.2h3.4l-5.9,9.7v7
			H267.7z"/>
		<path class="st0" d="M275.9,69.4c0-5.1,2.9-8.6,8.2-8.6c5.2,0,8.2,3.6,8.2,8.6c0,5.1-3,8.6-8.2,8.6S275.9,74.9,275.9,69.4z
			 M287.9,73.9c0.8-1.1,1.2-2.7,1.2-4.6s-0.5-3.6-1.2-4.6c-0.8-1.2-2.1-1.7-3.7-1.7c-1.8,0-3.2,0.6-3.9,1.6c-0.7,1-1.2,2.8-1.2,4.6
			c0,2,0.5,3.6,1.2,4.6c0.8,1.2,2.3,1.7,3.9,1.7C285.8,75.6,287.1,75.1,287.9,73.9z"/>
		<path class="st0" d="M294.1,72.2V61h3v11.1c0,2.4,1.7,3.5,3.8,3.5c2.1,0,3.9-1.1,3.9-3.5V61h3v11.2c0,3.8-2.4,5.9-6.8,5.9
			C296.4,78,294.1,76,294.1,72.2z"/>
		<path class="st0" d="M323.9,77.7L323.9,77.7l-3.2,0.1c-0.5-0.8-0.7-1.6-0.7-3.9c0-2-0.9-2.8-3.2-2.8h-3.2v6.6h-3V61h6.2
			c3.3,0,6.6,0.6,6.6,5c0,2.1-1.1,3.5-2.6,4.1c1.6,0.6,2.2,1.9,2.2,3.6S323.1,76.6,323.9,77.7z M316.4,68.7c2,0,3.9-0.2,3.9-2.6
			c0-2.5-1.9-2.7-3.9-2.7h-3v5.3H316.4z"/>
		<path class="st0" d="M330.5,77.8V61h11.3v2.5h-8.4V68h7.5v2.5h-7.5v7.3H330.5L330.5,77.8z"/>
		<path class="st0" d="M343.3,72.2V61h3v11.1c0,2.4,1.7,3.5,3.8,3.5c2.1,0,3.9-1.1,3.9-3.5V61h3v11.2c0,3.8-2.4,5.9-6.8,5.9
			C345.7,78,343.3,76,343.3,72.2z"/>
		<path class="st0" d="M363.5,77.8V63.6h-5.4V61H372v2.5h-5.5v14.2h-3V77.8z"/>
		<path class="st0" d="M373.1,72.2V61h3v11.1c0,2.4,1.7,3.5,3.8,3.5c2.1,0,3.9-1.1,3.9-3.5V61h3v11.2c0,3.8-2.4,5.9-6.8,5.9
			S373.1,76,373.1,72.2z"/>
		<path class="st0" d="M402.9,77.7L402.9,77.7l-3.2,0.1c-0.5-0.8-0.7-1.6-0.7-3.9c0-2-0.9-2.8-3.2-2.8h-3.2v6.6h-3V61h6.2
			c3.3,0,6.7,0.6,6.7,5c0,2.1-1.1,3.5-2.6,4.1c1.6,0.6,2.2,1.9,2.2,3.6S402.2,76.6,402.9,77.7z M395.5,68.7c2,0,3.9-0.2,3.9-2.6
			c0-2.5-1.9-2.7-3.9-2.7h-3v5.3H395.5z"/>
		<path class="st0" d="M404.8,77.8V61h11.3v2.5h-8.3V68h7.5v2.5h-7.5v4.7h8.3v2.5L404.8,77.8L404.8,77.8z"/>
		<path class="st0" d="M423.2,77.8V61h2.9v14.2h8.4v2.5L423.2,77.8L423.2,77.8z"/>
		<path class="st0" d="M435.7,77.8V61h3v16.7C438.8,77.8,435.7,77.8,435.7,77.8z"/>
		<path class="st0" d="M441.6,77.8V61H453v2.5h-8.4V68h7.5v2.5h-7.5v7.3H441.6L441.6,77.8z"/>
		<path class="st0" d="M454.3,77.8V61h11.3v2.5h-8.4V68h7.5v2.5h-7.5v4.7h8.4v2.5L454.3,77.8L454.3,77.8z"/>
	</g>
</g>
</svg>
