<?xml version="1.0" encoding="utf-8"?>
<!-- Generator: Adobe Illustrator 27.4.1, SVG Export Plug-In . SVG Version: 6.00 Build 0)  -->
<svg version="1.1" id="Layer_1" xmlns="http://www.w3.org/2000/svg" xmlns:xlink="http://www.w3.org/1999/xlink" x="0px" y="0px"
	 viewBox="0 0 581.3 297.5" style="enable-background:new 0 0 581.3 297.5;" xml:space="preserve">
<style type="text/css">
	.st0{fill:#CBC8CD;}
	.st1{fill:none;stroke:#CBC8CD;stroke-width:3;stroke-miterlimit:10;}
	.st2{fill:#CACACA;}
</style>
<g>
	<g>
		<path class="st0" d="M80.4,80.6V58.9h3.9v21.7C84.3,80.6,80.4,80.6,80.4,80.6z"/>
		<path class="st0" d="M93.1,69.8c0-6.6,3.8-11.2,10.6-11.2c4.6,0,8.5,2.3,9.7,7.1l-4,0.8c-0.6-2.7-2.4-4.7-5.6-4.7
			c-2.2,0-4,0.6-5,2c-1,1.4-1.5,3.4-1.5,6c0,2.6,0.4,4.4,1.3,5.9c1.1,1.5,2.8,2.2,5.2,2.2c3.2,0,5-1.9,5.7-4.4l4.1,1.1
			c-1.7,4.2-5.1,6.4-9.8,6.4C97,81,93.1,77,93.1,69.8z"/>
		<path class="st0" d="M114.5,69.8c0-6.6,3.8-11.2,10.6-11.2c6.8,0,10.6,4.7,10.6,11.2c0,6.6-3.9,11.2-10.6,11.2
			C118.4,81,114.5,77,114.5,69.8z M130.1,75.7c1.1-1.4,1.6-3.5,1.6-5.9c0-2.5-0.6-4.6-1.6-5.9c-1.1-1.5-2.7-2.2-4.8-2.2
			c-2.3,0-4.1,0.8-5.1,2.1c-1,1.3-1.6,3.6-1.6,6c0,2.6,0.6,4.7,1.5,5.9c1.1,1.5,2.9,2.2,5.1,2.2C127.4,77.8,129.1,77.1,130.1,75.7z"
			/>
		<path class="st0" d="M138.4,80.6V58.9h4.4l6.5,11.3c0.9,1.6,2,3.8,2.9,5.6h0c-0.1-1.9-0.2-4.8-0.2-5.9v-11h3.7v21.7h-4.4L144.6,69
			c-0.6-1.1-2-3.5-2.7-5.3h0c0.1,2.2,0.1,5.2,0.1,5.8v11.1H138.4z"/>
		<path class="st0" d="M158.1,73.5l4-0.4c0,3.2,2.2,4.8,5.2,4.8c2.8,0,5-0.9,5-3.4c0-2.6-2.9-2.5-6.2-3.2c-3.9-0.9-7.4-2.3-7.4-6.4
			c0-4.6,4.2-6.3,8.1-6.3c4.6,0,8.2,1.8,8.7,6.9l-3.9,0.7c-0.1-3-1.9-4.5-4.8-4.5c-2.2,0-4.1,0.9-4.1,3c0,2,2.4,2.6,5.4,3.1
			c4.6,0.7,8.2,1.9,8.2,6.6c0,5.2-4.5,6.7-9,6.7C162.4,81,158.1,78.6,158.1,73.5z"/>
		<path class="st0" d="M178.7,80.6V58.9h14.7v3.2h-10.9V68h9.7v3.2h-9.7v6.1h10.9v3.2L178.7,80.6L178.7,80.6z"/>
		<path class="st0" d="M196.1,80.6V58.9h4.4l6.5,11.3c0.9,1.6,2,3.8,2.9,5.6h0c-0.1-1.9-0.1-4.8-0.1-5.9v-11h3.7v21.7h-4.4L202.4,69
			c-0.6-1.1-2-3.5-2.7-5.3h0c0.1,2.2,0.2,5.2,0.2,5.8v11.1H196.1z"/>
		<path class="st0" d="M222,80.6V62.2h-7v-3.3h18v3.3h-7.1v18.4H222z"/>
		<path class="st0" d="M245.8,80.6V62.2h-7v-3.3h18v3.3h-7.1v18.4H245.8z"/>
		<path class="st0" d="M256.8,69.8c0-6.6,3.8-11.2,10.6-11.2c6.8,0,10.6,4.7,10.6,11.2c0,6.6-3.9,11.2-10.6,11.2
			C260.8,81,256.8,77,256.8,69.8z M272.4,75.7c1-1.4,1.5-3.5,1.5-5.9c0-2.5-0.6-4.6-1.5-5.9c-1-1.5-2.7-2.2-4.8-2.2
			c-2.3,0-4.1,0.8-5,2.1c-1,1.3-1.6,3.6-1.6,6c0,2.6,0.6,4.7,1.5,5.9c1.1,1.5,3,2.2,5,2.2C269.7,77.8,271.4,77.1,272.4,75.7z"/>
		<path class="st0" d="M291.8,80.6V62.2h-7v-3.3h18v3.3h-7.1v18.4H291.8z"/>
		<path class="st0" d="M304.4,80.6V58.9h3.9V68h9.5v-9.1h3.9v21.7h-3.9v-9.3h-9.5v9.3C308.3,80.6,304.4,80.6,304.4,80.6z"/>
		<path class="st0" d="M325.4,80.6V58.9h14.7v3.2h-10.9V68h9.7v3.2h-9.7v6.1h10.9v3.2L325.4,80.6L325.4,80.6z"/>
		<path class="st0" d="M348.9,73.4V58.9h3.9v14.4c0,3.1,2.2,4.5,4.9,4.5c2.7,0,5-1.4,5-4.5V58.9h3.9v14.5c0,4.9-3.1,7.6-8.8,7.6
			S348.9,78.3,348.9,73.4z"/>
		<path class="st0" d="M368.8,73.5l4-0.4c0,3.2,2.2,4.8,5.2,4.8c2.8,0,5-0.9,5-3.4c0-2.6-2.9-2.5-6.2-3.2c-3.9-0.9-7.4-2.3-7.4-6.4
			c0-4.6,4.2-6.3,8.1-6.3c4.6,0,8.2,1.8,8.7,6.9l-3.9,0.7c-0.1-3-1.9-4.5-4.8-4.5c-2.2,0-4.1,0.9-4.1,3c0,2,2.4,2.6,5.4,3.1
			c4.6,0.7,8.2,1.9,8.2,6.6c0,5.2-4.5,6.7-9,6.7C373.1,81,368.9,78.6,368.8,73.5z"/>
		<path class="st0" d="M389.5,80.6V58.9h14.7v3.2h-10.8V68h9.7v3.2h-9.7v6.1h10.8v3.2L389.5,80.6L389.5,80.6z"/>
		<path class="st0" d="M412,69.8c0-6.6,3.8-11.2,10.6-11.2c6.8,0,10.6,4.7,10.6,11.2c0,6.6-3.9,11.2-10.6,11.2
			C415.9,81,412,77,412,69.8z M427.6,75.7c1-1.4,1.5-3.5,1.5-5.9c0-2.5-0.6-4.6-1.5-5.9c-1-1.5-2.7-2.2-4.8-2.2
			c-2.3,0-4.1,0.8-5,2.1c-1,1.3-1.6,3.6-1.6,6c0,2.6,0.6,4.7,1.5,5.9c1.1,1.5,3,2.2,5,2.2C424.9,77.8,426.6,77.1,427.6,75.7z"/>
		<path class="st0" d="M435.9,80.6V58.9h14.7v3.2h-10.9V68h9.7v3.2h-9.7v9.4L435.9,80.6L435.9,80.6z"/>
		<path class="st0" d="M459,80.6V58.9h6l3.5,11.2c0.8,2.7,1.5,5,1.9,6.6h0c0.4-1.6,1.2-4.4,1.9-6.6l3.5-11.2h6v21.7h-3.7V67.9
			c0-0.8,0.1-3.6,0.1-5.5h-0.1c-0.7,2.5-1.4,4.8-1.7,5.9l-4,12.4h-4.2l-4-12.5c-0.3-1.1-1.1-3.7-1.7-5.8h-0.1c0,1.9,0.1,4.8,0.1,5.6
			v12.7H459z"/>
		<path class="st0" d="M491.1,80.6v-9.1l-7.6-12.6h4.4l3,5.4c0.3,0.6,1.4,2.6,2.1,4.1c0.8-1.5,1.5-2.9,2.2-4.1l3-5.4h4.4l-7.7,12.6
			v9.1H491.1z"/>
		<path class="st0" d="M142.2,110.6V88.9h3.8v18.4h10.9v3.3L142.2,110.6L142.2,110.6z"/>
		<path class="st0" d="M158.6,110.6V88.9h3.9v21.7C162.5,110.6,158.6,110.6,158.6,110.6z"/>
		<path class="st0" d="M179.2,110.6l-6.8-9.9l-2.4,2.4v7.5h-3.9V88.9h3.9v9.3l8.9-9.3h5l-8.8,9l8.9,12.7H179.2z"/>
		<path class="st0" d="M185.3,110.6V88.9h14.7v3.2h-10.9V98h9.7v3.2h-9.7v6.1h10.9v3.2L185.3,110.6L185.3,110.6z"/>
		<path class="st0" d="M202.7,110.6V88.9h4.4l6.5,11.3c0.9,1.6,2,3.8,2.9,5.6h0c-0.1-1.9-0.1-4.8-0.1-5.9v-11h3.7v21.7h-4.4L209,99
			c-0.6-1.1-2-3.5-2.7-5.3h0c0.1,2.2,0.2,5.2,0.2,5.8v11.1C206.4,110.6,202.7,110.6,202.7,110.6z"/>
		<path class="st0" d="M223.7,110.6V88.9h14.7v3.2h-10.9V98h9.7v3.2h-9.7v6.1h10.9v3.2L223.7,110.6L223.7,110.6z"/>
		<path class="st0" d="M239.5,103.5l4-0.4c0,3.2,2.2,4.8,5.2,4.8c2.8,0,5-0.9,5-3.4c0-2.6-2.9-2.5-6.2-3.2c-3.9-0.9-7.4-2.3-7.4-6.4
			c0-4.6,4.2-6.3,8.1-6.3c4.6,0,8.2,1.8,8.7,6.9l-3.9,0.7c-0.1-3-1.9-4.5-4.8-4.5c-2.2,0-4.1,0.9-4.1,3c0,2,2.4,2.6,5.4,3.1
			c4.6,0.7,8.2,1.9,8.2,6.6c0,5.2-4.5,6.7-9,6.7C243.8,111,239.5,108.6,239.5,103.5z"/>
		<path class="st0" d="M259,103.5l4-0.4c0,3.2,2.2,4.8,5.2,4.8c2.8,0,5-0.9,5-3.4c0-2.6-2.9-2.5-6.2-3.2c-3.9-0.9-7.4-2.3-7.4-6.4
			c0-4.6,4.2-6.3,8.1-6.3c4.6,0,8.2,1.8,8.7,6.9l-3.9,0.7c-0.1-3-1.9-4.5-4.8-4.5c-2.2,0-4.1,0.9-4.1,3c0,2,2.4,2.6,5.4,3.1
			c4.6,0.7,8.2,1.9,8.2,6.6c0,5.2-4.5,6.7-9,6.7C263.3,111,259,108.6,259,103.5z"/>
		<path class="st0" d="M285.6,103.4V88.9h3.9v14.4c0,3.1,2.2,4.5,4.9,4.5c2.7,0,5-1.4,5-4.5V88.9h3.9v14.5c0,4.9-3.1,7.6-8.8,7.6
			S285.6,108.3,285.6,103.4z"/>
		<path class="st0" d="M306.8,110.6V88.9h7.7c4,0,8.9,0.7,8.9,6.7c0,6-4.8,6.7-8.9,6.7h-3.8v8.3L306.8,110.6L306.8,110.6z
			 M310.7,99.2h3.8c2.5,0,5.1-0.2,5.1-3.6c0-3.5-2.5-3.6-5-3.6h-3.8V99.2z"/>
		<path class="st0" d="M325.3,110.6V88.9h3.8v18.4H340v3.3L325.3,110.6L325.3,110.6z"/>
		<path class="st0" d="M340.1,99.8c0-6.6,3.8-11.2,10.6-11.2c6.8,0,10.6,4.7,10.6,11.2c0,6.6-3.9,11.2-10.6,11.2
			C344,111,340.1,107,340.1,99.8z M355.7,105.7c1-1.4,1.5-3.5,1.5-5.9c0-2.5-0.6-4.6-1.5-5.9c-1-1.5-2.7-2.2-4.8-2.2
			c-2.3,0-4.1,0.8-5,2.1s-1.6,3.6-1.6,6c0,2.6,0.6,4.7,1.5,5.9c1.1,1.5,3,2.2,5,2.2C353,107.8,354.7,107.1,355.7,105.7z"/>
		<path class="st0" d="M377.4,110.6l-2-5.7h-8.5l-2,5.7h-4.1l8.3-21.7h4l8.3,21.7C381.5,110.6,377.4,110.6,377.4,110.6z
			 M368.1,101.6h6.2l-1.8-5.2c-0.4-1.2-0.9-2.6-1.3-3.9h0c-0.4,1.5-0.8,2.6-1.2,3.9L368.1,101.6z"/>
		<path class="st0" d="M383.1,110.6V88.9h7.7c6.8,0,10.7,4.3,10.7,10.8c0,6.8-4,10.8-10.7,10.8H383.1z M387,107.5h3.5
			c2.5,0,4.4-0.7,5.4-2.1c1-1.4,1.4-3.2,1.4-5.6c0-2.4-0.3-4-1.4-5.6s-3-2.2-5.5-2.2H387L387,107.5L387,107.5z"/>
		<path class="st0" d="M404,110.6V88.9h14.7v3.2h-10.8V98h9.7v3.2h-9.7v6.1h10.8v3.2L404,110.6L404,110.6z"/>
		<path class="st0" d="M421.4,110.6V88.9h7.7c6.8,0,10.7,4.3,10.7,10.8c0,6.8-4,10.8-10.7,10.8H421.4z M425.3,107.5h3.5
			c2.5,0,4.4-0.7,5.4-2.1c1-1.4,1.4-3.2,1.4-5.6c0-2.4-0.3-4-1.4-5.6s-3-2.2-5.5-2.2h-3.5L425.3,107.5L425.3,107.5z"/>
	</g>
</g>
<g>
	<g>
		<path class="st0" d="M177.1,37.6h-2.3v-4.4h-4.1V31h4.1v-6.4c-2,3.6-5,7.4-8.3,9.4l-1.2-2c3.1-1.7,6.4-5.7,8.2-9.4H166v-2.2h8.9
			v-4.7h2.3v4.7h9l0,2.2h-7.6c1.8,3.6,5.1,7.6,8.3,9.2l-1.3,2.1c-3.4-1.9-6.4-5.7-8.4-9.3V31h4v2.2h-4L177.1,37.6L177.1,37.6z"/>
		<path class="st0" d="M209.8,37.5c-5.7-2.7-8.5-8.9-9.6-13.2c-1.1,4.3-3.7,10.1-9.2,13.2l-1.3-2c8.8-4.7,8.9-16.2,9.1-19.2h2.4
			c0,0.3,0,0.7-0.1,1.1c0.2,3,1.7,14.2,9.9,18L209.8,37.5z"/>
		<path class="st0" d="M217.7,37.7h-2.1V16.8h19.1V35c0,1.2-0.3,2-1.1,2.3c-0.7,0.3-2.1,0.4-4.3,0.4l-0.1-2.1c1,0,2.4,0.1,2.8,0.1
			c0.4,0,0.6-0.3,0.6-0.7V18.9h-14.9L217.7,37.7L217.7,37.7z M230.8,22.8h-11.3V21h11.3V22.8z M229.6,33.2h-9v-8.1h9V33.2z
			 M227.8,31.4v-4.5h-5.4v4.5H227.8z"/>
		<path class="st0" d="M241,37.1l-1.7-1.2c1.1-1.2,2.5-2.9,3.3-4.1l1.9,0.7C243.6,34,242.3,35.8,241,37.1z M260,23.4h-19.9v-1.5h5.3
			c-0.2-0.5-0.5-1.1-0.7-1.6l0.4-0.1h-3.9v-1.5h17.6v1.5h-3.4c-0.3,0.6-0.6,1.2-0.9,1.7h5.5L260,23.4L260,23.4z M251.2,34.2
			c-0.8-0.7-2.7-1.7-4-2.2L248,31h-5.2v-6.4h14.4V31h-7.7c1.1,0.5,2.4,1.2,3,1.8L251.2,34.2z M255.5,17.6h-11.1v-1.3h11.1V17.6z
			 M255,27.2v-1.3H245v1.3H255z M255,29.8v-1.3H245v1.3H255z M251.5,37.4h-1.9c-3.6,0-4.2-0.7-4.2-2.4v-2.6h2.1V35
			c0,0.5,0.1,0.7,2.2,0.7h1.7c1.9,0,1.9-0.5,2-2.1l1.8,0.3C255,36.6,254.5,37.4,251.5,37.4z M252.5,21.9c0.2-0.4,0.4-1.1,0.6-1.7
			h-6.2c0.3,0.5,0.4,1.2,0.5,1.7H252.5z M258.9,37.1c-0.7-1.2-2.6-3.2-4.1-4.3l1.6-1c1.5,1.1,3.4,3,4.2,4.2L258.9,37.1z"/>
		<path class="st0" d="M265.7,23.4l-1.3-1.7c1.8-1.1,4.2-3.3,5.3-5.1l2.2,0.7C270.5,19.5,268,21.9,265.7,23.4z M269.8,37.6h-2.2
			V22.1h6.2v-6.4h2.2v6.4h6.2V35c0,1.2-0.3,1.9-1.1,2.3c-0.8,0.3-2.1,0.3-4.3,0.3l-0.1-2.1c1,0,2.4,0,2.8,0s0.5-0.2,0.5-0.6v-2.6
			h-10.2L269.8,37.6L269.8,37.6z M280.1,26.3v-2.2h-10.2v2.2H280.1z M280.1,30.5v-2.3h-10.2v2.3H280.1z M283.7,23.1
			c-1.1-1.5-3.6-3.8-5.6-5.4l1.7-1.2c2.1,1.4,4.6,3.6,5.7,5.1L283.7,23.1z"/>
		<path class="st0" d="M293.4,37.6h-2.1V24.8c-0.6,0.9-1.3,1.9-1.9,2.6c-0.2-0.5-0.7-1.8-1.1-2.3c1.9-2.2,3.9-5.9,4.9-9.3l2,0.5
			c-0.3,0.9-0.6,1.8-1.1,2.7l-0.1,0.2c-0.2,0.5-0.5,1.1-0.7,1.6L293.4,37.6L293.4,37.6z M300.8,37.7c-0.5,0-1.1,0-2-0.1v-1.8
			c0.4,0,1.1,0.1,1.6,0.1c0.5,0,1-0.1,1.3-0.5c0.5-0.4,0.8-1.6,0.6-2.7c-1.9,1.5-4.6,3.4-7,4.3l-0.8-1.8c2.3-0.7,5.4-2.8,7.2-4.5
			c-0.1-0.5-0.2-0.8-0.4-1.1c-1.6,1.1-3.8,2.5-5.7,3.2l-0.6-1.5c1.6-0.5,4.1-1.8,5.6-2.9c-0.3-0.3-0.6-0.6-0.8-0.9
			c-1.3,0.8-2.6,1.4-4.1,2l-0.7-1.6c1.5-0.5,3.4-1.4,5-2.3h-4.1v-3.3l-0.2,0.2c-0.4-0.4-0.9-1-1.4-1.3c2.2-1.5,3.8-3.8,4.7-5.5
			l2.1,0.4c-0.2,0.3-0.4,0.7-0.6,1h3.9l0.4-0.1l1.3,0.9c-0.4,0.7-1,1.6-1.6,2.4h5.1v5.3h-4.6c0.3,1,0.6,2.2,1,3.1
			c0.3-0.3,0.7-0.5,1-0.8l0.2-0.2c0.6-0.5,1.2-1,1.6-1.4l1.5,1.2c-1,0.9-2.6,2.1-3.6,2.7c0.9,1.9,2.4,3.7,3.9,4.5l-1.2,1.8
			c-3.1-2-5.2-6.4-6.2-11.1h-0.5c-0.4,0.3-0.8,0.8-1.2,1.1c3.7,3.1,3.7,8.6,2,10.1C302.4,37.4,301.7,37.6,300.8,37.7z M301.4,24.1
			v-2.4h-3.7v2.4H301.4z M302.1,20.3c0.4-0.4,0.6-1,0.9-1.6h-3.9c-0.1,0.2-0.3,0.4-0.5,0.6l-0.1,0.2c-0.2,0.2-0.4,0.5-0.6,0.7
			L302.1,20.3L302.1,20.3z M307.2,24.1v-2.4h-4v2.4H307.2z"/>
		<path class="st0" d="M319.3,37.7h-2V24.1c-0.7,1-1.6,2-2.2,2.5l-1.5-1.9c2.4-2.2,4.9-5.9,6.1-9.2l2,0.7c-0.6,1.5-1.5,3.2-2.4,4.7
			L319.3,37.7L319.3,37.7z M321.1,37.8l-0.7-2c1.7-0.4,3.1-1.3,4.1-2.2c-1.2-1-2.4-2.5-3.1-3.8l1.8-0.5c0.6,1,1.6,2.1,2.6,2.9
			c0.6-0.9,0.9-2.3,1.1-3.4h-5.4v-6.6h5.5v-2.1H321v-2h5.9v-2.3h2v2.3h6.6v2H329v2.1h5.9v6.6h-6c-0.2,1.5-0.4,3.2-1.2,4.5
			c2.2,1.1,5.1,2.1,7.9,2.4l-0.5,2.1c-3.5-0.5-6.4-1.5-8.6-2.9C325.2,35.9,323.6,37.1,321.1,37.8z M326.9,27v-3.1h-3.5V27H326.9z
			 M332.7,27v-3.1h-3.8V27H332.7z"/>
		<path class="st0" d="M341.1,37.8c-0.3-0.4-1.2-1.2-1.7-1.5c2.4-2.7,2.9-7.4,2.9-10.6v-8.5h17v17.6c0,1.2-0.3,2-1.1,2.3
			c-0.8,0.3-2.3,0.4-4.7,0.4l-0.1-2.1c1,0,2.4,0,3,0h0.2c0.4,0,0.6-0.3,0.6-0.7v-4.4h-5.5v7h-2.2v-7h-5.2
			C343.8,32.8,342.8,36,341.1,37.8z M349.4,28.3v-3.6h-4.9v1c0,0.8,0,1.8-0.1,2.6H349.4z M349.4,22.7v-3.3h-4.9v3.3H349.4z
			 M357.1,22.7v-3.3h-5.5v3.3H357.1z M357.1,28.3v-3.6h-5.5v3.6H357.1z"/>
		<path class="st0" d="M385.2,36.5h-20.8v-2.2h8.5V16h2.3v7h8.3v2.1h-8.3v9.1h10V36.5z"/>
		<path class="st0" d="M402.4,37.7h-0.3l-0.1-1.9c1,0.1,2.1,0.1,2.5,0.1c0.3,0,0.4-0.2,0.4-0.5v-3H399c1,0.8,2.1,2.2,2.7,3l-1.7,1.2
			c-0.5-0.8-1.8-2.4-2.9-3.3l1.2-0.8H395v-1.7h9.9v-1.4h-0.1l-0.4,0c-3.3,0.1-6.4,0.2-8.7,0.2l-0.2-1.7h0.2c1.6,0,3.7,0,6-0.1v-1.3
			h-5.3v-6.3h5.3V19h-6v-1.4c-0.2,0.5-0.5,1.1-0.7,1.6l-0.1,0.2l-0.1,0.2c0,0,0,0,0,0.1l-0.1,0.2c-0.3,0.5-0.5,1-0.8,1.4v16.3h-2.1
			v-13c-0.7,0.8-1.4,1.8-1.9,2.3l-1.6-1.8c2.3-2.3,4.7-5.9,5.9-9.2l2,0.6c-0.1,0.3-0.3,0.6-0.4,1h6v-1.5h1.9v1.5h6.4V19h-6.4v1.1
			h5.6v6.3h-1.4c1,0.8,2.2,2,2.7,2.7l-1.6,1c-0.2-0.3-0.5-0.6-0.8-1l-1.1,0v1.5h3.2v1.7h-3.2v3.1c0,1-0.3,1.7-1.1,1.9
			C405.3,37.7,404.1,37.7,402.4,37.7z M401.7,22.6v-1.2h-3.3v1.2H401.7z M398.3,25.2l3.3,0v-1.3h-3.3V25.2L398.3,25.2z M407.1,22.6
			v-1.2h-3.5v1.2H407.1z M403.6,25.2l3.5,0v-1.3h-3.5V25.2L403.6,25.2z M403.6,27.7l3-0.1c-0.4-0.3-0.8-0.7-1.2-1l0.3-0.2h-2.1V27.7
			z"/>
	</g>
</g>
<path class="st1" d="M474.7,293.3H103.7c-18,0-32.5-14.6-32.5-32.5l0,0c0-18,14.6-32.5,32.5-32.5h371c18,0,32.5,14.6,32.5,32.5l0,0
	C507.3,278.8,492.7,293.3,474.7,293.3z"/>
<g>
	<path class="st2" d="M229.8,244.9h5.1l11.9,31.5h-5.4l-2.8-7.9H226l-2.8,7.9h-5.3L229.8,244.9z M237.1,264.2l-1.9-5.2
		c-1.1-3.1-2.1-6.1-3-8.8h0c-0.9,2.7-1.8,5.6-3,8.9l-1.8,5.1H237.1z"/>
	<path class="st2" d="M246,260.5c0-9.7,5.8-16.4,15.5-16.4c9,0,14.2,5.8,14.5,12.8h-5.2c-0.1-4.7-3.7-8.5-9.3-8.5
		c-6.2,0-10.1,4.8-10.1,12.1c0,7.7,4.4,12.2,10.2,12.2c5.7,0,9-4.2,9.6-7.9H261v-4.2h12.5c1.6,0,2.5,0.9,2.5,2.4v13.2h-4.7l0.9-6.2
		h-0.1c-2,4.4-5.8,6.9-11.2,6.9C252.3,277.1,246,270.6,246,260.5z"/>
	<path class="st2" d="M280.6,244.9h12.7c7.2,0,11.3,3.5,11.3,8.6c0,4.1-2.6,7.1-7.2,8v0.1c3.8,1.4,5.2,4.3,6.3,8.3l1.8,6.5h-5.2
		l-1.4-5.5c-1.4-5.7-3.1-7.2-8.1-7.2h-5v12.6h-5.1L280.6,244.9L280.6,244.9z M291.2,259.5c5.4,0,8.2-1.9,8.2-5.4
		c0-3.1-2.2-4.9-6.5-4.9h-7.1v10.3H291.2z"/>
	<path class="st2" d="M308.4,244.9h22v4.2h-16.9v9.4h15.1v4.2h-15.1v9.5h16.9v4.2h-22L308.4,244.9L308.4,244.9z"/>
	<path class="st2" d="M333.3,244.9h22v4.2h-16.9v9.4h15.1v4.2h-15.1v9.5h16.9v4.2h-22L333.3,244.9L333.3,244.9z"/>
</g>
</svg>
