<?xml version="1.0" encoding="utf-8"?>
<!-- Generator: Adobe Illustrator 27.4.1, SVG Export Plug-In . SVG Version: 6.00 Build 0)  -->
<svg version="1.1" id="Layer_1" xmlns="http://www.w3.org/2000/svg" xmlns:xlink="http://www.w3.org/1999/xlink" x="0px" y="0px"
	 viewBox="0 0 682.4 412" style="enable-background:new 0 0 682.4 412;" xml:space="preserve">
<style type="text/css">
	.st0{fill:#CBC8CD;}
</style>
<g>
	<g>
		<path class="st0" d="M214.6,53.3V1.8h11.1V53c0,16,9.8,24.2,21.9,24.2S269.5,69,269.5,53V1.8h11.1v51.5c0,21.9-14.3,33.9-33,33.9
			S214.6,75.1,214.6,53.3z"/>
		<path class="st0" d="M291.7,1.8h35.7c16.7,0,28.8,9.4,28.8,25.3S344.2,52,327.5,52h-24.6v33.4h-11.1V1.8z M326.1,42
			c11.5,0,18.5-5.6,18.5-14.9s-7-15.4-18.5-15.4h-23.3V42H326.1z"/>
		<path class="st0" d="M410.2,75.5v9.9h-49.3V1.8H372v73.7H410.2z"/>
		<path class="st0" d="M405.8,43.6c0-28,19-43.6,40.9-43.6c21.9,0,40.9,15.6,40.9,43.6s-19,43.6-40.9,43.6S405.8,71.6,405.8,43.6z
			 M446.7,77.3c16.1,0,29.3-11.2,29.3-33.7S462.8,9.9,446.7,9.9s-29.3,11.2-29.3,33.7C417.4,66.1,430.6,77.3,446.7,77.3z"/>
		<path class="st0" d="M514.1,1.8h11.3l31.4,83.6h-11.7l-7.9-22.3h-35l-7.9,22.3h-11.7L514.1,1.8z M533.7,53.3L528,37
			c-2.7-7.6-5.4-15.3-8.1-22.9h-0.1c-2.7,7.6-5.4,15.3-8.1,22.9l-5.7,16.2H533.7z"/>
		<path class="st0" d="M560.2,1.8H591c23.4,0,40.9,15.1,40.9,41.8S614.4,85.4,591,85.4h-30.8V1.8z M591,75.5
			c16.5,0,29.3-10.9,29.3-31.9c0-21.3-12.8-31.9-29.3-31.9h-19.7v63.8H591z"/>
	</g>
	<g>
		<path class="st0" d="M364,160.2l-28.8-50.4h12.5l21.7,40.5h0.2l21.7-40.5h12.5l-28.9,50.4v33.2H364L364,160.2L364,160.2z"/>
		<path class="st0" d="M396.9,151.6c0-28,19-43.6,40.9-43.6c21.9,0,40.9,15.6,40.9,43.6s-19,43.6-40.9,43.6S396.9,179.5,396.9,151.6
			z M437.8,185.2c16.1,0,29.3-11.2,29.3-33.7s-13.1-33.7-29.3-33.7s-29.3,11.2-29.3,33.7C408.5,174,421.7,185.2,437.8,185.2z"/>
		<path class="st0" d="M485.2,161.2v-51.5h11.1V161c0,16,9.8,24.2,21.9,24.2S540,177,540,161v-51.2h11.1v51.5
			c0,21.9-14.3,33.9-33,33.9S485.2,183.1,485.2,161.2z"/>
		<path class="st0" d="M562.3,109.7h32.1c19.1,0,30,9.3,30,22.9c0,10.8-6.8,18.6-18.9,21v0.2c10,3.9,13.7,11.6,16.6,22.1l4.8,17.3
			h-11.5l-3.9-14.6c-4.3-16-8.7-19.9-23.2-19.9h-14.9v34.5h-11.1L562.3,109.7L562.3,109.7z M588.9,149.1c15.5,0,23.9-5.4,23.9-15.4
			c0-8.8-6.6-14-18.5-14h-20.9v29.4H588.9z"/>
	</g>
	<g>
		<g>
			<g>
				<path class="st0" d="M180.8,16.7c-1.4,0.2-2.6,0.6-3.7,1.3c-1.1,0.7-2,1.6-2.6,2.7c-0.6,1.1-0.9,2.2-0.9,3.4h-2.4
					c0-1.2,0.2-2.4,0.7-3.4s1.2-1.9,2.2-2.7c1-0.8,2.2-1.4,3.7-1.8l0.2,0.5l-17,0.1v-2.6l17,0.1l-0.2,0.5c-1.5-0.4-2.7-1-3.7-1.8
					c-1-0.8-1.7-1.7-2.2-2.7c-0.5-1-0.7-2.2-0.7-3.4h2.4c0,1.2,0.3,2.3,0.9,3.4c0.6,1.1,1.5,2,2.6,2.7c1.1,0.7,2.3,1.1,3.7,1.3V16.7
					z"/>
			</g>
			<g>
				<path class="st0" d="M158.6,26.9c-1-1-1.8-2.1-2.5-3.2c-0.7-1.2-1.2-2.4-1.5-3.7c-0.3-1.3-0.5-2.6-0.5-4s0.2-2.7,0.5-4
					c0.3-1.3,0.8-2.5,1.5-3.6c0.6-1.1,1.4-2.2,2.4-3.2c0,0,0.1-0.1,0.1-0.1c0,0,0.1,0,0.1-0.1h2.2c-0.1,0.1-0.2,0.2-0.3,0.4
					s-0.2,0.3-0.3,0.4c-0.8,1-1.5,2-2,3.1c-0.5,1.1-0.9,2.2-1.2,3.4c-0.3,1.2-0.4,2.4-0.4,3.7c0,1.5,0.2,2.8,0.5,4.1
					c0.3,1.3,0.8,2.5,1.5,3.6c0.6,1.1,1.4,2.2,2.3,3.2L158.6,26.9L158.6,26.9z"/>
			</g>
			<g>
				<path class="st0" d="M181.3,26.9c0.9-1,1.7-2,2.3-3.2c0.6-1.1,1.1-2.3,1.5-3.6s0.5-2.7,0.5-4.1c0-1.3-0.1-2.5-0.4-3.7
					s-0.7-2.3-1.2-3.4c-0.5-1.1-1.2-2.1-2-3.1c-0.1-0.1-0.2-0.3-0.3-0.4c-0.1-0.1-0.2-0.2-0.3-0.4h2.2c0,0,0.1,0.1,0.1,0.1
					c0,0,0.1,0,0.1,0.1c0.9,1,1.7,2.1,2.4,3.2s1.1,2.3,1.5,3.6c0.3,1.3,0.5,2.6,0.5,4s-0.2,2.7-0.5,4c-0.3,1.3-0.9,2.5-1.5,3.7
					c-0.7,1.2-1.5,2.2-2.5,3.2L181.3,26.9L181.3,26.9z"/>
			</g>
		</g>
	</g>
	<g>
		<path class="st0" d="M50.5,223.7H108v9.9H61.8v26.9h41.6v9.9H61.8v36.9H50.5C50.5,307.3,50.5,223.7,50.5,223.7z"/>
		<path class="st0" d="M111.2,275.2v-51.5h11.1v51.2c0,16,9.8,24.2,21.9,24.2s21.9-8.2,21.9-24.2v-51.2h11.1v51.5
			c0,21.9-14.3,33.9-33,33.9C125.5,309.1,111.2,297,111.2,275.2z"/>
		<path class="st0" d="M209.1,233.4h-28.7v-9.7h68.4v9.7h-28.7v73.9h-11.1L209.1,233.4L209.1,233.4z"/>
		<path class="st0" d="M252.1,275.2v-51.5h11.1v51.2c0,16,9.8,24.2,21.9,24.2c12.1,0,21.9-8.2,21.9-24.2v-51.2h11.1v51.5
			c0,21.9-14.3,33.9-33,33.9C266.5,309.1,252.1,297,252.1,275.2z"/>
		<path class="st0" d="M329.2,223.7h32.1c19.1,0,30,9.3,30,22.9c0,10.8-6.8,18.6-18.9,21v0.2c10,3.9,13.7,11.6,16.6,22.1l4.8,17.3
			h-11.5l-3.9-14.6c-4.3-16-8.7-19.9-23.2-19.9h-14.9v34.5h-11.1V223.7z M355.9,263c15.5,0,23.9-5.4,23.9-15.4c0-8.8-6.6-14-18.5-14
			h-20.9V263H355.9z"/>
		<path class="st0" d="M399,223.7h57.5v9.9h-46.2v26.9h41.6v9.9h-41.6v27h46.3v9.9H399V223.7z"/>
		<path class="st0" d="M99.9,402.5v9.9H50.5v-83.6h11.1v73.7H99.9z"/>
		<path class="st0" d="M103.1,328.8h11.1v83.6h-11.1V328.8z"/>
		<path class="st0" d="M125.3,328.8h57.5v9.9h-46.2v26.9h41.6v9.9h-41.6v36.9h-11.2L125.3,328.8L125.3,328.8z"/>
		<path class="st0" d="M186,328.8h57.5v9.9h-46.2v26.9h41.6v9.9h-41.6v27h46.3v9.9H186V328.8z"/>
	</g>
	<g>
		<g>
			<path class="st0" d="M293.2,341.1c-1.4,0.2-2.6,0.6-3.7,1.3c-1.1,0.7-2,1.6-2.6,2.7c-0.6,1.1-0.9,2.2-0.9,3.5h-2.4
				c0-1.3,0.2-2.4,0.7-3.4c0.5-1,1.2-1.9,2.2-2.7s2.2-1.4,3.7-1.8l0.2,0.5l-17.2,0.1v-2.6l17.2,0.1l-0.2,0.5
				c-1.5-0.4-2.7-1.1-3.7-1.8c-1-0.8-1.7-1.7-2.2-2.7c-0.5-1-0.7-2.2-0.7-3.4h2.4c0,1.2,0.3,2.4,0.9,3.5c0.6,1.1,1.5,2,2.6,2.7
				c1.1,0.7,2.4,1.2,3.7,1.3V341.1z"/>
		</g>
		<g>
			<path class="st0" d="M270.7,351.4c-1-1-1.8-2.1-2.5-3.3c-0.7-1.2-1.2-2.4-1.6-3.7c-0.4-1.3-0.5-2.6-0.5-4.1c0-1.4,0.2-2.7,0.5-4
				c0.3-1.3,0.8-2.5,1.5-3.6c0.6-1.2,1.5-2.2,2.4-3.2c0,0,0.1-0.1,0.1-0.1c0,0,0.1,0,0.1-0.1h2.2c-0.1,0.1-0.2,0.2-0.3,0.4
				c-0.1,0.1-0.2,0.3-0.3,0.4c-0.8,1-1.5,2-2.1,3.1s-1,2.2-1.2,3.4c-0.3,1.2-0.4,2.4-0.4,3.7c0,1.5,0.2,2.9,0.5,4.2
				c0.4,1.3,0.9,2.5,1.5,3.7c0.6,1.1,1.4,2.2,2.4,3.2L270.7,351.4L270.7,351.4z"/>
		</g>
		<g>
			<path class="st0" d="M293.6,351.4c0.9-1,1.7-2.1,2.4-3.2c0.6-1.1,1.2-2.4,1.5-3.7c0.4-1.3,0.5-2.7,0.5-4.2c0-1.3-0.1-2.5-0.4-3.7
				c-0.3-1.2-0.7-2.3-1.2-3.4c-0.5-1.1-1.2-2.1-2.1-3.1c-0.1-0.1-0.2-0.3-0.3-0.4c-0.1-0.1-0.2-0.3-0.3-0.4h2.2c0,0,0.1,0.1,0.1,0.1
				c0,0,0.1,0,0.1,0.1c1,1,1.8,2.1,2.4,3.2c0.6,1.2,1.1,2.4,1.5,3.6c0.3,1.3,0.5,2.6,0.5,4c0,1.4-0.2,2.7-0.5,4.1
				c-0.4,1.3-0.9,2.5-1.6,3.7c-0.7,1.2-1.5,2.3-2.5,3.3L293.6,351.4L293.6,351.4z"/>
		</g>
	</g>
</g>
</svg>
