<?xml version="1.0" encoding="utf-8"?>
<!-- Generator: Adobe Illustrator 27.4.1, SVG Export Plug-In . SVG Version: 6.00 Build 0)  -->
<svg version="1.1" id="Layer_1" xmlns="http://www.w3.org/2000/svg" xmlns:xlink="http://www.w3.org/1999/xlink" x="0px" y="0px"
	 viewBox="0 0 581.3 100.5" style="enable-background:new 0 0 581.3 100.5;" xml:space="preserve">
<style type="text/css">
	.st0{fill:#CACACA;}
</style>
<g>
	<g>
		<path class="st0" d="M154.9,23.9h-20.8v-2.2h8.5V3.5h2.3v7h8.3v2.1h-8.3v9.1h10V23.9z"/>
		<path class="st0" d="M172.2,25.2h-0.3l-0.1-1.9c1,0.1,2.1,0.1,2.5,0.1c0.3,0,0.4-0.2,0.4-0.5v-3h-5.9c1,0.8,2.1,2.2,2.7,3
			l-1.7,1.1c-0.5-0.8-1.9-2.4-2.9-3.3l1.2-0.8h-3.3v-1.7h9.9v-1.4h-0.1l-0.4,0c-3.3,0.1-6.4,0.2-8.7,0.2l-0.2-1.7h0.2
			c1.6,0,3.7,0,6-0.1v-1.3h-5.3V7.6h5.3V6.5h-6V5c-0.2,0.5-0.5,1.1-0.7,1.6l-0.1,0.2l-0.1,0.2c0,0,0,0.1,0,0.1l-0.1,0.2
			c-0.3,0.5-0.5,1-0.8,1.4v16.3h-2.1v-13c-0.6,0.8-1.4,1.8-1.9,2.3l-1.6-1.8c2.3-2.3,4.7-5.9,5.9-9.2l2,0.6c-0.1,0.3-0.3,0.7-0.4,1
			h6V3.4h1.9v1.5h6.4v1.6h-6.4v1.1h5.6v6.3h-1.4c1,0.8,2.2,2,2.7,2.7l-1.6,1c-0.2-0.3-0.5-0.6-0.8-1l-1.1,0v1.5h3.2v1.7h-3.2V23
			c0,1-0.3,1.7-1.1,1.9C175.1,25.1,173.9,25.2,172.2,25.2z M171.4,10.1V8.9h-3.3v1.2H171.4z M168.1,12.6l3.3,0v-1.3h-3.3V12.6
			L168.1,12.6z M176.8,10.1V8.9h-3.5v1.2H176.8z M173.4,12.6l3.5,0v-1.3h-3.5V12.6L173.4,12.6z M173.4,15.2l3-0.1
			c-0.4-0.3-0.8-0.7-1.2-1l0.3-0.2h-2.1L173.4,15.2L173.4,15.2z"/>
		<path class="st0" d="M184.8,25.3l-0.7-2.1c4.5-1.1,5.8-3.9,6.2-7h-5.9v-2.1h20.5v2.1h-6.6v5.6c0,0.6,0.1,0.9,1.7,0.9h1.3
			c1.6,0,1.9-0.6,1.9-2.8l2,0.3c-0.3,3.4-1,4.5-3.9,4.5h-1.5c-3.2,0-3.7-0.8-3.7-2.9v-5.6h-3.6C192,20.2,190.5,23.8,184.8,25.3z
			 M187.1,10.7h-2.2V5.6h8.5V3.2h2.3v2.3h8.6v5.1H202V7.6h-14.9L187.1,10.7L187.1,10.7z M200.6,11.8h-12V9.8h12V11.8z"/>
		<path class="st0" d="M210.9,25.3l-2-1.5c1.9-2.6,2.2-7.3,2.2-10.2V6.9h9.5c0-0.5,0-1.1-0.1-1.7V5c0-0.1,0-0.1,0-0.1V4.7
			c0-0.5,0-1,0-1.4h2.2c0,0.6,0,1.1,0,1.7v0.2c0,0.6,0,1.2,0,1.8h4.6c-0.9-0.8-2.5-1.8-3.7-2.5l1.3-1.3c1.3,0.7,3.2,1.8,4.1,2.6
			l-1.1,1.2h2.4V9h-7.4c0,0.6,0.1,1.1,0.1,1.6l0,0.3c0,0,0,0.1,0,0.1l0,0.2c0.2,2,0.5,3.9,0.9,5.4c1.1-1.7,2.1-3.9,2.7-5.9l2.2,0.5
			c-1,2.9-2.4,6-4.1,8.1c0.7,1.9,1.7,3.4,2.8,3.4c0.6,0,0.9-1.5,1.1-4l1.9,0.4c-0.4,4.5-1.3,5.8-3.1,5.8c-1.7,0-3.2-1.5-4.2-3.7
			c-1.3,1.3-2.7,2.8-4.4,3.9l-1.3-2c1.7-0.9,3.4-2.6,4.8-4.2c-0.5-1.7-0.9-4-1.2-6.3l0-0.3c0-0.3-0.1-0.7-0.1-1l0-0.3l0-0.4
			c0-0.2,0-0.4,0-0.6l0-0.2c0-0.2,0-0.3,0-0.5l0-0.3h-7.3v2.9h5.7v0.8c-0.1,4.9-0.2,7.3-0.7,7.9c-0.4,0.5-0.7,0.7-1.3,0.8
			c-0.6,0.1-1.7,0.1-3,0l0-2c0.6,0.1,1.6,0.1,1.9,0.1c0.3,0,0.4-0.1,0.6-0.3c0.2-0.3,0.4-2,0.4-5.4h-3.6
			C213.4,17.1,212.8,22.5,210.9,25.3z"/>
		<path class="st0" d="M238.3,17.6c1.9-0.7,2.9-1.8,3-3.2c-0.1,0-0.2,0-0.3,0c-1.1,0-2-0.7-2-1.9c0-1.2,0.9-1.9,2-1.9
			c1.5,0,2.3,1.2,2.3,3c0,2.7-1.7,4.7-4.4,5.6L238.3,17.6z"/>
		<path class="st0" d="M262.7,25.1h-0.4l-0.2-1.7c0.6,0,1.4,0,1.9,0h0.2c0.2,0,0.4,0,0.5,0c0.4,0,0.5-0.2,0.5-0.5v-2.6h-7.9
			c1.1,0.7,2.1,1.8,2.7,2.5l-1.4,1.3c-0.6-0.8-2.2-2.1-3.4-2.9l1-0.9h-5v-1.8h14v-1.4h-3.1v-4.9h8.8v4.9h-3.5v1.4h4.8v1.8h-4.8V23
			c0,1-0.3,1.6-1.1,1.9C265.6,25.1,264.6,25.1,262.7,25.1z M269.1,11.1h-14.6V9.6h12.5V8.4h-15.4V7h15.4V5.8h-12.4V4.3h14.5v2.5h3.1
			v1.7h-3.1V11.1z M260.9,17l-0.2,0c-0.4,0-0.8,0.1-1.3,0.1l-0.6,0.1c-0.5,0-0.9,0.1-1.4,0.1l-0.2,0c-1.9,0.1-3.7,0.3-5.2,0.3
			l-0.1-1.6c1,0,2.4-0.1,3.7-0.2v-2h-3.3v-1.5h8.5v1.5h-3.1v1.9l3.6-0.2v1.5C261.1,17,261,17,260.9,17z M268.8,15.7v-2.1h-4.6v2.1
			H268.8z"/>
		<path class="st0" d="M277.3,24.9l-0.1-1.9c0.6,0,1.6,0,1.9,0h0.1c0.3,0,0.5-0.2,0.5-0.5v-5.8l-2.9,0.8l-0.6-2.1
			c0.9-0.3,2.3-0.6,3.5-0.9V9.8h-3.2v-2h3.2V3.2h2.1v4.5h2.7v2h-2.7v4.2c0.3-0.1,0.6-0.2,1-0.3l0.2-0.1c0.5-0.1,1-0.3,1.5-0.4l0.2,2
			c-0.5,0.1-1,0.3-1.5,0.5l-0.2,0.1c-0.4,0.1-0.8,0.3-1.2,0.4v6.4c0,1.1-0.3,1.8-0.9,2.1C280.2,24.9,279.1,24.9,277.3,24.9z M295,25
			c-2-0.2-3.7-1.8-4.8-4c-1.4,1.2-3,2.6-5,3.5l-1.1-2c1.7-0.6,3.6-2.2,5.3-3.8c-0.4-1.3-0.7-3.1-1-5l0-0.3c0-0.1,0-0.1,0-0.1l0-0.4
			c0-0.1,0-0.2,0-0.3l0-0.2c0-0.2,0-0.4-0.1-0.5l0-0.2l0-0.3c0-0.1,0-0.1,0-0.1l-3.3,0.3l-0.2-2l3.3-0.3c-0.1-0.8-0.1-1.7-0.2-2.7
			l0-0.2c0-0.1,0-0.2,0-0.4V5.7c0-0.1,0-0.2,0-0.2V5.3c0-0.6-0.1-1.2-0.1-1.7l0-0.2h2.2c0,0.1,0,0.2,0,0.2v0.2c0,0.1,0,0.2,0,0.2
			v0.3c0,0.1,0,0.2,0,0.4V5c0,0.2,0,0.4,0,0.6v0.2c0,1.1,0,2.2,0.1,3.1l7.2-0.7l0.2,2l-7,0.7c0,0.2,0.1,0.5,0.1,0.7l0,0.4
			c0,0.3,0.1,0.6,0.1,0.9l0,0.2c0.1,1.3,0.3,2.5,0.6,3.5c1.2-1.5,2.5-3.4,3.2-5l1.8,1.1c-0.9,2.2-2.5,4.5-4.2,6.3
			c0.7,1.7,1.8,3.1,3,3.2c0.6,0,1-1.5,1.1-3.5l1.9,0.5C297.4,23.6,296.2,25.1,295,25z M294,8.1c-0.4-0.5-1-1.2-1.7-1.9l-0.2-0.2
			c-0.5-0.5-0.9-1-1.3-1.4l1.6-1.1c1,1,2.5,2.5,3.3,3.3L294,8.1z"/>
		<path class="st0" d="M306.2,25.1h-2.1V12.1c-0.6,0.9-1.4,1.8-1.9,2.3l-1.6-1.8c2.3-2.3,4.6-5.9,5.9-9.2l2,0.6
			c-0.6,1.6-1.5,3.3-2.4,4.9L306.2,25.1L306.2,25.1z M312.1,25.2L312,23c0.7,0,1.8,0,2,0c0.3,0,0.3-0.1,0.3-0.5v-13h-3l-0.1,0.2
			c-0.6,1.4-1.2,2.7-1.9,3.7l-1.8-1.4c1.7-2,3-5.5,3.7-8.6l2.1,0.5c-0.3,1.2-0.7,2.6-1.2,3.7h8.8l0.4-0.1l1.5,0.3
			c-0.3,1.8-0.8,3.9-1.1,5.2l-1.8-0.4c0.1-0.6,0.3-1.5,0.4-2.4l0-0.3c0-0.1,0-0.3,0-0.4h-3.9v13c0,1.1-0.1,1.9-0.8,2.2
			C315,25.1,313.9,25.2,312.1,25.2z M309.4,21.9l-1.6-1.2c1.3-1.7,2.3-4.7,2.8-7.3l2.1,0.4C312.1,16.7,310.8,20,309.4,21.9z
			 M320.4,21.8c-0.3-2-1.5-5.7-2.7-8l2-0.6c1.2,2.3,2.5,5.9,2.8,7.9L320.4,21.8z"/>
		<path class="st0" d="M339.7,25l-0.1-2c1,0.1,2.4,0.1,2.9,0.1c0.5,0,0.8-0.1,1.1-0.5c0.7-0.8,1.2-5.1,1.6-13.6h-6.5
			c-0.7,1.4-1.7,2.9-2.5,3.9c-0.2-0.2-0.5-0.5-0.8-0.7v9.4h-7.9V7.1h2.5c0.4-1.1,0.9-2.8,1-3.9l2.4,0.4c-0.4,1.1-1,2.5-1.4,3.5h3.4
			v3.2c1.4-1.9,2.5-4.6,3.2-7.2l2.1,0.5c-0.3,1.2-0.7,2.4-1.1,3.5h7.7c0,0,0,0.7,0,1c-0.4,10.1-0.9,14.6-1.8,15.8
			c-0.5,0.7-1.1,1-2,1.1C342.6,25.1,341.2,25.1,339.7,25z M333.4,13V9h-3.9v4H333.4z M333.4,19.7v-4.8h-3.9v4.8H333.4z M343.2,16
			h-6.5v-1.9h6.5V16z"/>
		<path class="st0" d="M363,25.1h-2.3v-8.5c-2.2,2.8-5.2,5.7-8.3,7.3l-1.2-2c2.8-1.2,6.3-4.4,8.3-7.1h-7.8v-2.1h9V9h-7.2V6.8h7.2
			V3.2h2.3v3.7h7.4v2.1H363v3.7h9.1v2.1h-8c2,2.7,5.5,5.9,8.3,7.1l-1.1,2.1c-3-1.5-6.1-4.6-8.3-7.4L363,25.1L363,25.1z"/>
		<path class="st0" d="M388.3,25.1H386v-7.7c-2.2,2.6-5.2,5.4-8.2,6.8l-1.1-2.1c3.4-1.3,7.3-5,9.3-8.1V8.3h-8.6V6.3h8.6V3.2h2.3v3.1
			h8.9v2.1h-8.9v5.5c0.2,0.4,0.4,0.7,0.7,1.1c1.6-1.3,2.5-3.8,3-6.2l2.1,0.4c-0.2,0.9-0.5,1.9-0.8,2.6c0.5,0.3,1,0.7,1.5,1.1
			l0.2,0.2c1,0.8,1.9,1.6,2.5,2.1l-1.6,1.5c-0.7-0.8-2.2-2.1-3.4-3.1c-0.5,0.9-1.2,1.8-1.8,2.5c-0.4-0.3-1.1-0.8-1.6-1.1
			c2.1,2.8,5.6,5.9,8.7,7l-1.1,2.2c-3.2-1.4-6.2-4.2-8.3-6.9L388.3,25.1L388.3,25.1z M378.6,17.3l-1.4-1.6c1.9-1.4,3.5-4.1,4.1-7
			l2.1,0.4c-0.2,0.9-0.5,1.9-0.9,2.7c0.9,0.8,1.9,1.8,2.5,2.4l-1.5,1.5c-0.4-0.5-1.2-1.3-1.9-2C380.9,15,379.8,16.4,378.6,17.3z"/>
		<path class="st0" d="M422.5,8.8h-20.7V6.9h5.4c-0.4-0.8-1.3-2-2-2.8l2-0.7c0.9,0.9,1.9,2.3,2.3,3.1l-1.2,0.4h7.3l-0.8-0.4
			c0.7-0.9,1.5-2.3,2-3.4l2.3,0.7c-0.2,0.3-0.4,0.6-0.7,0.9L418.4,5c-0.5,0.7-1.1,1.4-1.5,1.9h5.6V8.8z M407.3,25.2l-0.1-1.9
			c0.7,0,1.6,0,1.8,0s0.4-0.2,0.4-0.5v-7.1l-0.8,1.2c-0.6-0.5-2.1-1.4-3.2-1.8l1-1.2c1.1,0.4,2.3,1.1,3,1.7v-3h-4v6.2l0.9-1.1
			c1.2,0.5,2.4,1.3,3.1,1.9l-0.9,1.3c-0.7-0.6-2-1.5-3.1-2v6.2h-2.1V10.8h8.2v12.1c0,1-0.3,1.6-0.9,1.9
			C409.9,25.1,409,25.2,407.3,25.2z M415.8,20.7h-2V11h2V20.7z M415.6,25.2l-0.1-2c0.7,0,1.6,0,2.1,0h0.2c0.1,0,0.2,0,0.3,0
			c0.4,0,0.5-0.2,0.5-0.5V10.3h2.1v12.3c0,1.1-0.3,1.9-1.1,2.2C419,25.1,417.6,25.2,415.6,25.2z"/>
		<path class="st0" d="M427.5,24.9c-0.3-0.5-1.2-1.2-1.7-1.5c1.4-2.8,1.7-7.2,1.7-10.1V5.1l1.2,0.4c2.1-0.5,4.5-1.3,5.9-1.9l1.8,1.6
			c-1.9,0.8-4.5,1.6-6.8,2v1.8h6.6v7.6h-6.7C429.4,19.1,428.8,22.7,427.5,24.9z M434.2,14.6v-3.7h-4.5v2.7c0,0.1,0,0.2,0,0.4v0.2
			c0,0.2,0,0.3,0,0.5L434.2,14.6L434.2,14.6z M445.2,25.1H443v-12h-3.3c-0.1,3.5-1.1,8.8-4.1,12c-0.3-0.5-1.1-1.3-1.6-1.5
			c3.1-3.3,3.6-8.5,3.6-11.9V5.3l1.7,0.4c2.2-0.6,4.7-1.5,6-2.3l1.9,1.6c-2,1-5,1.9-7.5,2.5V11h7.8v2.1h-2.4L445.2,25.1L445.2,25.1z
			"/>
	</g>
</g>
<g>
	<g>
		<path class="st0" d="M140.4,61.4V46.9h3.9v14.4c0,3.1,2.2,4.5,4.9,4.5c2.7,0,5-1.4,5-4.5V46.9h3.9v14.5c0,4.9-3.1,7.6-8.8,7.6
			C143.5,68.9,140.4,66.3,140.4,61.4z"/>
		<path class="st0" d="M161.6,68.6V46.9h7.7c4,0,8.9,0.7,8.9,6.7c0,6-4.8,6.7-8.9,6.7h-3.8v8.3L161.6,68.6L161.6,68.6z M165.5,57.2
			h3.8c2.5,0,5.1-0.2,5.1-3.6c0-3.5-2.5-3.6-5-3.6h-3.8V57.2z"/>
		<path class="st0" d="M180.1,68.6V46.9h3.8v18.4h10.9v3.3L180.1,68.6L180.1,68.6z"/>
		<path class="st0" d="M195,57.7c0-6.6,3.8-11.2,10.6-11.2c6.8,0,10.6,4.7,10.6,11.2c0,6.6-3.9,11.2-10.6,11.2
			C198.9,68.9,195,64.9,195,57.7z M210.6,63.6c1-1.4,1.5-3.5,1.5-5.9c0-2.5-0.6-4.6-1.5-5.9c-1-1.5-2.7-2.2-4.8-2.2
			c-2.3,0-4.1,0.8-5,2.1s-1.6,3.6-1.6,6c0,2.6,0.6,4.7,1.5,5.9c1.1,1.5,3,2.2,5,2.2C207.9,65.8,209.5,65.1,210.6,63.6z"/>
		<path class="st0" d="M232.3,68.6l-2-5.7h-8.5l-2,5.7h-4.1l8.3-21.7h4l8.3,21.7H232.3z M222.9,59.6h6.2l-1.8-5.2
			c-0.4-1.2-0.9-2.6-1.3-3.9h0c-0.4,1.5-0.8,2.6-1.2,3.9L222.9,59.6z"/>
		<path class="st0" d="M237.9,68.6V46.9h7.7c6.8,0,10.7,4.3,10.7,10.9c0,6.8-4,10.8-10.7,10.8H237.9z M241.8,65.4h3.5
			c2.5,0,4.4-0.7,5.4-2.1c1-1.4,1.4-3.2,1.4-5.6c0-2.4-0.3-4-1.4-5.5s-3-2.2-5.5-2.2h-3.5L241.8,65.4L241.8,65.4z"/>
		<path class="st0" d="M263.9,57.7c0-6.6,3.8-11.2,10.6-11.2c4.6,0,8.5,2.3,9.7,7.1l-4,0.8c-0.6-2.7-2.4-4.7-5.6-4.7
			c-2.2,0-4,0.6-5,2c-1,1.4-1.5,3.4-1.5,6c0,2.6,0.4,4.4,1.3,5.9c1,1.5,2.8,2.2,5.2,2.2c3.2,0,5-1.9,5.7-4.4l4.1,1.1
			c-1.7,4.1-5.1,6.4-9.8,6.4C267.8,68.9,263.9,64.9,263.9,57.7z"/>
		<path class="st0" d="M285.3,57.7c0-6.6,3.8-11.2,10.6-11.2c6.8,0,10.6,4.7,10.6,11.2c0,6.6-3.9,11.2-10.6,11.2
			C289.2,68.9,285.3,64.9,285.3,57.7z M300.9,63.6c1-1.4,1.5-3.5,1.5-5.9c0-2.5-0.6-4.6-1.5-5.9c-1-1.5-2.7-2.2-4.8-2.2
			c-2.3,0-4.1,0.8-5,2.1s-1.6,3.6-1.6,6c0,2.6,0.6,4.7,1.5,5.9c1.1,1.5,3,2.2,5,2.2C298.2,65.8,299.9,65.1,300.9,63.6z"/>
		<path class="st0" d="M309.2,68.6V46.9h6l3.5,11.2c0.8,2.7,1.5,5,1.9,6.6h0c0.4-1.6,1.2-4.4,1.9-6.6l3.5-11.2h6v21.7h-3.7V55.8
			c0-0.8,0.1-3.6,0.1-5.5h-0.1c-0.7,2.5-1.4,4.8-1.7,5.9l-4,12.4h-4.2l-4-12.5c-0.3-1-1.1-3.7-1.7-5.8h-0.1c0,1.9,0.1,4.8,0.1,5.6
			v12.7L309.2,68.6L309.2,68.6z"/>
		<path class="st0" d="M335.8,68.6V46.9h7.7c4,0,8.9,0.7,8.9,6.7c0,6-4.8,6.7-8.9,6.7h-3.8v8.3L335.8,68.6L335.8,68.6z M339.7,57.2
			h3.8c2.5,0,5.1-0.2,5.1-3.6c0-3.5-2.5-3.6-5-3.6h-3.8V57.2z"/>
		<path class="st0" d="M354.2,68.6V46.9h3.8v18.4h10.9v3.3L354.2,68.6L354.2,68.6z"/>
		<path class="st0" d="M370.6,68.6V46.9h14.7v3.2h-10.9V56h9.7v3.2h-9.7v6.1h10.9v3.2L370.6,68.6L370.6,68.6z"/>
		<path class="st0" d="M393.5,68.6V50.2h-7v-3.3h18v3.3h-7.1v18.4H393.5z"/>
		<path class="st0" d="M406.1,68.6V46.9h14.7v3.2H410V56h9.7v3.2H410v6.1h10.8v3.2L406.1,68.6L406.1,68.6z"/>
		<path class="st0" d="M423.5,68.6V46.9h7.7c6.8,0,10.7,4.3,10.7,10.9c0,6.8-4,10.8-10.7,10.8H423.5z M427.3,65.4h3.5
			c2.5,0,4.4-0.7,5.4-2.1c1-1.4,1.4-3.2,1.4-5.6c0-2.4-0.3-4-1.4-5.5s-3-2.2-5.5-2.2h-3.5L427.3,65.4L427.3,65.4z"/>
		<path class="st0" d="M63.3,91.4l4-0.4c0,3.2,2.2,4.8,5.2,4.8c2.8,0,5-0.9,5-3.4c0-2.6-2.9-2.5-6.2-3.2c-3.9-0.9-7.4-2.3-7.4-6.4
			c0-4.6,4.2-6.3,8.1-6.3c4.6,0,8.2,1.8,8.7,6.9l-3.9,0.7c-0.1-3-1.9-4.5-4.8-4.5c-2.2,0-4.2,0.9-4.2,3c0,2,2.4,2.6,5.4,3.1
			c4.6,0.7,8.2,1.9,8.2,6.6c0,5.2-4.5,6.7-9,6.7C67.6,98.9,63.4,96.6,63.3,91.4z"/>
		<path class="st0" d="M84,98.6V76.9h14.7v3.2H87.9V86h9.7v3.2h-9.7v6.1h10.9v3.2L84,98.6L84,98.6z"/>
		<path class="st0" d="M116.3,98.6l-2-5.7h-8.5l-1.9,5.7h-4.1l8.3-21.7h4l8.3,21.7C120.4,98.6,116.3,98.6,116.3,98.6z M107,89.6h6.2
			l-1.8-5.2c-0.4-1.2-0.9-2.6-1.3-3.9h0c-0.4,1.5-0.8,2.6-1.2,3.9L107,89.6z"/>
		<path class="st0" d="M139.3,98.5L139.3,98.5l-4.2,0.1c-0.7-1.1-0.9-2.1-0.9-5c0-2.6-1.2-3.6-4.2-3.6h-4.1v8.6H122V76.9h8
			c4.3,0,8.6,0.8,8.6,6.5c0,2.7-1.4,4.5-3.4,5.3c2.1,0.8,2.9,2.4,2.9,4.7S138.3,97.1,139.3,98.5z M129.7,86.9c2.6,0,5.1-0.3,5.1-3.4
			c0-3.3-2.5-3.5-5.1-3.5h-3.9v6.9H129.7z"/>
		<path class="st0" d="M140.5,87.7c0-6.6,3.8-11.2,10.6-11.2c4.6,0,8.5,2.3,9.7,7.1l-4,0.8c-0.6-2.7-2.4-4.7-5.6-4.7
			c-2.2,0-4,0.6-5,2.1c-1,1.4-1.5,3.4-1.5,6.1c0,2.6,0.4,4.4,1.3,5.9c1,1.5,2.8,2.2,5.2,2.2c3.2,0,5-1.9,5.7-4.4l4.1,1.1
			c-1.7,4.2-5.1,6.4-9.8,6.4C144.4,98.9,140.5,94.9,140.5,87.7z"/>
		<path class="st0" d="M163,98.6V76.9h3.9v9.1h9.5v-9.1h3.9v21.7h-3.9v-9.3h-9.5v9.3C166.9,98.6,163,98.6,163,98.6z"/>
		<path class="st0" d="M190.2,98.6V76.9h14.7v3.2H194V86h9.7v3.2H194v9.4L190.2,98.6L190.2,98.6z"/>
		<path class="st0" d="M205.6,87.7c0-6.6,3.8-11.2,10.6-11.2c6.8,0,10.6,4.7,10.6,11.2c0,6.6-3.9,11.2-10.6,11.2
			C209.5,98.9,205.6,94.9,205.6,87.7z M221.2,93.6c1-1.4,1.5-3.5,1.5-5.9c0-2.5-0.6-4.6-1.5-5.9c-1-1.5-2.7-2.2-4.8-2.2
			c-2.3,0-4.1,0.8-5,2.1s-1.6,3.6-1.6,6c0,2.6,0.6,4.7,1.5,5.9c1.1,1.5,3,2.2,5,2.2C218.5,95.8,220.2,95.1,221.2,93.6z"/>
		<path class="st0" d="M246.8,98.5L246.8,98.5l-4.2,0.1c-0.7-1.1-0.9-2.1-0.9-5c0-2.6-1.2-3.6-4.2-3.6h-4.1v8.6h-3.9V76.9h8
			c4.3,0,8.6,0.8,8.6,6.5c0,2.7-1.4,4.5-3.4,5.3c2.1,0.8,2.9,2.4,2.9,4.7S245.8,97.1,246.8,98.5z M237.2,86.9c2.6,0,5.1-0.3,5.1-3.4
			c0-3.3-2.5-3.5-5-3.5h-3.9v6.9H237.2z"/>
		<path class="st0" d="M261,98.6v-9.1l-7.6-12.6h4.4l3,5.4c0.3,0.6,1.4,2.6,2.1,4.1c0.8-1.5,1.5-2.9,2.2-4.1l3-5.4h4.4l-7.7,12.6
			v9.1H261z"/>
		<path class="st0" d="M271.6,87.7c0-6.6,3.8-11.2,10.6-11.2c6.8,0,10.6,4.7,10.6,11.2c0,6.6-3.9,11.2-10.6,11.2
			C275.5,98.9,271.6,94.9,271.6,87.7z M287.2,93.6c1-1.4,1.5-3.5,1.5-5.9c0-2.5-0.6-4.6-1.5-5.9c-1-1.5-2.7-2.2-4.8-2.2
			c-2.3,0-4.1,0.8-5,2.1s-1.6,3.6-1.6,6c0,2.6,0.6,4.7,1.5,5.9c1.1,1.5,3,2.2,5,2.2C284.5,95.8,286.1,95.1,287.2,93.6z"/>
		<path class="st0" d="M295.2,91.4V76.9h3.9v14.4c0,3.1,2.2,4.5,4.9,4.5c2.7,0,5-1.4,5-4.5V76.9h3.9v14.5c0,4.9-3.1,7.6-8.8,7.6
			C298.2,98.9,295.2,96.3,295.2,91.4z"/>
		<path class="st0" d="M333.8,98.5L333.8,98.5l-4.2,0.1c-0.7-1.1-0.9-2.1-0.9-5c0-2.6-1.2-3.6-4.2-3.6h-4.1v8.6h-3.9V76.9h8
			c4.3,0,8.6,0.8,8.6,6.5c0,2.7-1.4,4.5-3.4,5.3c2.1,0.8,2.9,2.4,2.9,4.7S332.7,97.1,333.8,98.5z M324.1,86.9c2.6,0,5.1-0.3,5.1-3.4
			c0-3.3-2.5-3.5-5-3.5h-3.9v6.9H324.1z"/>
		<path class="st0" d="M342.4,98.6V76.9h14.7v3.2h-10.9V86h9.7v3.2h-9.7v9.4L342.4,98.6L342.4,98.6z"/>
		<path class="st0" d="M358.9,91.4V76.9h3.9v14.4c0,3.1,2.2,4.5,4.9,4.5c2.7,0,5-1.4,5-4.5V76.9h3.9v14.5c0,4.9-3.1,7.6-8.8,7.6
			C362,98.9,358.9,96.3,358.9,91.4z"/>
		<path class="st0" d="M385.1,98.6V80.2h-7v-3.3h18v3.3H389v18.4H385.1z"/>
		<path class="st0" d="M397.6,91.4V76.9h3.9v14.4c0,3.1,2.2,4.5,4.9,4.5c2.7,0,5-1.4,5-4.5V76.9h3.9v14.5c0,4.9-3.1,7.6-8.8,7.6
			S397.6,96.3,397.6,91.4z"/>
		<path class="st0" d="M436.2,98.5L436.2,98.5l-4.2,0.1c-0.7-1.1-0.9-2.1-0.9-5c0-2.6-1.2-3.6-4.2-3.6h-4.1v8.6h-3.9V76.9h8
			c4.3,0,8.7,0.8,8.7,6.5c0,2.7-1.4,4.5-3.4,5.3c2.1,0.8,2.9,2.4,2.9,4.7S435.2,97.1,436.2,98.5z M426.6,86.9c2.6,0,5.1-0.3,5.1-3.4
			c0-3.3-2.5-3.5-5-3.5h-3.9v6.9H426.6z"/>
		<path class="st0" d="M438.6,98.6V76.9h14.7v3.2h-10.8V86h9.7v3.2h-9.7v6.1h10.8v3.2L438.6,98.6L438.6,98.6z"/>
		<path class="st0" d="M462.4,98.6V76.9h3.8v18.4h10.9v3.3L462.4,98.6L462.4,98.6z"/>
		<path class="st0" d="M478.7,98.6V76.9h3.9v21.7C482.6,98.6,478.7,98.6,478.7,98.6z"/>
		<path class="st0" d="M486.3,98.6V76.9H501v3.2h-10.9V86h9.7v3.2h-9.7v9.4L486.3,98.6L486.3,98.6z"/>
		<path class="st0" d="M502.8,98.6V76.9h14.7v3.2h-10.9V86h9.7v3.2h-9.7v6.1h10.9v3.2L502.8,98.6L502.8,98.6z"/>
	</g>
</g>
</svg>
